<svg width="80" height="58" viewBox="0 0 80 58" fill="none" xmlns="http://www.w3.org/2000/svg">
<g id="design">
<rect id="Rectangle 34" y="0.285767" width="80" height="57.1429" rx="10" fill="#43AA8B" fill-opacity="0.7"/>
<g id="Group 48">
<path id="Vector" d="M45.0703 35.6412C44.6499 35.6412 44.3086 35.9825 44.3086 36.403C44.3086 36.8234 44.6499 37.1647 45.0703 37.1647C45.4907 37.1647 45.832 36.8234 45.832 36.403C45.832 35.9825 45.4907 35.6412 45.0703 35.6412Z" fill="white"/>
<path id="Vector_2" d="M56.1914 9.28577H24.8086C22.7085 9.28577 21 10.9943 21 13.0944V36.403C21 38.503 22.7085 40.2115 24.8086 40.2115H36.6914V43.7155H35.9297C34.9127 43.7155 33.9567 44.1118 33.2369 44.8313C32.5174 45.551 32.1211 46.507 32.1211 47.524C32.1211 47.9448 32.4621 48.2858 32.8828 48.2858H48.1172C48.5379 48.2858 48.8789 47.9448 48.8789 47.524C48.8789 45.424 47.1704 43.7155 45.0703 43.7155H44.3086V40.2115H56.1914C58.2915 40.2115 60 38.503 60 36.403V13.0944C60 10.9943 58.2915 9.28577 56.1914 9.28577ZM24.8086 10.8092H56.1914C57.4515 10.8092 58.4766 11.8343 58.4766 13.0944V32.5944H54.9727V15.0748C54.9727 14.6541 54.6317 14.3131 54.2109 14.3131H48.1172C47.6965 14.3131 47.3555 14.6541 47.3555 15.0748V32.5944H43.5427C43.5347 31.8065 43.5141 31.0299 43.4814 30.2765C43.3481 27.1743 43.0443 25.0962 42.8863 24.1821C44.458 23.025 44.887 20.8803 43.9262 19.214L41.2861 14.6413C41.1498 14.4056 40.8984 14.2604 40.6265 14.2604C40.3542 14.2604 40.1028 14.4056 39.9668 14.6413L37.3255 19.2143C36.4197 20.7853 36.7408 22.8203 38.1637 24.0212C37.9988 24.9325 37.6662 27.085 37.5216 30.275C37.4873 31.0364 37.4656 31.8136 37.4573 32.5944H33.6445V21.1686C33.6445 21.0478 33.616 20.9377 33.5693 20.8398C33.5672 20.8359 33.566 20.8318 33.5642 20.8279L30.5173 14.7341C30.3882 14.4762 30.1246 14.3131 29.8359 14.3131C29.5473 14.3131 29.2837 14.4762 29.1546 14.7341L26.1077 20.8279C26.1059 20.8318 26.1047 20.8359 26.1029 20.8398C26.0553 20.9386 26.0273 21.0505 26.0273 21.1686V32.5944H22.5234V13.0944C22.5234 11.8343 23.5485 10.8092 24.8086 10.8092ZM48.8789 32.5944V15.8365H53.4492V17.36H52.6875C52.2668 17.36 51.9258 17.701 51.9258 18.1217C51.9258 18.5424 52.2668 18.8834 52.6875 18.8834H53.4492V21.1686H52.6875C52.2668 21.1686 51.9258 21.5096 51.9258 21.9303C51.9258 22.351 52.2668 22.692 52.6875 22.692H53.4492V24.9772H52.6875C52.2668 24.9772 51.9258 25.3182 51.9258 25.7389C51.9258 26.1596 52.2668 26.5006 52.6875 26.5006H53.4492V29.5475H52.6875C52.2668 29.5475 51.9258 29.8885 51.9258 30.3092C51.9258 30.7299 52.2668 31.0709 52.6875 31.0709H53.4492V32.5944H48.8789ZM40.6265 24.9245C40.9032 24.9245 41.1787 24.8927 41.4483 24.8332C41.5896 25.7392 41.7973 27.3424 41.9202 29.5475H39.0849C39.2137 27.3439 39.4312 25.7157 39.5815 24.779C39.9189 24.8751 40.2703 24.9245 40.6265 24.9245ZM40.6265 23.4011C38.8855 23.4011 37.7629 21.5063 38.6451 19.9757L40.6265 16.5456L42.6066 19.9754C43.4856 21.4997 42.3784 23.4011 40.6265 23.4011ZM39.0149 31.0709H41.9871C42.0032 31.5714 42.0142 32.0805 42.0196 32.5944H38.9807C38.9864 32.0838 38.998 31.5747 39.0149 31.0709ZM30.5977 32.5944V21.9303H32.1211V32.5944H30.5977ZM27.5508 32.5944V21.9303H29.0742V32.5944H27.5508ZM28.0215 20.4069L29.8359 16.778L31.6504 20.4069H28.0215ZM47.2248 46.7623H33.7743C33.8861 46.4448 34.0688 46.1538 34.314 45.9084C34.746 45.4766 35.3197 45.2389 35.9297 45.2389H45.0703C46.0635 45.2389 46.9106 45.8756 47.2248 46.7623ZM42.7852 43.7155H38.2148V40.2115H42.7852V43.7155ZM56.1914 38.6881H24.8086C23.5485 38.6881 22.5234 37.6631 22.5234 36.403V34.1178H58.4766V36.403C58.4766 37.6631 57.4515 38.6881 56.1914 38.6881Z" fill="white"/>
<path id="Vector_3" d="M42.0234 35.6412H37.4531C37.0324 35.6412 36.6914 35.9822 36.6914 36.403C36.6914 36.8237 37.0324 37.1647 37.4531 37.1647H42.0234C42.4442 37.1647 42.7852 36.8237 42.7852 36.403C42.7852 35.9822 42.4442 35.6412 42.0234 35.6412Z" fill="white"/>
</g>
</g>
</svg>
