<svg width="16" height="13" viewBox="0 0 16 13" fill="none" xmlns="http://www.w3.org/2000/svg">
<path d="M14.4 0H1.6C0.72 0 0.00799999 0.72 0.00799999 1.6L0 11.2C0 12.08 0.72 12.8 1.6 12.8H14.4C15.28 12.8 16 12.08 16 11.2V1.6C16 0.72 15.28 0 14.4 0ZM14.08 3.4L8.424 6.936C8.168 7.096 7.832 7.096 7.576 6.936L1.92 3.4C1.83978 3.35497 1.76954 3.29413 1.71351 3.22116C1.65749 3.1482 1.61685 3.06462 1.59406 2.9755C1.57127 2.88637 1.5668 2.79355 1.58093 2.70265C1.59505 2.61174 1.62747 2.52465 1.67623 2.44664C1.72498 2.36863 1.78906 2.30132 1.86458 2.2488C1.9401 2.19627 2.0255 2.15961 2.1156 2.14104C2.2057 2.12247 2.29863 2.12237 2.38876 2.14076C2.4789 2.15914 2.56437 2.19563 2.64 2.248L8 5.6L13.36 2.248C13.4356 2.19563 13.5211 2.15914 13.6112 2.14076C13.7014 2.12237 13.7943 2.12247 13.8844 2.14104C13.9745 2.15961 14.0599 2.19627 14.1354 2.2488C14.2109 2.30132 14.275 2.36863 14.3238 2.44664C14.3725 2.52465 14.405 2.61174 14.4191 2.70265C14.4332 2.79355 14.4287 2.88637 14.4059 2.9755C14.3832 3.06462 14.3425 3.1482 14.2865 3.22116C14.2305 3.29413 14.1602 3.35497 14.08 3.4Z" fill="white"/>
</svg>
