<svg width="33" height="32" viewBox="0 0 33 32" fill="none" xmlns="http://www.w3.org/2000/svg">
<path d="M32.1982 16.0991C32.1982 7.20536 24.9868 0 16.0991 0C7.20536 0 0 7.20536 0 16.0991C0 24.1326 5.88523 30.7936 13.5836 32V20.7538H9.49546V16.1001H13.5836V12.5513C13.5836 8.51744 15.9834 6.28972 19.662 6.28972C21.4239 6.28972 23.2682 6.60365 23.2682 6.60365V10.565H21.2347C19.2384 10.565 18.6146 11.8077 18.6146 13.0805V16.0991H23.0791L22.3617 20.7528H18.6146V31.999C26.307 30.7926 32.1982 24.1316 32.1982 16.0981V16.0991Z" fill="#333333"/>
</svg>
