<svg width="32" height="32" viewBox="0 0 32 32" fill="none" xmlns="http://www.w3.org/2000/svg">
<path fill-rule="evenodd" clip-rule="evenodd" d="M16 32C24.8366 32 32 24.8366 32 16C32 7.16344 24.8366 0 16 0C7.16344 0 0 7.16344 0 16C0 24.8366 7.16344 32 16 32ZM20.4159 7.057C19.4032 7.0095 19.0812 7 16.5 7C13.9188 7 13.5968 7.01235 12.5841 7.057C11.5714 7.1045 10.8836 7.26315 10.2775 7.49875C9.64331 7.73694 9.06879 8.11077 8.5941 8.5941C8.11036 9.06845 7.73647 9.64307 7.49875 10.2775C7.26315 10.8836 7.1045 11.5714 7.057 12.5841C7.0095 13.5968 7 13.9188 7 16.5C7 19.0812 7.01235 19.4032 7.057 20.4159C7.1045 21.4277 7.26315 22.1173 7.49875 22.7225C7.73713 23.3566 8.11094 23.9311 8.5941 24.4059C9.06865 24.8894 9.64321 25.2633 10.2775 25.5012C10.8836 25.7359 11.5723 25.8955 12.5841 25.943C13.5968 25.9905 13.9188 26 16.5 26C19.0812 26 19.4032 25.9876 20.4159 25.943C21.4277 25.8955 22.1173 25.7359 22.7225 25.5012C23.3564 25.2626 23.9309 24.8888 24.4059 24.4059C24.8896 23.9315 25.2634 23.3569 25.5012 22.7225C25.7359 22.1164 25.8955 21.4277 25.943 20.4159C25.9905 19.4032 26 19.0812 26 16.5C26 13.9188 25.9876 13.5968 25.943 12.5841C25.8955 11.5723 25.7359 10.8826 25.5012 10.2775C25.2628 9.64346 24.889 9.069 24.4059 8.5941C23.8777 8.06685 23.3495 7.74005 22.7225 7.49875C22.1164 7.26315 21.4277 7.1045 20.4159 7.057ZM13.1412 13.1412C14.032 12.2504 15.2402 11.75 16.5 11.75C17.7598 11.75 18.968 12.2504 19.8588 13.1412C20.7496 14.032 21.25 15.2402 21.25 16.5C21.25 17.7598 20.7496 18.968 19.8588 19.8588C18.968 20.7496 17.7598 21.25 16.5 21.25C15.2402 21.25 14.032 20.7496 13.1412 19.8588C12.2504 18.968 11.75 17.7598 11.75 16.5C11.75 15.2402 12.2504 14.032 13.1412 13.1412ZM22.3272 10.6728C22.5499 10.8955 22.675 11.1976 22.675 11.5125C22.675 11.8274 22.5499 12.1295 22.3272 12.3522C22.1045 12.5749 21.8024 12.7 21.4875 12.7C21.1726 12.7 20.8705 12.5749 20.6478 12.3522C20.4251 12.1295 20.3 11.8274 20.3 11.5125C20.3 11.1976 20.4251 10.8955 20.6478 10.6728C20.8705 10.4501 21.1726 10.325 21.4875 10.325C21.8024 10.325 22.1045 10.4501 22.3272 10.6728ZM18.5153 14.4847C17.9808 13.9503 17.2559 13.65 16.5 13.65C15.7441 13.65 15.0192 13.9503 14.4847 14.4847C13.9503 15.0192 13.65 15.7441 13.65 16.5C13.65 17.2559 13.9503 17.9808 14.4847 18.5153C15.0192 19.0497 15.7441 19.35 16.5 19.35C17.2559 19.35 17.9808 19.0497 18.5153 18.5153C19.0497 17.9808 19.35 17.2559 19.35 16.5C19.35 15.7441 19.0497 15.0192 18.5153 14.4847Z" fill="#333333"/>
</svg>
