<svg width="80" height="58" viewBox="0 0 80 58" fill="none" xmlns="http://www.w3.org/2000/svg">
<g id="iot">
<rect id="Rectangle 34" width="80" height="57.1429" rx="10" fill="#F94144" fill-opacity="0.7"/>
<g id="Group 47">
<path id="Vector" d="M55.9104 19.832C55.9068 16.6158 53.3002 14.0092 50.084 14.0056H47.8664C47.4895 9.88054 44.0305 6.72272 39.888 6.72272C35.7454 6.72272 32.2864 9.88054 31.9095 14.0056H29.6919C26.4739 14.0056 23.8655 16.614 23.8655 19.832C23.8655 23.0499 26.4739 25.6583 29.6919 25.6583H37.7031V24.2017H29.6919C27.2787 24.2017 25.3221 22.2451 25.3221 19.832C25.3221 17.4188 27.2787 15.4622 29.6919 15.4622H33.3333V14.7339C33.3333 11.1138 36.2678 8.1793 39.888 8.1793C43.5081 8.1793 46.4426 11.1138 46.4426 14.7339V15.4622H50.084C52.4972 15.4622 54.4538 17.4188 54.4538 19.832C54.4538 22.2451 52.4972 24.2017 50.084 24.2017H42.0728V25.6583H50.084C53.3002 25.6547 55.9068 23.0481 55.9104 19.832Z" fill="white"/>
<path id="Vector_2" d="M52.9972 48.2353V35.8543C52.9958 34.6481 52.0186 33.6708 50.8123 33.6694H49.3557V32.0788C50.3141 31.7417 50.9126 30.7872 50.7985 29.7776C50.6843 28.768 49.8874 27.9711 48.8778 27.857C47.8682 27.7428 46.9138 28.3413 46.5766 29.2997H40.6162V20.1334L42.2862 21.8034L43.316 20.7735L39.888 17.3455L36.4599 20.7735L37.4897 21.8034L39.1597 20.1334V29.2997H33.1993C32.8621 28.3413 31.9077 27.7425 30.8981 27.857C29.8885 27.9711 29.0916 28.7677 28.9775 29.7773C28.8633 30.7868 29.4618 31.7417 30.4202 32.0784V34.3977H26.0504C24.8442 34.3991 23.867 35.3764 23.8655 36.5826V45.3221C23.867 46.5283 24.8442 47.5055 26.0504 47.507H30.4202V48.9635H28.2353V50.4201H34.0616V48.9635H31.8768V47.507H36.2465C37.4527 47.5055 38.4299 46.5283 38.4314 45.3221V36.5826C38.4299 35.3764 37.4527 34.3991 36.2465 34.3977H31.8768V32.0788C32.4937 31.8587 32.9791 31.3732 33.1993 30.7563H46.5766C46.7968 31.3732 47.2822 31.8587 47.8992 32.0784V33.6694H43.5294C42.3232 33.6708 41.346 34.6481 41.3445 35.8543V48.2353C41.346 49.4415 42.3232 50.4187 43.5294 50.4201H50.8123C52.0186 50.4187 52.9958 49.4415 52.9972 48.2353ZM36.9748 45.3221C36.9744 45.7243 36.6487 46.05 36.2465 46.0504H26.0504C25.6482 46.05 25.3225 45.7243 25.3221 45.3221V43.8655H36.9748V45.3221ZM36.2465 35.8543C36.6487 35.8547 36.9744 36.1804 36.9748 36.5826V42.4089H25.3221V36.5826C25.3225 36.1804 25.6482 35.8547 26.0504 35.8543H36.2465ZM31.1485 30.7563C30.7463 30.7563 30.4202 30.4302 30.4202 30.028C30.4202 29.6258 30.7463 29.2997 31.1485 29.2997C31.5507 29.2997 31.8768 29.6258 31.8768 30.028C31.8764 30.4302 31.5507 30.7559 31.1485 30.7563ZM48.6274 29.2997C49.0296 29.2997 49.3557 29.6258 49.3557 30.028C49.3557 30.4302 49.0296 30.7563 48.6274 30.7563C48.2253 30.7563 47.8992 30.4302 47.8992 30.028C47.8995 29.6258 48.2253 29.3 48.6274 29.2997ZM42.8011 35.8543C42.8015 35.4521 43.1272 35.1264 43.5294 35.126H50.8123C51.2145 35.1264 51.5403 35.4521 51.5406 35.8543V45.3221H42.8011V35.8543ZM42.8011 48.2353V46.7787H51.5406V48.2353C51.5403 48.6374 51.2145 48.9632 50.8123 48.9635H43.5294C43.1272 48.9632 42.8015 48.6374 42.8011 48.2353Z" fill="white"/>
</g>
</g>
</svg>
