<svg width="80" height="58" viewBox="0 0 80 58" fill="none" xmlns="http://www.w3.org/2000/svg">
<g id="komputer">
<rect id="Rectangle 34" y="0.285767" width="80" height="57.1429" rx="10" fill="#F9C74F" fill-opacity="0.7"/>
<g id="Group 51">
<g id="Group">
<g id="Group_2">
<path id="Vector" d="M48.8959 19.3066H32.1042C31.5083 19.3066 31.0209 19.7941 31.0209 20.3899V37.1816C31.0209 37.7775 31.5083 38.265 32.1042 38.265H48.8959C49.4917 38.265 49.9792 37.7775 49.9792 37.1816V20.39C49.9792 19.7942 49.4917 19.3066 48.8959 19.3066ZM47.8125 36.0983H33.1875V32.0358H35.3542C35.95 32.0358 36.4375 31.5483 36.4375 30.9525C36.4375 30.3567 35.95 29.8692 35.3542 29.8692H33.1875V27.7025H37.5208C38.1167 27.7025 38.6042 27.2151 38.6042 26.6192C38.6042 26.0234 38.1167 25.5359 37.5208 25.5359H33.1875V21.4734H47.8125V36.0983Z" fill="white"/>
</g>
</g>
<g id="Group_3">
<g id="Group_4">
<path id="Vector_2" d="M60 25.9691C60 25.3733 59.5125 24.8858 58.9167 24.8858H55.45V21.4733H58.9167C59.5125 21.4733 60 20.9859 60 20.39C60 19.7942 59.5125 19.3067 58.9167 19.3067H55.45V16.9775C55.45 15.2441 54.0416 13.8358 52.3084 13.8358H49.9792V10.3691C49.9792 9.77324 49.4917 9.28577 48.8959 9.28577C48.3001 9.28577 47.8126 9.77324 47.8126 10.3691V13.8358H44.3458V10.3691C44.3458 9.77324 43.8583 9.28577 43.2625 9.28577C42.6667 9.28577 42.1792 9.77324 42.1792 10.3691V13.8358H38.7125V10.3691C38.7125 9.77324 38.225 9.28577 37.6292 9.28577C37.0334 9.28577 36.5459 9.77324 36.5459 10.3691V13.8358H33.1876V10.3691C33.1875 9.77324 32.7 9.28577 32.1042 9.28577C31.5084 9.28577 31.0209 9.77324 31.0209 10.3691V13.8358H28.6917C26.9584 13.8358 25.5501 15.2441 25.5501 16.9774V19.3066H22.0833C21.4875 19.3066 21 19.7941 21 20.39C21 20.9858 21.4875 21.4733 22.0833 21.4733H25.55V24.94H22.0833C21.4875 24.94 21 25.4274 21 26.0233C21 26.6191 21.4875 27.1066 22.0833 27.1066H25.55V30.5733H22.0833C21.4875 30.5733 21 31.0608 21 31.6566C21 32.2525 21.4875 32.7399 22.0833 32.7399H25.55V36.0983H22.0833C21.4875 36.0983 21 36.5858 21 37.1817C21 37.7775 21.4875 38.265 22.0833 38.265H25.55V40.5941C25.55 42.3275 26.9584 43.7358 28.6916 43.7358H31.0208V47.2025C31.0208 47.7983 31.5083 48.2858 32.1041 48.2858C32.6999 48.2858 33.1874 47.7983 33.1874 47.2025V43.7358H36.6541V47.2025C36.6541 47.7983 37.1416 48.2858 37.7374 48.2858C38.3332 48.2858 38.8207 47.7983 38.8207 47.2025V43.7358H42.2874V47.2025C42.2874 47.7983 42.7749 48.2858 43.3707 48.2858C43.9665 48.2858 44.454 47.7983 44.454 47.2025V43.7358H47.8124V47.2025C47.8124 47.7983 48.2998 48.2858 48.8957 48.2858C49.4915 48.2858 49.979 47.7983 49.979 47.2025V43.7358H52.3081C54.0415 43.7358 55.4498 42.3274 55.4498 40.5941V38.265H58.9165C59.5123 38.265 59.9998 37.7775 59.9998 37.1817C59.9998 36.5858 59.5123 36.0984 58.9165 36.0984H55.4498V32.6316H58.9165C59.5123 32.6316 59.9998 32.1441 59.9998 31.5483C59.9998 30.9525 59.5123 30.465 58.9165 30.465H55.4498V26.9983H58.9165V27.0524C59.5125 27.0524 60 26.5649 60 25.9691ZM53.3375 40.5941H53.2834C53.2834 41.1358 52.8501 41.5692 52.3084 41.5692H28.6917C28.15 41.5692 27.7167 41.1358 27.7167 40.5941V16.9775C27.7167 16.4358 28.15 16.0024 28.6917 16.0024H52.3626C52.9043 16.0024 53.3376 16.4358 53.3376 16.9775V40.5941H53.3375Z" fill="white"/>
</g>
</g>
</g>
</g>
</svg>
