<svg width="80" height="58" viewBox="0 0 80 58" fill="none" xmlns="http://www.w3.org/2000/svg">
<g id="optic">
<rect id="Rectangle 34" y="0.428711" width="80" height="57.1429" rx="10" fill="#90BE6D" fill-opacity="0.7"/>
<g id="Group 55">
<g id="Group 46">
<path id="Vector 1" d="M39.0233 16.2634H10.6428M10.6428 41.305H39.0233" stroke="white" stroke-width="1.78869"/>
<path id="Vector 3" d="M32.5243 20.3179H22.6865M19.3477 25.5647H31.63" stroke="white" stroke-width="1.78869"/>
<path id="Vector 4" d="M32.584 37.0122H22.7462M19.4073 31.7654H31.6896" stroke="white" stroke-width="1.78869"/>
<circle id="Ellipse 4" cx="38.8444" cy="19.185" r="2.8619" transform="rotate(90 38.8444 19.185)" stroke="white" stroke-width="1.78869"/>
<path id="Ellipse 9" d="M44.449 22.1065C44.1463 22.1065 43.8088 22.1162 43.5059 22.1248C43.308 22.1304 43.1249 22.1356 42.9758 22.1375C42.5352 22.1429 42.2229 22.1259 41.9954 22.073C41.7852 22.0241 41.7277 21.9633 41.7037 21.9313C41.671 21.8877 41.5871 21.7398 41.5871 21.3314C41.5871 19.7509 42.8684 18.4695 44.449 18.4695C46.0295 18.4695 47.3109 19.7509 47.3109 21.3314C47.3109 21.7398 47.2269 21.8877 47.1942 21.9313C47.1702 21.9633 47.1127 22.0241 46.9025 22.073C46.675 22.1259 46.3628 22.1429 45.9221 22.1375C45.7731 22.1356 45.5899 22.1304 45.392 22.1248C45.0891 22.1162 44.7516 22.1065 44.449 22.1065Z" stroke="white" stroke-width="1.78869"/>
<g id="Group 44">
<path id="Vector 3_2" d="M51.4248 22.1064H36.6383M36.6383 35.462H51.4248" stroke="white" stroke-width="1.78869"/>
</g>
<g id="Group 45">
<path id="Vector 3_3" d="M63.9457 26.8762H51.4249M51.4249 30.6921H63.7668" stroke="white" stroke-width="1.78869"/>
<circle id="Ellipse 9_2" cx="64.8996" cy="28.7842" r="2.20605" transform="rotate(90 64.8996 28.7842)" stroke="white" stroke-width="1.78869"/>
</g>
<circle id="Ellipse 5" cx="33.2398" cy="23.1201" r="2.8619" transform="rotate(90 33.2398 23.1201)" stroke="white" stroke-width="1.78869"/>
<circle id="Ellipse 6" cx="29.5432" cy="28.7246" r="2.8619" transform="rotate(90 29.5432 28.7246)" stroke="white" stroke-width="1.78869"/>
<circle id="Ellipse 7" cx="33.2398" cy="34.3291" r="2.8619" transform="rotate(90 33.2398 34.3291)" stroke="white" stroke-width="1.78869"/>
<circle id="Ellipse 8" cx="39.0829" cy="38.3836" r="2.8619" transform="rotate(90 39.0829 38.3836)" stroke="white" stroke-width="1.78869"/>
<path id="Ellipse 10" d="M44.449 39.099C42.8684 39.099 41.5871 37.8177 41.5871 36.2371C41.5871 35.8288 41.671 35.6809 41.7037 35.6373C41.7277 35.6053 41.7852 35.5445 41.9954 35.4956C42.2229 35.4427 42.5352 35.4257 42.9758 35.4311C43.1249 35.433 43.308 35.4382 43.5058 35.4438C43.8088 35.4525 44.1463 35.4621 44.449 35.4621C44.7516 35.4621 45.0891 35.4525 45.3921 35.4438C45.5899 35.4382 45.7731 35.433 45.9221 35.4311C46.3628 35.4257 46.675 35.4427 46.9025 35.4956C47.1127 35.5445 47.1702 35.6053 47.1942 35.6373C47.2269 35.6809 47.3109 35.8288 47.3109 36.2371C47.3109 37.8177 46.0295 39.099 44.449 39.099Z" stroke="white" stroke-width="1.78869"/>
<path id="Vector 2" d="M29.0662 16.2037C25.2305 17.6148 18.9303 21.8083 18.9303 29.0227C18.9303 36.5948 26.264 40.2119 29.424 41.3646" stroke="white" stroke-width="1.78869"/>
<path id="Subtract" fill-rule="evenodd" clip-rule="evenodd" d="M51.7826 25.9224C50.2484 25.9385 49.0096 27.2136 49.0096 28.7843C49.0096 30.3549 50.2484 31.63 51.7826 31.6462V29.8572C51.2693 29.8409 50.7983 29.401 50.7983 28.7843C50.7983 28.1676 51.2693 27.7277 51.7826 27.7114V25.9224Z" fill="white"/>
</g>
<path id="Subtract_2" fill-rule="evenodd" clip-rule="evenodd" d="M60.1661 27.5918C59.6184 23.8811 56.4206 21.0333 52.5576 21.0333C48.3098 21.0333 44.8663 24.4769 44.8663 28.7247C44.8663 32.9725 48.3098 36.416 52.5576 36.416C56.4206 36.416 59.6184 33.5682 60.1662 29.8575H58.3517C57.8234 32.5755 55.4302 34.6273 52.5576 34.6273C49.2977 34.6273 46.655 31.9846 46.655 28.7247C46.655 25.4647 49.2977 22.822 52.5576 22.822C55.4301 22.822 57.8234 24.8738 58.3517 27.5918H60.1661Z" fill="white"/>
</g>
</g>
</svg>
