<svg width="16" height="16" viewBox="0 0 16 16" fill="none" xmlns="http://www.w3.org/2000/svg">
<path d="M0.74586 2.52812L2.81379 0.462129C2.95966 0.315614 3.13305 0.199364 3.32398 0.120057C3.51492 0.0407508 3.71964 -4.95519e-05 3.92639 4.51634e-08C4.34775 4.51634e-08 4.74386 0.165046 5.04094 0.462129L7.26615 2.68734C7.41267 2.83321 7.52891 3.0066 7.60822 3.19753C7.68753 3.38847 7.72833 3.59319 7.72828 3.79994C7.72828 4.2213 7.56323 4.61741 7.26615 4.91449L5.63899 6.54165C6.01987 7.38117 6.54942 8.1449 7.20207 8.79598C7.85309 9.45022 8.61676 9.9817 9.45641 10.3649L11.0836 8.73773C11.2294 8.59122 11.4028 8.47497 11.5938 8.39566C11.7847 8.31635 11.9894 8.27555 12.1962 8.2756C12.6175 8.2756 13.0136 8.44065 13.3107 8.73773L15.5379 10.961C15.6846 11.1071 15.8009 11.2809 15.8802 11.4721C15.9595 11.6634 16.0002 11.8685 16 12.0755C16 12.4969 15.835 12.893 15.5379 13.1901L13.4738 15.2541C13 15.7299 12.3457 15.9998 11.6739 15.9998C11.5321 15.9998 11.3962 15.9881 11.2622 15.9648C8.64477 15.5337 6.04869 14.1415 3.95358 12.0484C1.8604 9.95713 0.470136 7.363 0.0332489 4.73779C-0.0987873 3.93586 0.167228 3.11063 0.74586 2.52812Z" fill="white"/>
</svg>
