<svg width="80" height="58" viewBox="0 0 80 58" fill="none" xmlns="http://www.w3.org/2000/svg">
<g id="photography">
<rect id="Rectangle 34" width="80" height="57.1429" rx="10" fill="#577590" fill-opacity="0.7"/>
<g id="Group 52">
<path id="Vector 5" d="M26.0719 43.58V47.7424H39.7332V43.58" stroke="white" stroke-width="2.13457" stroke-linecap="round" stroke-linejoin="round"/>
<rect id="Rectangle 31" x="24.3643" y="29.4918" width="4.90951" height="9.39211" rx="1.06729" stroke="white" stroke-width="2.13457" stroke-linejoin="round"/>
<path id="Vector 7" d="M56.8097 41.2321L47.8445 36.3569V31.0578L56.8097 26.0766V41.2321Z" stroke="white" stroke-width="2.13457"/>
<rect id="Rectangle 32" x="56.5963" y="23.3017" width="5.33643" height="20.7053" rx="1.06729" stroke="white" stroke-width="2.13457"/>
<circle id="Ellipse 12" cx="42.6149" cy="18.7123" r="8.64501" stroke="white" stroke-width="2.13457"/>
<circle id="Ellipse 13" cx="42.6148" cy="18.7123" r="4.37587" stroke="white" stroke-width="2.13457"/>
<path id="Subtract" fill-rule="evenodd" clip-rule="evenodd" d="M20.6266 23.1949H20.2019C18.4335 23.1949 17 24.6284 17 26.3967V40.9118C17 42.6802 18.4335 44.1137 20.2019 44.1137H30.768C31.3574 44.1137 31.8353 43.6358 31.8353 43.0464C31.8353 42.4569 31.3574 41.9791 30.768 41.9791H20.2019C19.6124 41.9791 19.1346 41.5013 19.1346 40.9118V26.3967C19.1346 25.8073 19.6124 25.3295 20.2019 25.3295H21.5629C21.1081 24.7052 20.7828 23.9805 20.6266 23.1949ZM30.3675 25.3295H35.5055C34.9119 24.6919 34.4029 23.9744 33.9966 23.1949H31.3038C31.1476 23.9805 30.8224 24.7052 30.3675 25.3295ZM46.6705 40.9118V27.5398C47.4395 27.1859 48.1544 26.7345 48.7992 26.2014C48.8031 26.266 48.8051 26.3311 48.8051 26.3967V40.9118C48.8051 42.6802 47.3716 44.1137 45.6032 44.1137H37.1717C36.5822 44.1137 36.1044 43.6358 36.1044 43.0464C36.1044 42.4569 36.5822 41.9791 37.1717 41.9791H45.6032C46.1927 41.9791 46.6705 41.5013 46.6705 40.9118Z" fill="white"/>
<circle id="Ellipse 15" cx="25.9652" cy="22.1276" r="4.37587" stroke="white" stroke-width="2.13457"/>
</g>
</g>
</svg>
