<svg width="13" height="20" viewBox="0 0 13 20" fill="none" xmlns="http://www.w3.org/2000/svg">
<path d="M6.25391 0C2.79925 0 0 2.78799 0 6.2414C0 12.2126 6.25391 20 6.25391 20C6.25391 20 12.5078 12.2114 12.5078 6.2414C12.5078 2.78924 9.70857 0 6.25391 0ZM6.25391 9.69481C5.35824 9.69481 4.49926 9.33901 3.86593 8.70568C3.2326 8.07235 2.8768 7.21336 2.8768 6.3177C2.8768 5.42203 3.2326 4.56305 3.86593 3.92972C4.49926 3.29639 5.35824 2.94059 6.25391 2.94059C7.14957 2.94059 8.00855 3.29639 8.64189 3.92972C9.27522 4.56305 9.63102 5.42203 9.63102 6.3177C9.63102 7.21336 9.27522 8.07235 8.64189 8.70568C8.00855 9.33901 7.14957 9.69481 6.25391 9.69481Z" fill="white"/>
</svg>
