<svg width="80" height="58" viewBox="0 0 80 58" fill="none" xmlns="http://www.w3.org/2000/svg">
<g id="videography">
<rect id="Rectangle 34" y="0.142822" width="80" height="57.1429" rx="10" fill="#C18C5D" fill-opacity="0.7"/>
<g id="XMLID 1184">
<g id="XMLID 176">
<path id="XMLID 178" d="M45.7075 24.9208C44.2954 24.9208 42.9239 25.1947 41.6312 25.7346C41.2032 25.9134 41.0012 26.4053 41.1799 26.8333C41.3587 27.2613 41.8506 27.4631 42.2786 27.2845C43.3652 26.8306 44.5188 26.6005 45.7075 26.6005C50.6164 26.6005 54.6099 30.5941 54.6099 35.5028C54.6099 40.4116 50.6164 44.4052 45.7075 44.4052C40.7987 44.4052 36.8052 40.4116 36.8052 35.5028C36.8052 34.316 37.0346 33.1639 37.4872 32.0788C37.6658 31.6506 37.4634 31.1589 37.0354 30.9803C36.6076 30.802 36.1155 31.0041 35.9369 31.4322C35.3985 32.7233 35.1255 34.0928 35.1255 35.5028C35.1255 41.3378 39.8725 46.0849 45.7075 46.0849C51.5425 46.0849 56.2896 41.3378 56.2896 35.5028C56.2896 29.6678 51.5425 24.9208 45.7075 24.9208Z" fill="white"/>
<path id="XMLID 711" d="M45.7075 42.3896C49.5049 42.3896 52.5943 39.3002 52.5943 35.5028C52.5943 31.7055 49.5049 28.6161 45.7075 28.6161C41.9102 28.6161 38.8208 31.7055 38.8208 35.5028C38.8208 39.3002 41.9103 42.3896 45.7075 42.3896ZM45.7075 30.2958C48.5787 30.2958 50.9146 32.6317 50.9146 35.5028C50.9146 38.3739 48.5787 40.7099 45.7075 40.7099C42.8364 40.7099 40.5005 38.374 40.5005 35.5028C40.5005 32.6316 42.8364 30.2958 45.7075 30.2958Z" fill="white"/>
<path id="XMLID 714" d="M57.7407 20.8895H55.1859L52.2536 15.9271C52.1025 15.6714 51.8275 15.5145 51.5306 15.5145H39.8847C39.5876 15.5145 39.3128 15.6714 39.1617 15.9271L36.2293 20.8895H31.4297V19.8817C31.4297 18.2145 30.0734 16.8583 28.4063 16.8583C26.7391 16.8583 25.3828 18.2145 25.3828 19.8817V20.8895H23.2594C20.9107 20.8895 19 22.8003 19 25.149V45.8567C19 48.2054 20.9107 50.1162 23.2594 50.1162H57.7406C60.0893 50.1162 62 48.2054 62 45.8567V25.149C62.0001 22.8003 60.0893 20.8895 57.7407 20.8895ZM40.3639 17.1942H51.0513L53.2349 20.8895H38.1803L40.3639 17.1942ZM27.0625 19.8817C27.0625 19.1408 27.6654 18.538 28.4063 18.538C29.1472 18.538 29.75 19.1408 29.75 19.8817V20.8895H27.0625V19.8817ZM60.3204 45.8567C60.3204 47.2792 59.1632 48.4365 57.7407 48.4365H23.2594C21.8369 48.4365 20.6797 47.2792 20.6797 45.8567V25.149C20.6797 23.7264 21.8369 22.5692 23.2594 22.5692H57.7406C59.1631 22.5692 60.3203 23.7264 60.3203 25.149V45.8567H60.3204Z" fill="white"/>
<path id="XMLID 717" d="M45.7075 33.8651C46.6106 33.8651 47.3452 34.5998 47.3452 35.5028C47.3452 35.9667 47.7212 36.3427 48.1851 36.3427C48.6489 36.3427 49.0249 35.9667 49.0249 35.5028C49.0249 33.6736 47.5367 32.1854 45.7075 32.1854C45.2437 32.1854 44.8677 32.5615 44.8677 33.0253C44.8677 33.489 45.2437 33.8651 45.7075 33.8651Z" fill="white"/>
<path id="XMLID 718" d="M45.7075 13.3049C46.1714 13.3049 46.5474 12.9288 46.5474 12.4651V7.98255C46.5474 7.51878 46.1714 7.1427 45.7075 7.1427C45.2437 7.1427 44.8677 7.5187 44.8677 7.98255V12.4651C44.8677 12.9289 45.2437 13.3049 45.7075 13.3049Z" fill="white"/>
<path id="XMLID 719" d="M49.704 13.305C49.9189 13.305 50.1339 13.2229 50.2978 13.059L53.3793 9.97752C53.7073 9.64956 53.7073 9.11777 53.3792 8.78973C53.0512 8.46185 52.5195 8.46185 52.1915 8.78973L49.1101 11.8713C48.7821 12.1993 48.7821 12.731 49.1101 13.0591C49.2741 13.223 49.489 13.305 49.704 13.305Z" fill="white"/>
<path id="XMLID 720" d="M41.1173 13.059C41.2813 13.2229 41.4963 13.305 41.7112 13.305C41.9261 13.305 42.1411 13.2229 42.305 13.059C42.633 12.731 42.6331 12.1992 42.3051 11.8712L39.2236 8.7897C38.8957 8.46191 38.3639 8.46182 38.0359 8.7897C37.708 9.11766 37.7079 9.64945 38.0358 9.97749L41.1173 13.059Z" fill="white"/>
<path id="XMLID 730" d="M30.5899 27.7762H26.2227C25.7588 27.7762 25.3828 28.1523 25.3828 28.6161C25.3828 29.0799 25.7588 29.4559 26.2227 29.4559H30.5899C31.0537 29.4559 31.4297 29.0799 31.4297 28.6161C31.4297 28.1522 31.0537 27.7762 30.5899 27.7762Z" fill="white"/>
<path id="XMLID 731" d="M38.817 29.4558C39.0379 29.4558 39.2546 29.366 39.4108 29.2097C39.567 29.0535 39.6569 28.8376 39.6569 28.616C39.6569 28.3951 39.567 28.1784 39.4108 28.0222C39.2546 27.8661 39.0379 27.7761 38.817 27.7761C38.5961 27.7761 38.3795 27.866 38.2232 28.0222C38.0662 28.1784 37.9772 28.3952 37.9772 28.616C37.9772 28.8368 38.0662 29.0535 38.2232 29.2097C38.3795 29.366 38.5953 29.4558 38.817 29.4558Z" fill="white"/>
</g>
</g>
</g>
</svg>
