<svg width="16" height="16" viewBox="0 0 16 16" fill="none" xmlns="http://www.w3.org/2000/svg">
<path d="M14.8034 3.68971C12.41 -0.000121973 7.52348 -1.0971 3.73392 1.19658C0.0440916 3.49026 -1.15261 8.47652 1.24079 12.1664L1.44024 12.4655L0.642443 15.4573L3.6342 14.6595L3.93337 14.8589C5.2298 15.557 6.62595 15.9559 8.02211 15.9559C9.51799 15.9559 11.0139 15.557 12.3103 14.7592C16.0001 12.3658 17.0971 7.47927 14.8034 3.68971ZM12.7092 11.3685C12.3103 11.9669 11.8117 12.3658 11.1136 12.4655C10.7147 12.4655 10.2161 12.665 8.22156 11.8672C6.52623 11.0694 5.13008 9.77295 4.13282 8.27707C3.53447 7.57899 3.2353 6.68147 3.13557 5.78394C3.13557 4.98614 3.43475 4.28806 3.93337 3.78944C4.13282 3.58999 4.33227 3.49026 4.53173 3.49026H5.03035C5.2298 3.49026 5.42925 3.49026 5.52898 3.88916C5.72843 4.38779 6.22705 5.58449 6.22705 5.68421C6.32678 5.78394 6.32678 5.98339 6.22705 6.08312C6.32678 6.28257 6.22705 6.48202 6.12733 6.58174C6.0276 6.68147 5.92788 6.88092 5.82815 6.98064C5.6287 7.08037 5.52898 7.27982 5.6287 7.47927C6.0276 8.07762 6.52623 8.67597 7.02486 9.17459C7.62321 9.67322 8.22156 10.0721 8.91963 10.3713C9.11908 10.471 9.31853 10.471 9.41826 10.2716C9.51798 10.0721 10.0166 9.5735 10.2161 9.37405C10.4155 9.17459 10.5152 9.1746 10.7147 9.27432L12.3103 10.0721C12.5097 10.1718 12.7092 10.2716 12.8089 10.3713C12.9086 10.6705 12.9086 11.0694 12.7092 11.3685Z" fill="white"/>
</svg>
