<svg width="80" height="58" viewBox="0 0 80 58" fill="none" xmlns="http://www.w3.org/2000/svg">
<g id="web">
<rect id="Rectangle 34" y="0.142822" width="80" height="57.1429" rx="10" fill="#F3722C" fill-opacity="0.7"/>
<g id="Group 50">
<path id="Vector" d="M30.7755 32.585L34.4185 29.4826C34.4185 29.4826 34.4185 29.4826 34.4186 29.4825L34.4187 29.4825L34.2566 29.2921L30.7755 32.585ZM30.7755 32.585L34.4186 35.6875C34.4186 35.6875 34.4186 35.6875 34.4187 35.6875C34.8156 36.0255 34.8629 36.6209 34.5255 37.0173L34.5255 37.0173C34.3386 37.2368 34.0729 37.3494 33.8066 37.3494C33.5905 37.3494 33.3728 37.275 33.1956 37.1241C33.1956 37.1241 33.1956 37.1241 33.1956 37.1241L28.7087 33.3035L28.7086 33.3034C28.4981 33.124 28.377 32.8617 28.377 32.585C28.377 32.3082 28.4987 32.0463 28.7083 31.8671L28.7087 31.8668L33.1955 28.0463L33.1956 28.0462L33.3577 28.2365L30.7755 32.585Z" fill="white" stroke="white" stroke-width="0.5"/>
<path id="Vector_2" d="M49.2246 32.585L45.5814 35.6875L45.5813 35.6876C45.185 36.0254 45.1369 36.6208 45.4751 37.0174C45.6616 37.2369 45.9274 37.3494 46.1935 37.3494C46.4095 37.3494 46.6273 37.275 46.8044 37.1241C46.8044 37.1241 46.8044 37.1241 46.8044 37.1241L51.2914 33.3035L51.2915 33.3034C51.502 33.124 51.6231 32.8617 51.6231 32.585C51.6231 32.3085 51.5019 32.0463 51.2915 31.8669L51.2914 31.8668L46.8047 28.0464C46.8046 28.0464 46.8045 28.0463 46.8045 28.0463C46.4082 27.7081 45.8124 27.7563 45.475 28.1526L49.2246 32.585ZM49.2246 32.585L45.5814 29.4825C45.5814 29.4825 45.5814 29.4825 45.5814 29.4825C45.1849 29.1449 45.1371 28.5495 45.4749 28.1527L49.2246 32.585Z" fill="white" stroke="white" stroke-width="0.5"/>
<path id="Vector_3" d="M38.2161 40.1947L38.2168 40.1948C38.2812 40.2082 38.3463 40.2151 38.4116 40.2151C38.8483 40.2151 39.24 39.9105 39.3338 39.4661L39.3338 39.4661L42.1302 26.189L42.1302 26.189C42.2376 25.6789 41.9112 25.1788 41.4016 25.0714L41.4015 25.0714C40.8915 24.964 40.3913 25.2904 40.2839 25.8L40.2839 25.8L37.4875 39.077C37.3801 39.5867 37.7065 40.0873 38.2161 40.1947Z" fill="white" stroke="white" stroke-width="0.5"/>
<path id="Vector_4" d="M23.6557 47.4485H56.3443C59.0494 47.4485 61.25 45.2483 61.25 42.5428V14.7985C61.25 12.0935 59.0494 9.89282 56.3443 9.89282H23.6557C20.9506 9.89282 18.75 12.0935 18.75 14.7985V42.5428C18.75 45.2483 20.9506 47.4485 23.6557 47.4485ZM20.6368 14.7985C20.6368 13.1342 21.9914 11.7796 23.6557 11.7796H56.3443C58.0086 11.7796 59.3632 13.1342 59.3632 14.7985V42.5428C59.3632 44.2071 58.0086 45.5617 56.3443 45.5617H23.6557C21.9914 45.5617 20.6368 44.2071 20.6368 42.5428V14.7985Z" fill="white" stroke="white" stroke-width="0.5"/>
<path id="Vector_5" d="M19.6934 21.496H60.3066C60.8277 21.496 61.25 21.0737 61.25 20.5526C61.25 20.0319 60.8278 19.6092 60.3066 19.6092H19.6934C19.1722 19.6092 18.75 20.0319 18.75 20.5526C18.75 21.0737 19.1723 21.496 19.6934 21.496Z" fill="white" stroke="white" stroke-width="0.5"/>
<path id="Vector_6" d="M30.8473 17.928C29.6377 17.928 28.6529 16.9433 28.6529 15.7337C28.6529 14.5237 29.6377 13.5394 30.8473 13.5394C32.0572 13.5394 33.0416 14.5237 33.0416 15.7337C33.0416 16.9433 32.0572 17.928 30.8473 17.928ZM30.8473 14.9262C30.4023 14.9262 30.0397 15.2883 30.0397 15.7337C30.0397 16.1791 30.4023 16.5412 30.8473 16.5412C31.2926 16.5412 31.6548 16.1791 31.6548 15.7337C31.6548 15.2883 31.2926 14.9262 30.8473 14.9262Z" fill="white"/>
<path id="Vector_7" d="M24.1053 17.9068C22.8953 17.9068 21.911 16.9224 21.911 15.7125C21.911 14.5025 22.8953 13.5181 24.1053 13.5181C25.3153 13.5181 26.2996 14.5025 26.2996 15.7125C26.2996 16.9224 25.3153 17.9068 24.1053 17.9068ZM24.1053 14.9049C23.6603 14.9049 23.2978 15.2675 23.2978 15.7125C23.2978 16.1578 23.6603 16.52 24.1053 16.52C24.5507 16.52 24.9128 16.1578 24.9128 15.7125C24.9128 15.2675 24.5507 14.9049 24.1053 14.9049Z" fill="white"/>
<path id="Vector_8" d="M37.5894 17.9488C36.3798 17.9488 35.3954 16.9645 35.3954 15.7545C35.3954 14.5449 36.3798 13.5605 37.5894 13.5605C38.7993 13.5605 39.7837 14.5449 39.7837 15.7545C39.7837 16.9645 38.7993 17.9488 37.5894 17.9488ZM37.5894 14.947C37.1444 14.947 36.7822 15.3091 36.7822 15.7545C36.7822 16.1999 37.1444 16.562 37.5894 16.562C38.0348 16.562 38.3969 16.1999 38.3969 15.7545C38.3969 15.3091 38.0348 14.947 37.5894 14.947Z" fill="white"/>
</g>
</g>
</svg>
