<svg width="428" height="321" viewBox="0 0 428 321" fill="none" xmlns="http://www.w3.org/2000/svg">
<path d="M50.45 204.481C36.77 217.871 34.45 238.591 37.35 256.741C37.43 257.151 38.07 257.041 38.07 256.651C38.07 252.521 37.94 248.431 37.95 244.351C38.03 244.161 38.09 243.981 38.17 243.801C41.74 241.201 45.05 238.281 47.05 234.281C49.34 229.781 50.24 224.721 51.98 220.021C52.15 219.571 51.67 219.701 51.35 219.941C43.03 226.071 40.35 232.681 37.99 241.501C38.0371 236.885 38.5226 232.284 39.44 227.761C41.24 219.391 44.79 211.081 50.81 204.871C50.8617 204.823 50.8924 204.756 50.8952 204.686C50.898 204.616 50.8727 204.547 50.825 204.496C50.7773 204.444 50.7109 204.413 50.6406 204.41C50.5703 204.408 50.5017 204.433 50.45 204.481Z" fill="#A6A6A6"/>
<path d="M53.05 206.041C55.4 206.121 56.88 209.881 58.71 210.981C58.9027 211.137 59.1262 211.251 59.3659 211.316C59.6056 211.38 59.8562 211.393 60.1013 211.355C60.3465 211.316 60.5809 211.226 60.7891 211.091C60.9973 210.956 61.1748 210.779 61.31 210.571C63.13 208.031 60.63 204.901 58.31 203.151C59.99 203.841 61.38 205.051 63.19 205.401C63.4213 205.474 63.6656 205.498 63.9066 205.469C64.1476 205.441 64.3799 205.362 64.588 205.237C64.7961 205.112 64.9753 204.945 65.1136 204.745C65.2518 204.546 65.3461 204.319 65.39 204.081C66.18 200.621 61.85 199.081 58.87 199.011C60.31 198.011 64.45 195.281 62.25 193.941C60.05 192.601 55.17 196.491 53.59 197.771C51.26 199.661 48.49 202.481 48.38 205.431C48.2 208.881 51.21 206.761 53.05 206.041Z" fill="#DBDBDB"/>
<path d="M52.34 206.62C55.34 205.25 61.13 207.22 61.62 206.08C62.62 203.76 58 202.17 55.5 201.86C57.8 201.24 62.2 200.25 62.07 198.04C61.9 195.33 55.32 197.66 51.98 200.21C47.79 203.43 47.81 206.54 48.51 207.16C49.46 208.01 51.84 206.84 52.34 206.62Z" fill="#EBEBEB"/>
<path d="M19.29 203.151C33.47 216.011 36.56 236.631 34.36 254.881C34.36 255.291 33.66 255.211 33.65 254.821C33.49 250.691 33.46 246.591 33.29 242.521L33.06 241.971C29.4 239.521 26 236.711 23.82 232.771C21.36 228.371 20.27 223.341 18.35 218.711C18.17 218.271 18.65 218.381 18.97 218.601C27.52 224.421 30.43 230.921 33.15 239.651C32.9139 235.038 32.2443 230.458 31.15 225.971C29.03 217.671 25.15 209.511 18.91 203.531C18.71 203.281 19.05 202.921 19.29 203.151Z" fill="#A6A6A6"/>
<path d="M16.78 204.811C14.43 204.981 13.1 208.811 11.31 209.961C11.1242 210.125 10.9057 210.249 10.6688 210.323C10.4319 210.397 10.182 210.42 9.93549 210.391C9.689 210.361 9.4515 210.28 9.23857 210.153C9.02563 210.025 8.8421 209.854 8.7 209.651C6.79 207.181 9.16 203.961 11.44 202.121C9.79 202.881 8.44 204.121 6.65 204.551C6.4193 204.635 6.17315 204.668 5.92846 204.647C5.68378 204.627 5.44636 204.554 5.23255 204.434C5.01874 204.313 4.83361 204.147 4.68989 203.948C4.54617 203.749 4.44727 203.521 4.4 203.281C3.47 199.851 7.75 198.151 10.72 197.961C9.24 197.021 5 194.451 7.15 193.031C9.3 191.611 14.32 195.311 15.95 196.531C18.35 198.331 21.23 201.041 21.44 203.991C21.71 207.471 18.62 205.461 16.78 204.811Z" fill="#DBDBDB"/>
<path d="M17.48 205.361C14.43 204.111 8.71998 206.301 8.18998 205.181C7.10998 202.901 11.66 201.181 14.19 200.731C11.87 200.201 7.43998 199.371 7.48998 197.161C7.54998 194.451 14.22 196.521 17.65 198.951C21.96 202.011 22.05 205.111 21.38 205.761C20.42 206.651 17.99 205.571 17.48 205.361Z" fill="#EBEBEB"/>
<path d="M33.79 237.121C34.7518 244.001 36.2259 250.8 38.2 257.461C38.2287 257.591 38.3075 257.705 38.4193 257.778C38.5311 257.851 38.6671 257.877 38.798 257.851C38.929 257.825 39.0444 257.748 39.1196 257.638C39.1947 257.527 39.2236 257.392 39.2 257.261C38.27 251.001 36.57 244.841 35.64 238.581C34.618 232.238 34.2528 225.808 34.55 219.391C35.14 208.831 38.01 197.591 44.9 189.331C45.06 189.131 44.73 188.861 44.58 189.041C30.78 205.131 32.98 224.851 32.99 226.621C30.99 219.961 28.99 212.321 21.63 205.541C21.31 205.251 21.06 205.391 21.12 205.891C22.43 218.281 25.86 224.691 33.05 231.281C33.23 233.281 33.48 235.201 33.79 237.121Z" fill="#A6A6A6"/>
<path d="M45.05 191.181C47.53 190.081 50.96 193.241 53.41 193.451C53.6887 193.523 53.9796 193.534 54.263 193.483C54.5464 193.432 54.8154 193.321 55.0518 193.157C55.2882 192.992 55.4864 192.779 55.6328 192.531C55.7791 192.283 55.8703 192.007 55.9 191.721C56.51 188.171 52.35 186.181 49.03 185.551C51.12 185.421 53.17 185.971 55.22 185.421C55.4955 185.377 55.7587 185.275 55.9928 185.124C56.2269 184.972 56.4266 184.773 56.5792 184.539C56.7318 184.306 56.8338 184.043 56.8787 183.768C56.9236 183.492 56.9104 183.21 56.84 182.941C55.93 178.941 50.65 179.541 47.53 180.941C48.53 179.171 51.44 174.261 48.53 173.941C45.62 173.621 42.47 180.151 41.48 182.281C40.01 185.411 38.55 189.741 39.93 192.851C41.45 196.561 43.5 192.841 45.05 191.181Z" fill="#DBDBDB"/>
<path d="M44.6 192.12C47.04 189.19 54.03 188.32 53.96 186.89C53.83 183.99 48.24 184.66 45.5 185.6C47.56 183.8 51.63 180.55 50.38 178.32C48.84 175.6 43.18 181.32 41.01 185.66C38.28 191.11 39.87 194.32 40.9 194.61C42.32 195.02 44.2 192.61 44.6 192.12Z" fill="#EBEBEB"/>
<path d="M24.71 240.841L18.63 287.341H55.63C54.87 283.221 47.98 240.791 47.98 240.791L24.71 240.841Z" fill="#DBDBDB"/>
<path d="M385.85 104.911H412.33V93.7206H385.85V104.911Z" fill="#EBEBEB"/>
<path d="M400.62 90.8005H427.1V79.6105H400.62V90.8005Z" fill="#EBEBEB"/>
<path d="M371.07 90.8005H397.55V79.6105H371.07V90.8005Z" fill="#EBEBEB"/>
<path d="M89.96 0.540527H63.48V11.7305H89.96V0.540527Z" fill="#EBEBEB"/>
<path d="M75.18 14.6506H48.7V25.8406H75.18V14.6506Z" fill="#EBEBEB"/>
<path d="M9 287.301L57.01 287.061L105.02 286.971L201.05 286.801L297.07 286.971L345.09 287.061L393.1 287.301L345.09 287.551L297.07 287.631L201.05 287.801L105.02 287.631L57.01 287.541L9 287.301Z" fill="#263238"/>
<path d="M124.45 145.161C124.195 144.867 123.921 144.59 123.63 144.331C123.368 144.042 123.091 143.769 122.8 143.511C122.542 143.219 122.268 142.942 121.98 142.681C121.721 142.39 121.444 142.116 121.15 141.861C120.89 141.571 120.61 141.291 120.33 141.031C120.077 140.738 119.803 140.463 119.51 140.211C119.249 139.919 118.971 139.642 118.68 139.381C118.427 139.088 118.153 138.813 117.86 138.561C117.598 138.272 117.321 137.999 117.03 137.741C116.184 136.807 115.195 136.014 114.1 135.391V52.7505C114.1 52.3105 113.89 52.0905 113.89 51.6505C113.944 51.2018 113.868 50.747 113.67 50.3405C113.67 50.1205 113.46 49.6805 113.46 49.4605C113.34 49.011 113.189 48.57 113.01 48.1405C112.779 47.899 112.628 47.5914 112.58 47.2605C112.328 46.8655 112.033 46.4999 111.7 46.1705C111.47 45.9505 111.26 45.5205 111.04 45.2905L110.16 44.4105C110.16 44.2805 109.99 44.1405 109.8 44.0605L109.37 43.6205H109.32C109.32 43.4805 109.16 43.3505 108.97 43.2605L108.53 42.8305C108.53 42.7005 108.36 42.5605 108.17 42.4705L107.74 42.0405C107.74 41.9005 107.57 41.7705 107.38 41.6805L106.95 41.2405C106.95 41.1105 106.78 40.9705 106.59 40.8805L106.15 40.4505V40.4005C106.15 40.2705 105.98 40.1405 105.79 40.0505L105.36 39.6105H105.31C105.31 39.4805 105.15 39.3405 104.96 39.2505L104.52 38.8205V38.7705C104.52 38.6405 104.35 38.5105 104.16 38.4205L103.73 37.9805H103.68C103.68 37.8405 103.52 37.7105 103.33 37.6205L102.89 37.1905C102.89 37.0605 102.72 36.9205 102.53 36.8405L102.05 36.3605C102.05 36.1405 101.62 35.9205 101.39 35.9205C101.391 35.8921 101.387 35.8637 101.377 35.8371C101.367 35.8105 101.352 35.7861 101.332 35.7655C101.313 35.745 101.289 35.7286 101.263 35.7174C101.237 35.7062 101.208 35.7005 101.18 35.7005C100.74 35.4905 100.51 35.2605 100.08 35.0405C99.7017 34.7662 99.3379 34.4725 98.99 34.1605C98.77 34.1605 98.33 33.9505 98.11 33.9505C97.67 33.7305 97.01 33.7305 96.79 33.5005C96.4111 33.5314 96.0309 33.4588 95.69 33.2905H91.97C91.7089 33.4582 91.3987 33.5322 91.09 33.5005C90.43 33.7305 90 33.7305 89.77 33.9505C89.34 33.9505 89.12 34.1605 88.89 34.6105C88.4205 34.6215 87.9647 34.7711 87.58 35.0405C87.37 35.2605 86.92 35.4905 86.7 35.7005C86.4079 36.021 86.0294 36.2502 85.61 36.3605C85.4461 36.692 85.2224 36.9904 84.95 37.2405C84.73 37.4605 84.73 37.6705 84.52 37.6705L3.05002 138.281C1.12349 140.594 0.16189 143.56 0.364861 146.564C0.567832 149.567 1.91978 152.377 4.14002 154.411C4.39706 154.713 4.67796 154.993 4.98002 155.251C5.23113 155.552 5.50892 155.829 5.81002 156.081C6.06705 156.383 6.34796 156.663 6.65002 156.921C6.90358 157.222 7.18115 157.503 7.48002 157.761C7.73718 158.059 8.01809 158.337 8.32002 158.591C8.57358 158.892 8.85115 159.173 9.15002 159.431C9.40718 159.729 9.68809 160.007 9.99002 160.261C10.2436 160.562 10.5212 160.843 10.82 161.101C11.0772 161.399 11.3581 161.677 11.66 161.931C12.1771 162.518 12.7535 163.051 13.38 163.521C15.4395 165.311 18.1029 166.251 20.83 166.151H81.55V174.461C81.5321 176.152 81.872 177.829 82.5476 179.38C83.2232 180.931 84.2191 182.321 85.47 183.461C85.73 183.741 86 184.011 86.27 184.261C86.5248 184.545 86.7952 184.816 87.08 185.071C87.34 185.351 87.61 185.621 87.89 185.871C88.1448 186.155 88.4152 186.426 88.7 186.681C88.96 186.961 89.23 187.231 89.51 187.491C89.7623 187.778 90.0328 188.048 90.32 188.301C90.57 188.581 90.84 188.851 91.12 189.111C91.3748 189.395 91.6452 189.666 91.93 189.921C92.18 190.191 92.45 190.461 92.73 190.721C94.3818 192.506 96.533 193.753 98.9035 194.299C101.274 194.844 103.754 194.664 106.02 193.78C108.286 192.896 110.234 191.35 111.609 189.344C112.984 187.337 113.723 184.963 113.73 182.531V166.111H115.93C117.531 166.137 119.121 165.845 120.608 165.251C122.095 164.657 123.449 163.773 124.591 162.65C125.733 161.528 126.64 160.19 127.26 158.713C127.879 157.237 128.199 155.652 128.2 154.051C128.224 152.39 127.903 150.742 127.258 149.212C126.612 147.682 125.656 146.302 124.45 145.161ZM81.53 98.1605V133.601H52.97L81.53 98.1605Z" fill="#FF1B1B"/>
<path opacity="0.1" d="M124.45 145.161C124.195 144.867 123.921 144.59 123.63 144.331C123.368 144.042 123.091 143.769 122.8 143.511C122.542 143.219 122.268 142.942 121.98 142.681C121.721 142.39 121.444 142.116 121.15 141.861C120.89 141.571 120.61 141.291 120.33 141.031C120.077 140.738 119.803 140.463 119.51 140.211C119.249 139.919 118.971 139.642 118.68 139.381C118.427 139.088 118.153 138.813 117.86 138.561C117.598 138.272 117.321 137.999 117.03 137.741C116.184 136.807 115.195 136.014 114.1 135.391V52.7505C114.1 52.3105 113.89 52.0905 113.89 51.6505C113.944 51.2018 113.868 50.747 113.67 50.3405C113.67 50.1205 113.46 49.6805 113.46 49.4605C113.34 49.011 113.189 48.57 113.01 48.1405C112.779 47.899 112.628 47.5914 112.58 47.2605C112.328 46.8655 112.033 46.4999 111.7 46.1705C111.47 45.9505 111.26 45.5205 111.04 45.2905L110.16 44.4105C110.16 44.2805 109.99 44.1405 109.8 44.0605L109.37 43.6205H109.32C109.32 43.4805 109.16 43.3505 108.97 43.2605L108.53 42.8305C108.53 42.7005 108.36 42.5605 108.17 42.4705L107.74 42.0405C107.74 41.9005 107.57 41.7705 107.38 41.6805L106.95 41.2405C106.95 41.1105 106.78 40.9705 106.59 40.8805L106.15 40.4505V40.4005C106.15 40.2705 105.98 40.1405 105.79 40.0505L105.36 39.6105H105.31C105.31 39.4805 105.15 39.3405 104.96 39.2505L104.52 38.8205V38.7705C104.52 38.6405 104.35 38.5105 104.16 38.4205L103.73 37.9805H103.68C103.68 37.8405 103.52 37.7105 103.33 37.6205L102.89 37.1905C102.89 37.0605 102.72 36.9205 102.53 36.8405L102.05 36.3605C102.05 36.1405 101.62 35.9205 101.39 35.9205C101.391 35.8921 101.387 35.8637 101.377 35.8371C101.367 35.8105 101.352 35.7861 101.332 35.7655C101.313 35.745 101.289 35.7286 101.263 35.7174C101.237 35.7062 101.208 35.7005 101.18 35.7005C100.74 35.4905 100.51 35.2605 100.08 35.0405C99.7017 34.7662 99.3379 34.4725 98.99 34.1605C98.77 34.1605 98.33 33.9505 98.11 33.9505C97.67 33.7305 97.01 33.7305 96.79 33.5005C96.4111 33.5314 96.0309 33.4588 95.69 33.2905H91.97C91.7089 33.4582 91.3987 33.5322 91.09 33.5005C90.43 33.7305 90 33.7305 89.77 33.9505C89.34 33.9505 89.12 34.1605 88.89 34.6105C88.4205 34.6215 87.9647 34.7711 87.58 35.0405C87.37 35.2605 86.92 35.4905 86.7 35.7005C86.4079 36.021 86.0294 36.2502 85.61 36.3605C85.4461 36.692 85.2224 36.9904 84.95 37.2405C84.73 37.4605 84.73 37.6705 84.52 37.6705L3.05002 138.281C1.12349 140.594 0.16189 143.56 0.364861 146.564C0.567832 149.567 1.91978 152.377 4.14002 154.411C4.39706 154.713 4.67796 154.993 4.98002 155.251C5.23113 155.552 5.50892 155.829 5.81002 156.081C6.06705 156.383 6.34796 156.663 6.65002 156.921C6.90358 157.222 7.18115 157.503 7.48002 157.761C7.73718 158.059 8.01809 158.337 8.32002 158.591C8.57358 158.892 8.85115 159.173 9.15002 159.431C9.40718 159.729 9.68809 160.007 9.99002 160.261C10.2436 160.562 10.5212 160.843 10.82 161.101C11.0772 161.399 11.3581 161.677 11.66 161.931C12.1771 162.518 12.7535 163.051 13.38 163.521C15.4395 165.311 18.1029 166.251 20.83 166.151H81.55V174.461C81.5321 176.152 81.872 177.829 82.5476 179.38C83.2232 180.931 84.2191 182.321 85.47 183.461C85.73 183.741 86 184.011 86.27 184.261C86.5248 184.545 86.7952 184.816 87.08 185.071C87.34 185.351 87.61 185.621 87.89 185.871C88.1448 186.155 88.4152 186.426 88.7 186.681C88.96 186.961 89.23 187.231 89.51 187.491C89.7623 187.778 90.0328 188.048 90.32 188.301C90.57 188.581 90.84 188.851 91.12 189.111C91.3748 189.395 91.6452 189.666 91.93 189.921C92.18 190.191 92.45 190.461 92.73 190.721C94.3818 192.506 96.533 193.753 98.9035 194.299C101.274 194.844 103.754 194.664 106.02 193.78C108.286 192.896 110.234 191.35 111.609 189.344C112.984 187.337 113.723 184.963 113.73 182.531V166.111H115.93C117.531 166.137 119.121 165.845 120.608 165.251C122.095 164.657 123.449 163.773 124.591 162.65C125.733 161.528 126.64 160.19 127.26 158.713C127.879 157.237 128.199 155.652 128.2 154.051C128.224 152.39 127.903 150.742 127.258 149.212C126.612 147.682 125.656 146.302 124.45 145.161ZM81.53 98.1605V133.601H52.97L81.53 98.1605Z" fill="black"/>
<path d="M120.11 145.69C120.109 147.293 119.789 148.878 119.169 150.355C118.548 151.833 117.64 153.171 116.497 154.294C115.354 155.416 113.999 156.3 112.511 156.894C111.023 157.487 109.432 157.778 107.83 157.75H105.64V174.421C105.64 177.619 104.369 180.686 102.108 182.948C99.846 185.21 96.7785 186.48 93.58 186.48C90.3815 186.48 87.314 185.21 85.0523 182.948C82.7906 180.686 81.52 177.619 81.52 174.421V157.75H12.45C9.7393 157.842 7.09467 156.903 5.05 155.12C3.78317 154.168 2.72248 152.969 1.93198 151.595C1.14148 150.221 0.637554 148.702 0.450636 147.128C0.263719 145.554 0.397684 143.959 0.844443 142.438C1.2912 140.917 2.04149 139.503 3.05 138.28L84.15 37.3705C84.37 37.3705 84.37 37.1605 84.59 36.9405C84.8624 36.6903 85.0861 36.392 85.25 36.0605C85.6708 35.9467 86.0516 35.7182 86.35 35.4005C86.56 35.1805 87 34.9605 87.22 34.7405C87.6058 34.4645 88.0658 34.3112 88.54 34.3005C88.76 33.8705 88.98 33.6505 89.42 33.6505C89.63 33.4305 90.07 33.4305 90.73 33.2105C91.0401 33.2434 91.3519 33.1655 91.61 32.9905H95.34C95.6739 33.1692 96.053 33.2457 96.43 33.2105C96.65 33.4305 97.31 33.4305 97.75 33.6505C97.97 33.6505 98.41 33.8705 98.63 33.8705C99.06 34.3005 99.5 34.5205 99.72 34.7405C100.16 34.9605 100.38 35.1805 100.82 35.4005C100.878 35.4005 100.934 35.4237 100.976 35.4649C101.017 35.5062 101.04 35.5621 101.04 35.6205C101.26 35.6205 101.7 35.8405 101.7 36.0605L102.57 36.9405C102.79 37.1605 103.01 37.5905 103.23 37.8105C103.566 38.1413 103.861 38.5105 104.11 38.9105C104.165 39.2413 104.318 39.548 104.55 39.7905C104.731 40.214 104.875 40.6523 104.98 41.1005C104.98 41.3205 105.2 41.7605 105.2 41.9805C105.398 42.3904 105.474 42.8485 105.42 43.3005C105.42 43.7305 105.64 43.9505 105.64 44.3905V133.63H107.83C111.054 133.614 114.153 134.873 116.453 137.132C118.754 139.391 120.068 142.467 120.11 145.69ZM81.52 79.4705L37.89 133.63H81.52V79.4705Z" fill="#FF1B1B"/>
<path d="M248.38 65.6805C245.905 61.9136 243.028 58.4265 239.8 55.2805C239.681 55.1497 239.554 55.0261 239.42 54.9105L239.31 54.8005C239.21 54.6905 239.11 54.5805 239 54.4805C238.72 54.1805 238.42 53.9005 238.13 53.6105L238.05 53.5405L237.75 53.2405C237.716 53.2014 237.679 53.1646 237.64 53.1305C237.54 53.0205 237.44 52.9105 237.33 52.8105C237.05 52.5105 236.75 52.2305 236.46 51.9405L236.38 51.8705L236.08 51.5705L235.97 51.4605C235.87 51.3505 235.77 51.2405 235.66 51.1405C235.38 50.8405 235.08 50.5605 234.79 50.2705L234.71 50.2005L234.41 49.9005C234.41 49.9005 234.34 49.8205 234.3 49.7905C234.201 49.6765 234.094 49.5695 233.98 49.4705C233.71 49.1605 233.41 48.8905 233.12 48.6005L233.04 48.5305C232.948 48.4232 232.847 48.3229 232.74 48.2305C232.74 48.2305 232.67 48.1505 232.63 48.1205C223.82 39.0405 212.34 33.0305 199.46 33.0305C182.13 33.0305 167.89 43.3405 158.67 57.3605C149.02 71.3605 143.99 89.6105 143.77 109.771C143.99 129.771 149.02 148.141 158.67 162.181C161.141 165.892 163.986 169.34 167.16 172.471L167.6 172.901V172.951L168.38 173.731C168.51 173.881 168.65 174.01 168.78 174.141L169.22 174.571L169.27 174.621L170.05 175.401L170.45 175.821L170.89 176.241C170.911 176.252 170.929 176.269 170.94 176.291L171.72 177.071L172.12 177.491L172.56 177.911C172.572 177.917 172.583 177.925 172.591 177.935C172.6 177.946 172.606 177.958 172.61 177.971L173.39 178.751L173.8 179.161L174.23 179.581L174.29 179.641L175.07 180.421C183.73 189.071 194.91 194.881 207.76 194.881C224.64 194.881 239.11 184.351 248.33 170.531C257.75 156.531 263.02 138.081 263.02 118.131C263.05 97.9205 257.8 79.7205 248.38 65.6805ZM219.85 148.551C213.49 157.971 206.25 162.141 199.46 162.141C195.282 162.039 191.239 160.641 187.89 158.141C187.58 157.741 187.28 157.321 186.98 156.881C180.84 147.671 176.45 133.641 176.45 118.071C176.45 102.281 180.84 88.4705 186.98 79.0705C193.57 69.8605 200.98 65.4805 207.81 65.6905C211.769 65.6725 215.628 66.9353 218.81 69.2905C219.16 69.7605 219.5 70.2205 219.81 70.7105C225.95 80.1405 230.33 93.9505 230.33 109.711C230.37 125.281 225.99 139.331 219.85 148.551Z" fill="#FF1B1B"/>
<path opacity="0.1" d="M248.38 65.6805C245.905 61.9136 243.028 58.4265 239.8 55.2805C239.681 55.1497 239.554 55.0261 239.42 54.9105L239.31 54.8005C239.21 54.6905 239.11 54.5805 239 54.4805C238.72 54.1805 238.42 53.9005 238.13 53.6105L238.05 53.5405L237.75 53.2405C237.716 53.2014 237.679 53.1646 237.64 53.1305C237.54 53.0205 237.44 52.9105 237.33 52.8105C237.05 52.5105 236.75 52.2305 236.46 51.9405L236.38 51.8705L236.08 51.5705L235.97 51.4605C235.87 51.3505 235.77 51.2405 235.66 51.1405C235.38 50.8405 235.08 50.5605 234.79 50.2705L234.71 50.2005L234.41 49.9005C234.41 49.9005 234.34 49.8205 234.3 49.7905C234.201 49.6765 234.094 49.5695 233.98 49.4705C233.71 49.1605 233.41 48.8905 233.12 48.6005L233.04 48.5305C232.948 48.4232 232.847 48.3229 232.74 48.2305C232.74 48.2305 232.67 48.1505 232.63 48.1205C223.82 39.0405 212.34 33.0305 199.46 33.0305C182.13 33.0305 167.89 43.3405 158.67 57.3605C149.02 71.3605 143.99 89.6105 143.77 109.771C143.99 129.771 149.02 148.141 158.67 162.181C161.141 165.892 163.986 169.34 167.16 172.471L167.6 172.901V172.951L168.38 173.731C168.51 173.881 168.65 174.01 168.78 174.141L169.22 174.571L169.27 174.621L170.05 175.401L170.45 175.821L170.89 176.241C170.911 176.252 170.929 176.269 170.94 176.291L171.72 177.071L172.12 177.491L172.56 177.911C172.572 177.917 172.583 177.925 172.591 177.935C172.6 177.946 172.606 177.958 172.61 177.971L173.39 178.751L173.8 179.161L174.23 179.581L174.29 179.641L175.07 180.421C183.73 189.071 194.91 194.881 207.76 194.881C224.64 194.881 239.11 184.351 248.33 170.531C257.75 156.531 263.02 138.081 263.02 118.131C263.05 97.9205 257.8 79.7205 248.38 65.6805ZM219.85 148.551C213.49 157.971 206.25 162.141 199.46 162.141C195.282 162.039 191.239 160.641 187.89 158.141C187.58 157.741 187.28 157.321 186.98 156.881C180.84 147.671 176.45 133.641 176.45 118.071C176.45 102.281 180.84 88.4705 186.98 79.0705C193.57 69.8605 200.98 65.4805 207.81 65.6905C211.769 65.6725 215.628 66.9353 218.81 69.2905C219.16 69.7605 219.5 70.2205 219.81 70.7105C225.95 80.1405 230.33 93.9505 230.33 109.711C230.37 125.281 225.99 139.331 219.85 148.551Z" fill="black"/>
<path d="M143.76 109.73C143.98 89.5605 149.03 71.3605 158.67 57.3305C167.88 43.3305 182.13 32.9905 199.46 32.9905C216.34 32.9905 230.81 43.3005 240.02 57.3305C249.45 71.3305 254.71 89.5605 254.71 109.73C254.71 129.73 249.45 148.11 240.02 162.14C230.81 175.95 216.34 186.48 199.46 186.48C182.13 186.48 167.88 175.95 158.67 162.14C149.05 148.11 143.98 129.69 143.76 109.73ZM230.37 109.73C230.37 93.9505 225.99 80.1305 219.85 70.7305C213.49 61.5205 206.26 57.1405 199.46 57.3605C192.66 57.1405 185.2 61.5205 178.63 70.7305C172.49 80.1605 168.1 93.9805 168.1 109.73C168.1 125.3 172.49 139.34 178.63 148.54C185.2 157.97 192.63 162.14 199.46 162.14C206.29 162.14 213.46 157.97 219.85 148.54C225.99 139.34 230.37 125.28 230.37 109.73Z" fill="#FF1B1B"/>
<path d="M397.76 145.161C397.5 144.871 397.22 144.591 396.94 144.331C396.67 144.041 396.39 143.771 396.11 143.511C395.84 143.221 395.57 142.941 395.29 142.681C395.02 142.391 394.74 142.111 394.46 141.861C394.19 141.571 393.92 141.291 393.64 141.031C393.37 140.741 393.09 140.461 392.81 140.211C392.54 139.921 392.26 139.641 391.99 139.381C391.732 139.092 391.458 138.819 391.17 138.561C390.9 138.271 390.62 138.001 390.34 137.741C389.493 136.804 388.5 136.011 387.4 135.391V52.7505C387.4 52.3105 387.19 52.0905 387.19 51.6505C387.244 51.2018 387.168 50.747 386.97 50.3405C386.97 50.1205 386.76 49.6805 386.76 49.4605C386.64 49.011 386.489 48.57 386.31 48.1405C386.083 47.8961 385.933 47.5899 385.88 47.2605C385.632 46.8631 385.336 46.4972 385 46.1705C384.77 45.9505 384.56 45.5205 384.34 45.2905L383.46 44.4105C383.46 44.2805 383.29 44.1405 383.1 44.0605L382.67 43.6205H382.62C382.62 43.4805 382.46 43.3505 382.27 43.2605L381.83 42.8305C381.83 42.7005 381.66 42.5605 381.47 42.4705L381.04 42.0405C381.04 41.9005 380.87 41.7705 380.68 41.6805L380.25 41.2405C380.25 41.1105 380.08 40.9705 379.89 40.8805L379.45 40.4505V40.4005C379.45 40.2705 379.28 40.1405 379.09 40.0505L378.66 39.6105H378.61C378.61 39.4805 378.45 39.3405 378.26 39.2505L377.82 38.8205V38.7705C377.82 38.6405 377.65 38.5105 377.46 38.4205L377.03 37.9805H376.98C376.98 37.8405 376.82 37.7105 376.63 37.6205L376.19 37.1905C376.19 37.0605 376.02 36.9205 375.83 36.8405L375.35 36.3605C375.35 36.1405 374.92 35.9205 374.69 35.9205C374.69 35.8916 374.684 35.863 374.673 35.8363C374.662 35.8097 374.646 35.7854 374.626 35.765C374.605 35.7445 374.581 35.7283 374.554 35.7173C374.527 35.7062 374.499 35.7005 374.47 35.7005C374.04 35.4905 373.81 35.2605 373.38 35.0405C373.002 34.7662 372.638 34.4725 372.29 34.1605C372.07 34.1605 371.63 33.9505 371.41 33.9505C370.97 33.7305 370.32 33.7305 370.09 33.5005C369.711 33.5324 369.331 33.4598 368.99 33.2905H365.27C365.009 33.4582 364.699 33.5322 364.39 33.5005C363.73 33.7305 363.3 33.7305 363.07 33.9505C362.64 33.9505 362.42 34.1605 362.19 34.6105C361.721 34.6227 361.265 34.7721 360.88 35.0405C360.67 35.2605 360.22 35.4905 360.01 35.7005C359.712 36.0183 359.331 36.2468 358.91 36.3605C358.743 36.69 358.519 36.9878 358.25 37.2405C358.03 37.4605 358.03 37.6705 357.82 37.6705L276.33 138.281C274.403 140.594 273.442 143.56 273.645 146.564C273.848 149.567 275.2 152.377 277.42 154.411C277.677 154.713 277.958 154.993 278.26 155.251C278.511 155.552 278.789 155.829 279.09 156.081C279.347 156.383 279.628 156.663 279.93 156.921C280.768 157.752 281.602 158.589 282.43 159.431C282.993 159.981 283.55 160.537 284.1 161.101C284.357 161.399 284.638 161.677 284.94 161.931C285.457 162.518 286.033 163.051 286.66 163.521C288.719 165.311 291.383 166.251 294.11 166.151H354.83V174.461C354.812 176.152 355.152 177.829 355.828 179.38C356.503 180.931 357.499 182.321 358.75 183.461C359.01 183.751 359.29 184.021 359.56 184.271C359.81 184.551 360.08 184.811 360.36 185.071C360.618 185.355 360.892 185.626 361.18 185.881C361.44 186.161 361.7 186.421 361.98 186.681C362.24 186.971 362.52 187.241 362.8 187.501C363.06 187.781 363.32 188.051 363.6 188.301C363.86 188.591 364.14 188.861 364.42 189.121C364.68 189.401 364.94 189.671 365.22 189.921C365.475 190.209 365.745 190.482 366.03 190.741C367.682 192.527 369.834 193.774 372.206 194.319C374.577 194.865 377.058 194.683 379.325 193.798C381.591 192.913 383.539 191.365 384.913 189.357C386.288 187.349 387.025 184.974 387.03 182.541V166.111H389.23C390.832 166.138 392.424 165.847 393.913 165.254C395.401 164.66 396.757 163.777 397.901 162.654C399.045 161.532 399.954 160.193 400.575 158.716C401.196 157.239 401.518 155.653 401.52 154.051C401.543 152.389 401.22 150.741 400.573 149.211C399.926 147.681 398.968 146.301 397.76 145.161ZM354.83 98.1605V133.601H326.27L354.83 98.1605Z" fill="#FF1B1B"/>
<path opacity="0.1" d="M397.76 145.161C397.5 144.871 397.22 144.591 396.94 144.331C396.67 144.041 396.39 143.771 396.11 143.511C395.84 143.221 395.57 142.941 395.29 142.681C395.02 142.391 394.74 142.111 394.46 141.861C394.19 141.571 393.92 141.291 393.64 141.031C393.37 140.741 393.09 140.461 392.81 140.211C392.54 139.921 392.26 139.641 391.99 139.381C391.732 139.092 391.458 138.819 391.17 138.561C390.9 138.271 390.62 138.001 390.34 137.741C389.493 136.804 388.5 136.011 387.4 135.391V52.7505C387.4 52.3105 387.19 52.0905 387.19 51.6505C387.244 51.2018 387.168 50.747 386.97 50.3405C386.97 50.1205 386.76 49.6805 386.76 49.4605C386.64 49.011 386.489 48.57 386.31 48.1405C386.083 47.8961 385.933 47.5899 385.88 47.2605C385.632 46.8631 385.336 46.4972 385 46.1705C384.77 45.9505 384.56 45.5205 384.34 45.2905L383.46 44.4105C383.46 44.2805 383.29 44.1405 383.1 44.0605L382.67 43.6205H382.62C382.62 43.4805 382.46 43.3505 382.27 43.2605L381.83 42.8305C381.83 42.7005 381.66 42.5605 381.47 42.4705L381.04 42.0405C381.04 41.9005 380.87 41.7705 380.68 41.6805L380.25 41.2405C380.25 41.1105 380.08 40.9705 379.89 40.8805L379.45 40.4505V40.4005C379.45 40.2705 379.28 40.1405 379.09 40.0505L378.66 39.6105H378.61C378.61 39.4805 378.45 39.3405 378.26 39.2505L377.82 38.8205V38.7705C377.82 38.6405 377.65 38.5105 377.46 38.4205L377.03 37.9805H376.98C376.98 37.8405 376.82 37.7105 376.63 37.6205L376.19 37.1905C376.19 37.0605 376.02 36.9205 375.83 36.8405L375.35 36.3605C375.35 36.1405 374.92 35.9205 374.69 35.9205C374.69 35.8916 374.684 35.863 374.673 35.8363C374.662 35.8097 374.646 35.7854 374.626 35.765C374.605 35.7445 374.581 35.7283 374.554 35.7173C374.527 35.7062 374.499 35.7005 374.47 35.7005C374.04 35.4905 373.81 35.2605 373.38 35.0405C373.002 34.7662 372.638 34.4725 372.29 34.1605C372.07 34.1605 371.63 33.9505 371.41 33.9505C370.97 33.7305 370.32 33.7305 370.09 33.5005C369.711 33.5324 369.331 33.4598 368.99 33.2905H365.27C365.009 33.4582 364.699 33.5322 364.39 33.5005C363.73 33.7305 363.3 33.7305 363.07 33.9505C362.64 33.9505 362.42 34.1605 362.19 34.6105C361.721 34.6227 361.265 34.7721 360.88 35.0405C360.67 35.2605 360.22 35.4905 360.01 35.7005C359.712 36.0183 359.331 36.2468 358.91 36.3605C358.743 36.69 358.519 36.9878 358.25 37.2405C358.03 37.4605 358.03 37.6705 357.82 37.6705L276.33 138.281C274.403 140.594 273.442 143.56 273.645 146.564C273.848 149.567 275.2 152.377 277.42 154.411C277.677 154.713 277.958 154.993 278.26 155.251C278.511 155.552 278.789 155.829 279.09 156.081C279.347 156.383 279.628 156.663 279.93 156.921C280.768 157.752 281.602 158.589 282.43 159.431C282.993 159.981 283.55 160.537 284.1 161.101C284.357 161.399 284.638 161.677 284.94 161.931C285.457 162.518 286.033 163.051 286.66 163.521C288.719 165.311 291.383 166.251 294.11 166.151H354.83V174.461C354.812 176.152 355.152 177.829 355.828 179.38C356.503 180.931 357.499 182.321 358.75 183.461C359.01 183.751 359.29 184.021 359.56 184.271C359.81 184.551 360.08 184.811 360.36 185.071C360.618 185.355 360.892 185.626 361.18 185.881C361.44 186.161 361.7 186.421 361.98 186.681C362.24 186.971 362.52 187.241 362.8 187.501C363.06 187.781 363.32 188.051 363.6 188.301C363.86 188.591 364.14 188.861 364.42 189.121C364.68 189.401 364.94 189.671 365.22 189.921C365.475 190.209 365.745 190.482 366.03 190.741C367.682 192.527 369.834 193.774 372.206 194.319C374.577 194.865 377.058 194.683 379.325 193.798C381.591 192.913 383.539 191.365 384.913 189.357C386.288 187.349 387.025 184.974 387.03 182.541V166.111H389.23C390.832 166.138 392.424 165.847 393.913 165.254C395.401 164.66 396.757 163.777 397.901 162.654C399.045 161.532 399.954 160.193 400.575 158.716C401.196 157.239 401.518 155.653 401.52 154.051C401.543 152.389 401.22 150.741 400.573 149.211C399.926 147.681 398.968 146.301 397.76 145.161ZM354.83 98.1605V133.601H326.27L354.83 98.1605Z" fill="black"/>
<path d="M393.41 145.69C393.409 147.293 393.089 148.878 392.469 150.355C391.848 151.833 390.94 153.171 389.797 154.294C388.654 155.416 387.299 156.3 385.811 156.894C384.323 157.487 382.732 157.778 381.13 157.75H378.94V174.421C378.94 177.619 377.669 180.686 375.408 182.948C373.146 185.21 370.079 186.48 366.88 186.48C363.682 186.48 360.614 185.21 358.352 182.948C356.091 180.686 354.82 177.619 354.82 174.421V157.75H285.75C283.022 157.855 280.357 156.915 278.3 155.12C277.027 154.168 275.961 152.967 275.167 151.589C274.373 150.212 273.867 148.688 273.68 147.109C273.493 145.531 273.629 143.93 274.079 142.406C274.529 140.881 275.285 139.464 276.3 138.24L357.45 37.3705C357.67 37.3705 357.67 37.1605 357.89 36.9405C358.162 36.6903 358.386 36.392 358.55 36.0605C358.971 35.9467 359.352 35.7182 359.65 35.4005C359.87 35.1805 360.31 34.9605 360.53 34.7405C360.911 34.463 361.369 34.3094 361.84 34.3005C362.06 33.8705 362.28 33.6505 362.71 33.6505C362.93 33.4305 363.37 33.4305 364.03 33.2105C364.34 33.2434 364.652 33.1655 364.91 32.9905H368.64C368.974 33.1692 369.353 33.2457 369.73 33.2105C369.95 33.4305 370.61 33.4305 371.05 33.6505C371.27 33.6505 371.71 33.8705 371.93 33.8705C372.37 34.3005 372.8 34.5205 373.02 34.7405C373.46 34.9605 373.68 35.1805 374.12 35.4005C374.178 35.4005 374.234 35.4237 374.276 35.4649C374.317 35.5062 374.34 35.5621 374.34 35.6205C374.56 35.6205 374.99 35.8405 374.99 36.0605L375.87 36.9405C376.09 37.1605 376.31 37.5905 376.53 37.8105C376.866 38.1413 377.161 38.5105 377.41 38.9105C377.465 39.2413 377.618 39.548 377.85 39.7905C378.03 40.2152 378.177 40.6532 378.29 41.1005C378.29 41.3205 378.5 41.7605 378.5 41.9805C378.698 42.3904 378.774 42.8485 378.72 43.3005C378.72 43.7305 378.94 43.9505 378.94 44.3905V133.63H381.13C384.354 133.614 387.453 134.873 389.753 137.132C392.054 139.391 393.368 142.467 393.41 145.69ZM354.82 79.4705L311.19 133.63H354.82V79.4705Z" fill="#FF1B1B"/>
<path d="M231.32 158.031C231.285 158.259 231.331 158.493 231.45 158.692C231.568 158.891 231.752 159.042 231.97 159.121C233.02 159.281 234.3 159.451 235.72 159.651C239.95 150.471 244.27 143.241 243.05 146.101C241.186 150.594 239.964 155.327 239.42 160.161C241.07 160.381 244.92 160.851 246.84 161.081C251.26 144.701 256.13 132.661 255.56 136.441C253.24 151.691 253.65 156.671 254.18 162.001C272.11 164.181 295.66 166.761 312.73 168.231C315.52 159.231 318.13 149.391 318.37 150.111C320.24 155.461 320.2 163.021 319.73 168.821C325.17 169.251 329.53 169.481 332.2 169.481C332.2 169.481 334.2 161.861 334.56 159.341C335.631 152.893 335.57 146.308 334.38 139.881C333.15 133.321 330.53 127.421 328.08 121.391C328.073 121.353 328.063 121.317 328.05 121.281C326.425 117.33 325.257 113.207 324.57 108.991C324.563 108.958 324.563 108.924 324.57 108.891C324.113 105.816 323.915 102.708 323.98 99.6007C324.2 88.2207 319.1 77.9906 309.41 74.2906C292.86 57.3806 270.13 65.1407 263.71 79.4407C261.2 85.8507 258.71 94.2206 256.54 100.671C256.546 100.681 256.549 100.693 256.549 100.706C256.549 100.718 256.546 100.73 256.54 100.741C255.721 103.271 254.749 105.749 253.63 108.161C247.68 119.681 236.22 125.621 231.32 158.031Z" fill="#263238"/>
<path d="M313.4 77.6506C319.61 81.7606 323.15 87.3706 323.4 95.7106C323.56 100.571 323.4 105.301 324.77 109.971C326.14 114.791 328.62 118.851 331.19 122.901C335.26 129.341 337.94 135.661 337.93 143.821C337.92 151.981 336.69 161.821 333.4 169.311C333.4 169.361 333.32 169.311 333.34 169.311C336.14 161.661 337.16 150.881 336.59 142.621C335.96 133.541 331.72 127.561 327.46 120.391C324.028 114.699 322.129 108.215 321.95 101.571C321.83 97.4506 322.27 93.2006 321.07 89.2406C319.65 84.5206 316.25 81.3306 312.85 78.4806C312.4 78.0706 312.93 77.3406 313.4 77.6506Z" fill="#263238"/>
<path d="M241.41 120.091C246.59 114.001 251.88 108.871 255.3 101.091C258.41 94.0005 260.5 86.4305 263.65 79.3605C263.65 79.2405 263.86 79.3005 263.81 79.4305C258.81 92.0305 256.89 104.971 248.15 115.241C243.39 120.821 238.68 125.971 235.26 132.821C231.763 140.045 229.576 147.832 228.8 155.821C228.8 156.101 228.43 156.061 228.43 155.821C228.425 142.756 233.02 130.106 241.41 120.091Z" fill="#263238"/>
<path d="M191.05 275.281C191.05 275.281 239.32 288.281 247.3 286.881C255.28 285.481 282.22 249.221 288.2 236.071C294.18 222.921 304.11 157.501 302.2 150.301C300.29 143.101 290.3 143.001 281.87 161.561C273.44 180.121 253.51 220.921 249.96 224.281C246.41 227.641 187.16 271.801 191.05 275.281Z" fill="#FFC4C0"/>
<path d="M243.11 282.581C235.71 278.711 226.7 269.321 220.56 268.341C219.058 268.047 217.501 268.244 216.12 268.903C214.739 269.562 213.606 270.648 212.89 272.001C212.89 272.001 210.07 265.731 204.35 265.761C201.42 265.761 198.86 270.481 198.86 270.481C198.86 270.481 196.37 265.551 191.3 265.891C187.25 266.161 185.3 270.841 185.3 270.841C185.3 270.841 180.72 267.221 176.68 268.841C168.5 272.071 167.14 306.841 179.74 312.721C185.61 315.461 185.48 306.951 185.48 306.951C185.48 306.951 188.62 319.151 195.78 319.611C202.94 320.071 202.11 309.031 202.11 309.031C202.11 309.031 205.26 320.821 212.73 320.551C220.51 320.281 217.79 309.371 217.79 309.371C217.79 309.371 222.73 317.311 228.4 315.791C237.77 313.291 227.7 294.471 229.82 286.901H241.59L243.11 282.581Z" fill="#FFC4C0"/>
<path d="M232.43 275.181C239.76 278.241 248.12 266.671 255.66 269.361C265.44 272.851 256.4 284.921 241.58 286.881H229.81L232.43 275.181Z" fill="#FFC4C0"/>
<path d="M184.87 271.531C184.87 271.507 184.861 271.484 184.844 271.467C184.827 271.45 184.804 271.441 184.78 271.441C184.756 271.441 184.733 271.45 184.716 271.467C184.699 271.484 184.69 271.507 184.69 271.531C181.46 282.861 181.37 296.301 185.42 307.441C185.55 307.801 186.21 307.751 186.14 307.321C184.16 295.001 183.38 283.941 184.87 271.531Z" fill="#263238"/>
<path d="M198.79 270.281C198.79 270.141 198.58 270.111 198.54 270.281C195.27 281.981 195.54 297.111 201.77 309.411C201.98 309.831 202.6 309.991 202.39 309.491C198.9 301.011 197.39 281.471 198.79 270.281Z" fill="#263238"/>
<path d="M218.51 310.101C213.04 298.101 211.97 285.531 212.73 272.471C212.73 272.301 212.5 272.301 212.45 272.471C210.34 278.761 210.73 287.131 211.58 293.621C212.245 299.644 214.476 305.387 218.05 310.281C218.23 310.491 218.63 310.361 218.51 310.101Z" fill="#263238"/>
<path d="M256.24 268.441C251.44 266.841 246.51 270.681 242.47 272.831C241.177 273.6 239.814 274.246 238.4 274.761C235.2 275.761 232.83 275.121 231.4 274.231C229.16 272.801 222.17 265.821 217.12 268.141C215.378 268.956 213.886 270.223 212.8 271.811C211.26 269.011 209.29 265.961 205.88 265.401C205.129 265.273 204.359 265.306 203.621 265.497C202.884 265.689 202.195 266.034 201.6 266.511C200.964 267.001 200.399 267.576 199.92 268.221C199.445 268.799 199.055 269.442 198.76 270.131C198.759 270.107 198.759 270.084 198.76 270.061L198.65 269.851L198.44 269.421C198.155 268.844 197.749 268.336 197.25 267.931C197.155 267.834 197.041 267.757 196.916 267.705C196.79 267.654 196.656 267.628 196.52 267.631C196.499 267.631 196.478 267.639 196.463 267.654C196.448 267.669 196.44 267.689 196.44 267.711C196.44 267.732 196.448 267.752 196.463 267.767C196.478 267.782 196.499 267.791 196.52 267.791C196.754 267.902 196.944 268.088 197.06 268.321C197.22 268.561 197.37 268.811 197.54 269.041C197.71 269.271 197.87 269.511 198.04 269.741L198.29 270.111L198.4 270.301C198.448 270.362 198.502 270.419 198.56 270.471C198.574 270.489 198.592 270.504 198.613 270.515C198.634 270.525 198.657 270.531 198.68 270.531C198.703 270.531 198.726 270.525 198.747 270.515C198.768 270.504 198.786 270.489 198.8 270.471C199.314 270.013 199.78 269.504 200.19 268.951C200.694 268.365 201.253 267.829 201.86 267.351C202.436 266.905 203.1 266.585 203.809 266.413C204.517 266.241 205.253 266.219 205.97 266.351C209.03 266.951 210.97 269.671 212.6 272.101C212.6 272.101 212.6 272.101 212.65 272.101C212.6 272.181 212.71 272.251 212.77 272.191C214.45 270.721 216.05 269.071 218.37 268.731C220.87 268.361 223.24 269.561 225.31 270.821C226.347 271.43 227.348 272.098 228.31 272.821C229.16 273.481 229.97 274.221 230.88 274.821C234.77 277.271 239.03 275.371 240.09 274.921C242.18 273.979 244.208 272.903 246.16 271.701C248.122 270.385 250.335 269.489 252.66 269.071C253.727 268.913 254.817 269.029 255.828 269.407C256.839 269.784 257.737 270.412 258.44 271.231C259.17 272.171 260.1 273.931 258.19 277.941C258.19 277.941 258.19 278.021 258.25 277.991C259.25 276.951 262.43 270.511 256.24 268.441Z" fill="#263238"/>
<path d="M298.41 211.061L252.86 203.781C252.86 203.781 274.62 160.691 287.69 148.191C300.59 135.851 306.87 148.491 304.97 167.551C302.87 188.681 298.41 211.061 298.41 211.061Z" fill="#37474F"/>
<path d="M296.93 202.581C295.65 202.281 294.34 202.091 293.06 201.801C291.78 201.511 290.55 201.331 289.29 201.141C286.72 200.741 284.14 200.381 281.57 200.031C276.49 199.331 271.41 198.561 266.31 198.031C263.41 197.711 260.53 197.271 257.62 197.031C257.53 197.031 257.52 197.171 257.62 197.191C262.67 198.371 267.81 199.191 272.93 200.081C278.05 200.971 283.09 201.691 288.19 202.241C289.62 202.401 291.06 202.581 292.49 202.651C293.92 202.721 295.44 202.861 296.91 202.881C296.95 202.883 296.989 202.87 297.019 202.844C297.049 202.817 297.067 202.78 297.07 202.741C297.073 202.701 297.059 202.662 297.033 202.632C297.007 202.602 296.97 202.583 296.93 202.581Z" fill="#263238"/>
<path d="M273.05 287.281H393.68C393.68 287.281 343.54 162.841 318.05 144.661C310.4 139.201 298.21 138.591 289.99 149.551C283.25 158.551 264.54 194.301 263.69 207.161C262.84 220.021 272.93 232.731 272.93 232.731L273.05 287.281Z" fill="#455A64"/>
<path d="M312.99 202.961C313.3 202.881 313.6 202.841 313.9 202.781C314.165 202.721 314.439 202.721 314.704 202.781C314.968 202.842 315.215 202.961 315.428 203.13C315.64 203.299 315.811 203.513 315.929 203.758C316.047 204.002 316.109 204.269 316.11 204.541C316.102 204.782 316.157 205.021 316.27 205.235C316.382 205.449 316.547 205.63 316.75 205.761C316.977 205.903 317.233 205.992 317.5 206.021C317.806 206.065 318.11 206.125 318.41 206.201C318.11 206.281 317.81 206.321 317.5 206.381C317.165 206.447 316.818 206.416 316.5 206.291C316.162 206.146 315.874 205.905 315.673 205.597C315.472 205.289 315.366 204.928 315.37 204.561C315.364 204.32 315.298 204.085 315.177 203.877C315.057 203.669 314.886 203.495 314.68 203.371C314.442 203.241 314.18 203.163 313.91 203.141C313.6 203.081 313.3 203.041 312.99 202.961Z" fill="white"/>
<path d="M266.85 202.961C267.15 202.881 267.45 202.841 267.75 202.781C268.015 202.721 268.289 202.721 268.554 202.781C268.818 202.842 269.065 202.961 269.278 203.13C269.49 203.299 269.661 203.513 269.779 203.758C269.897 204.002 269.959 204.269 269.96 204.541C269.954 204.783 270.011 205.022 270.125 205.236C270.239 205.449 270.406 205.63 270.61 205.761C270.835 205.906 271.093 205.995 271.36 206.021C271.66 206.081 271.96 206.111 272.26 206.201C271.96 206.281 271.66 206.321 271.36 206.381C271.025 206.446 270.678 206.414 270.36 206.291C270.024 206.143 269.738 205.901 269.538 205.594C269.337 205.287 269.23 204.928 269.23 204.561C269.224 204.32 269.158 204.085 269.037 203.877C268.917 203.669 268.746 203.495 268.54 203.371C268.303 203.24 268.04 203.161 267.77 203.141C267.45 203.081 267.15 203.041 266.85 202.961Z" fill="white"/>
<path d="M329.75 262.901C330.05 262.821 330.36 262.781 330.66 262.721C330.924 262.664 331.198 262.667 331.461 262.73C331.724 262.792 331.97 262.913 332.181 263.082C332.392 263.252 332.562 263.466 332.679 263.71C332.797 263.953 332.859 264.22 332.86 264.491C332.857 264.732 332.915 264.97 333.029 265.184C333.143 265.397 333.308 265.578 333.51 265.711C333.738 265.85 333.994 265.935 334.26 265.961C334.56 266.021 334.87 266.061 335.17 266.141C334.87 266.231 334.56 266.271 334.26 266.331C333.924 266.393 333.577 266.359 333.26 266.231C332.921 266.086 332.633 265.844 332.43 265.537C332.228 265.229 332.12 264.869 332.12 264.501C332.118 264.261 332.054 264.025 331.933 263.818C331.812 263.611 331.638 263.44 331.43 263.321C331.198 263.185 330.938 263.106 330.67 263.091C330.36 263.031 330.05 262.991 329.75 262.901Z" fill="white"/>
<path d="M350.61 206.201C350.91 206.111 351.22 206.081 351.52 206.021C351.784 205.96 352.058 205.961 352.322 206.021C352.586 206.082 352.833 206.201 353.044 206.37C353.256 206.539 353.426 206.754 353.543 206.998C353.66 207.242 353.721 207.51 353.72 207.781C353.716 208.022 353.774 208.261 353.888 208.474C354.001 208.688 354.167 208.869 354.37 209.001C354.595 209.146 354.853 209.232 355.12 209.251C355.42 209.321 355.73 209.351 356.03 209.441C355.73 209.521 355.42 209.561 355.12 209.621C354.785 209.688 354.438 209.657 354.12 209.531C353.781 209.386 353.493 209.144 353.29 208.837C353.087 208.529 352.98 208.169 352.98 207.801C352.978 207.559 352.913 207.323 352.793 207.114C352.672 206.906 352.498 206.732 352.29 206.611C352.056 206.48 351.797 206.401 351.53 206.381C351.22 206.281 350.91 206.281 350.61 206.201Z" fill="white"/>
<path d="M297.28 175.71C297.59 175.63 297.89 175.59 298.19 175.53C298.523 175.458 298.87 175.482 299.19 175.6C299.537 175.73 299.837 175.962 300.049 176.265C300.262 176.569 300.377 176.93 300.38 177.3C300.379 177.542 300.438 177.779 300.551 177.992C300.665 178.205 300.829 178.387 301.03 178.52C301.26 178.655 301.515 178.741 301.78 178.77C302.09 178.83 302.39 178.87 302.69 178.95C302.39 179.04 302.09 179.07 301.78 179.14C301.444 179.198 301.098 179.164 300.78 179.04C300.437 178.894 300.146 178.648 299.944 178.334C299.743 178.02 299.64 177.653 299.65 177.28C299.645 177.041 299.58 176.807 299.459 176.601C299.338 176.394 299.166 176.222 298.96 176.1C298.725 175.963 298.462 175.881 298.19 175.86C297.89 175.83 297.59 175.8 297.28 175.71Z" fill="white"/>
<path d="M330.11 175.021C330.41 174.941 330.71 174.901 331.02 174.841C331.353 174.77 331.7 174.795 332.02 174.911C332.367 175.042 332.666 175.274 332.88 175.577C333.094 175.88 333.212 176.24 333.22 176.611C333.215 176.852 333.273 177.091 333.387 177.305C333.5 177.519 333.667 177.699 333.87 177.831C334.097 177.971 334.354 178.057 334.62 178.081C334.92 178.141 335.22 178.181 335.53 178.261C335.22 178.351 334.92 178.391 334.62 178.451C334.284 178.514 333.937 178.479 333.62 178.351C333.281 178.206 332.993 177.964 332.79 177.657C332.587 177.349 332.48 176.989 332.48 176.621C332.476 176.381 332.411 176.147 332.29 175.94C332.169 175.733 331.997 175.561 331.79 175.441C331.558 175.305 331.298 175.226 331.03 175.211C330.72 175.163 330.413 175.1 330.11 175.021Z" fill="white"/>
<path d="M308.86 143.511C309.16 143.431 309.47 143.391 309.77 143.331C310.034 143.27 310.308 143.271 310.572 143.331C310.836 143.392 311.083 143.511 311.294 143.68C311.506 143.849 311.676 144.064 311.793 144.308C311.91 144.552 311.971 144.82 311.97 145.091C311.964 145.333 312.021 145.572 312.135 145.786C312.249 145.999 312.416 146.18 312.62 146.311C312.846 146.455 313.103 146.544 313.37 146.571C313.67 146.631 313.98 146.661 314.28 146.751C313.98 146.831 313.67 146.871 313.37 146.931C313.035 146.998 312.688 146.967 312.37 146.841C312.031 146.696 311.743 146.454 311.54 146.147C311.337 145.839 311.23 145.479 311.23 145.111C311.228 144.869 311.163 144.633 311.043 144.424C310.922 144.216 310.748 144.042 310.54 143.921C310.306 143.79 310.047 143.711 309.78 143.691C309.47 143.631 309.16 143.591 308.86 143.511Z" fill="white"/>
<path d="M289.23 228.04C289.53 227.96 289.83 227.92 290.13 227.86C290.463 227.787 290.81 227.811 291.13 227.93C291.477 228.058 291.778 228.287 291.992 228.589C292.207 228.891 292.324 229.25 292.33 229.62C292.324 229.862 292.381 230.102 292.495 230.316C292.609 230.529 292.776 230.71 292.98 230.84C293.205 230.986 293.463 231.075 293.73 231.1C294.03 231.16 294.33 231.2 294.63 231.28C294.33 231.37 294.03 231.4 293.73 231.46C293.395 231.525 293.048 231.494 292.73 231.37C292.394 231.223 292.108 230.981 291.908 230.674C291.707 230.366 291.6 230.007 291.6 229.64C291.594 229.4 291.528 229.165 291.407 228.957C291.287 228.749 291.116 228.575 290.91 228.45C290.672 228.321 290.41 228.243 290.14 228.22C289.83 228.16 289.53 228.13 289.23 228.04Z" fill="white"/>
<path d="M325.05 282.971C325.35 282.881 325.66 282.841 325.96 282.781C326.224 282.724 326.498 282.727 326.761 282.79C327.024 282.852 327.27 282.973 327.481 283.142C327.692 283.312 327.862 283.526 327.979 283.77C328.097 284.013 328.159 284.28 328.16 284.551C328.157 284.792 328.215 285.031 328.329 285.244C328.443 285.457 328.608 285.638 328.81 285.771C329.036 285.914 329.293 286 329.56 286.021C329.86 286.081 330.17 286.121 330.47 286.201C330.17 286.291 329.86 286.331 329.56 286.391C329.224 286.453 328.877 286.419 328.56 286.291C328.221 286.147 327.931 285.906 327.729 285.598C327.526 285.29 327.418 284.929 327.42 284.561C327.418 284.321 327.354 284.085 327.233 283.878C327.112 283.671 326.938 283.5 326.73 283.381C326.498 283.245 326.238 283.166 325.97 283.151C325.63 283.091 325.32 283.051 325.05 282.971Z" fill="white"/>
<path d="M307.4 253.451C307.7 253.371 308 253.331 308.3 253.271C308.633 253.202 308.979 253.226 309.3 253.341C309.648 253.47 309.949 253.701 310.163 254.005C310.378 254.308 310.495 254.669 310.5 255.041C310.495 255.283 310.553 255.522 310.667 255.735C310.78 255.949 310.947 256.129 311.15 256.261C311.376 256.403 311.634 256.489 311.9 256.511C312.2 256.571 312.5 256.611 312.81 256.691C312.5 256.781 312.2 256.811 311.9 256.881C311.564 256.937 311.218 256.903 310.9 256.781C310.564 256.633 310.278 256.391 310.078 256.084C309.877 255.777 309.77 255.418 309.77 255.051C309.764 254.812 309.697 254.578 309.576 254.372C309.456 254.166 309.285 253.993 309.08 253.871C308.847 253.729 308.582 253.65 308.31 253.641C308.05 253.571 307.7 253.541 307.4 253.451Z" fill="white"/>
<path d="M274.79 258.82C275.1 258.73 275.4 258.69 275.7 258.63C275.964 258.574 276.238 258.577 276.501 258.64C276.764 258.702 277.01 258.823 277.221 258.992C277.432 259.162 277.602 259.376 277.719 259.62C277.837 259.863 277.899 260.13 277.9 260.4C277.897 260.642 277.955 260.88 278.069 261.094C278.183 261.307 278.348 261.488 278.55 261.62C278.776 261.764 279.033 261.85 279.3 261.87C279.61 261.93 279.91 261.97 280.21 262.05C279.91 262.129 279.606 262.193 279.3 262.24C278.964 262.303 278.617 262.269 278.3 262.14C277.961 261.997 277.671 261.756 277.469 261.448C277.266 261.14 277.158 260.779 277.16 260.41C277.158 260.172 277.095 259.938 276.976 259.731C276.856 259.524 276.686 259.352 276.48 259.23C276.244 259.096 275.981 259.018 275.71 259C275.4 258.94 275.1 258.9 274.79 258.82Z" fill="white"/>
<path d="M322.41 228.76C322.71 228.68 323.01 228.64 323.31 228.58C323.575 228.524 323.849 228.527 324.113 228.59C324.376 228.653 324.623 228.773 324.834 228.942C325.046 229.112 325.217 229.326 325.335 229.569C325.454 229.813 325.517 230.08 325.52 230.35C325.515 230.592 325.573 230.831 325.687 231.045C325.8 231.258 325.967 231.439 326.17 231.57C326.396 231.713 326.653 231.799 326.92 231.82C327.22 231.88 327.52 231.92 327.82 232C327.52 232.09 327.22 232.12 326.92 232.19C326.584 232.252 326.237 232.217 325.92 232.09C325.584 231.943 325.298 231.701 325.098 231.394C324.897 231.086 324.79 230.727 324.79 230.36C324.784 230.122 324.717 229.888 324.596 229.682C324.476 229.476 324.305 229.303 324.1 229.18C323.866 229.042 323.602 228.963 323.33 228.95C323.05 228.88 322.71 228.85 322.41 228.76Z" fill="white"/>
<path d="M364.1 269.171C364.4 269.091 364.71 269.051 365.01 268.991C365.343 268.918 365.69 268.942 366.01 269.061C366.357 269.19 366.657 269.422 366.869 269.726C367.082 270.029 367.197 270.39 367.2 270.761C367.199 271.002 367.258 271.24 367.371 271.452C367.485 271.665 367.649 271.847 367.85 271.981C368.08 272.116 368.335 272.201 368.6 272.231C368.91 272.291 369.21 272.331 369.51 272.411C369.21 272.501 368.91 272.531 368.6 272.601C368.334 272.65 368.061 272.639 367.799 272.569C367.538 272.499 367.296 272.372 367.09 272.197C366.884 272.022 366.72 271.803 366.609 271.556C366.498 271.309 366.444 271.041 366.45 270.771C366.448 270.531 366.384 270.296 366.263 270.088C366.142 269.881 365.968 269.71 365.76 269.591C365.529 269.452 365.269 269.369 365 269.351C364.71 269.281 364.4 269.281 364.1 269.171Z" fill="white"/>
<path d="M347.55 244.501C347.85 244.421 348.16 244.381 348.46 244.321C348.724 244.264 348.998 244.267 349.261 244.33C349.524 244.393 349.77 244.513 349.981 244.682C350.192 244.852 350.362 245.066 350.479 245.31C350.597 245.554 350.659 245.82 350.66 246.091C350.655 246.333 350.713 246.572 350.827 246.785C350.94 246.999 351.107 247.179 351.31 247.311C351.535 247.456 351.793 247.542 352.06 247.561C352.36 247.621 352.67 247.661 352.97 247.741C352.67 247.831 352.36 247.871 352.06 247.931C351.724 247.994 351.377 247.959 351.06 247.831C350.721 247.687 350.431 247.446 350.229 247.138C350.026 246.83 349.918 246.469 349.92 246.101C349.918 245.861 349.854 245.625 349.733 245.418C349.612 245.211 349.438 245.04 349.23 244.921C348.998 244.785 348.738 244.706 348.47 244.691C348.16 244.631 347.85 244.591 347.55 244.501Z" fill="white"/>
<path d="M382.73 280.451C383.04 280.371 383.34 280.331 383.64 280.271C383.904 280.214 384.178 280.217 384.441 280.28C384.704 280.342 384.95 280.463 385.161 280.632C385.372 280.802 385.542 281.016 385.659 281.26C385.777 281.503 385.839 281.77 385.84 282.041C385.837 282.282 385.895 282.52 386.009 282.734C386.123 282.947 386.288 283.128 386.49 283.261C386.716 283.404 386.973 283.49 387.24 283.511C387.55 283.571 387.85 283.611 388.15 283.691C387.85 283.769 387.546 283.833 387.24 283.881C386.904 283.943 386.557 283.909 386.24 283.781C385.901 283.637 385.612 283.396 385.411 283.088C385.21 282.78 385.105 282.419 385.11 282.051C385.104 281.812 385.037 281.578 384.916 281.372C384.796 281.166 384.625 280.993 384.42 280.871C384.184 280.737 383.921 280.658 383.65 280.641C383.34 280.581 383.05 280.541 382.73 280.451Z" fill="white"/>
<path d="M300.05 192.741C299.9 193.011 299.71 193.251 299.54 193.511C299.395 193.74 299.2 193.934 298.969 194.077C298.739 194.221 298.479 194.311 298.21 194.341C297.94 194.371 297.667 194.34 297.41 194.249C297.154 194.159 296.922 194.013 296.73 193.821C296.563 193.646 296.354 193.517 296.123 193.447C295.891 193.377 295.646 193.368 295.41 193.421C295.149 193.479 294.905 193.599 294.7 193.771C294.453 193.954 294.196 194.125 293.93 194.281C294.09 194.011 294.27 193.771 294.44 193.511C294.636 193.223 294.91 192.998 295.23 192.861C295.568 192.728 295.937 192.697 296.293 192.771C296.648 192.846 296.974 193.023 297.23 193.281C297.403 193.448 297.617 193.568 297.849 193.629C298.082 193.69 298.327 193.691 298.56 193.631C298.82 193.56 299.059 193.43 299.26 193.251C299.58 193.081 299.82 192.891 300.05 192.741Z" fill="white"/>
<path d="M287.98 172.491C287.83 172.761 287.64 173.001 287.47 173.261C287.325 173.49 287.13 173.684 286.899 173.827C286.669 173.971 286.409 174.061 286.139 174.091C285.87 174.121 285.597 174.09 285.34 173.999C285.084 173.909 284.852 173.763 284.66 173.571C284.494 173.395 284.285 173.266 284.053 173.195C283.822 173.125 283.576 173.117 283.34 173.171C283.079 173.229 282.835 173.349 282.63 173.521C282.383 173.704 282.126 173.875 281.86 174.031C282.02 173.761 282.2 173.521 282.37 173.261C282.566 172.973 282.84 172.748 283.16 172.611C283.498 172.478 283.867 172.447 284.223 172.521C284.578 172.596 284.904 172.773 285.16 173.031C285.333 173.199 285.546 173.319 285.779 173.38C286.012 173.442 286.257 173.442 286.49 173.381C286.75 173.31 286.989 173.18 287.19 173.001C287.47 172.831 287.71 172.641 287.98 172.491Z" fill="white"/>
<path d="M349.05 227.991C348.89 228.271 348.71 228.511 348.54 228.761C348.35 229.051 348.084 229.282 347.77 229.431C347.438 229.575 347.071 229.618 346.715 229.554C346.359 229.49 346.03 229.321 345.77 229.071C345.602 228.898 345.392 228.771 345.161 228.701C344.931 228.631 344.686 228.621 344.45 228.671C344.189 228.729 343.946 228.849 343.74 229.021C343.48 229.191 343.24 229.381 342.97 229.531C343.12 229.261 343.31 229.021 343.48 228.761C343.672 228.474 343.943 228.248 344.26 228.111C344.599 227.981 344.967 227.952 345.322 228.027C345.676 228.101 346.002 228.276 346.26 228.531C346.431 228.698 346.642 228.819 346.874 228.88C347.105 228.942 347.349 228.942 347.58 228.881C347.841 228.812 348.084 228.686 348.29 228.511C348.57 228.341 348.81 228.151 349.05 227.991Z" fill="white"/>
<path d="M318.51 162.361C318.36 162.631 318.17 162.871 318 163.131C317.813 163.417 317.55 163.645 317.24 163.791C316.902 163.943 316.527 163.991 316.162 163.929C315.796 163.866 315.458 163.696 315.19 163.441C315.023 163.266 314.814 163.137 314.583 163.065C314.352 162.994 314.107 162.982 313.87 163.031C313.61 163.091 313.367 163.211 313.16 163.381C312.9 163.551 312.66 163.741 312.39 163.901C312.54 163.621 312.73 163.381 312.9 163.121C313.094 162.833 313.369 162.61 313.69 162.481C314.028 162.348 314.397 162.317 314.753 162.391C315.108 162.466 315.434 162.643 315.69 162.901C315.865 163.075 316.082 163.202 316.32 163.269C316.558 163.335 316.81 163.339 317.05 163.281C317.308 163.206 317.547 163.076 317.75 162.901C318.05 162.701 318.24 162.511 318.51 162.361Z" fill="white"/>
<path d="M297.33 147.401C297.18 147.671 296.99 147.911 296.82 148.171C296.631 148.458 296.369 148.689 296.06 148.841C295.721 148.992 295.345 149.038 294.98 148.974C294.615 148.91 294.277 148.738 294.01 148.481C293.843 148.306 293.634 148.177 293.403 148.107C293.171 148.037 292.926 148.028 292.69 148.081C292.428 148.137 292.184 148.257 291.98 148.431C291.72 148.601 291.48 148.791 291.21 148.941C291.36 148.671 291.55 148.431 291.72 148.171C291.914 147.881 292.188 147.655 292.51 147.521C292.848 147.388 293.217 147.357 293.573 147.431C293.928 147.506 294.254 147.683 294.51 147.941C294.682 148.109 294.896 148.23 295.129 148.292C295.362 148.353 295.607 148.353 295.84 148.291C296.1 148.22 296.339 148.09 296.54 147.911C296.82 147.741 297.05 147.551 297.33 147.401Z" fill="white"/>
<path d="M317.32 181.401C317.41 181.701 317.44 182.011 317.51 182.311C317.572 182.645 317.548 182.989 317.44 183.311C317.308 183.656 317.076 183.954 316.773 184.166C316.47 184.379 316.11 184.495 315.74 184.501C315.498 184.497 315.26 184.555 315.046 184.668C314.833 184.782 314.652 184.948 314.52 185.151C314.375 185.376 314.289 185.634 314.27 185.901C314.2 186.201 314.17 186.511 314.08 186.811C314 186.511 313.96 186.201 313.9 185.901C313.832 185.565 313.867 185.216 314 184.901C314.143 184.56 314.384 184.27 314.692 184.067C315 183.864 315.361 183.758 315.73 183.761C315.97 183.758 316.204 183.693 316.411 183.572C316.618 183.451 316.79 183.278 316.91 183.071C317.041 182.837 317.12 182.578 317.14 182.311C317.2 182.011 317.24 181.701 317.32 181.401Z" fill="white"/>
<path d="M310.11 234.671C310.19 234.971 310.23 235.281 310.29 235.581C310.346 235.845 310.343 236.119 310.281 236.382C310.218 236.645 310.098 236.891 309.928 237.102C309.759 237.312 309.544 237.483 309.301 237.6C309.057 237.717 308.79 237.779 308.52 237.781C308.278 237.776 308.039 237.833 307.826 237.947C307.612 238.061 307.431 238.227 307.3 238.431C307.159 238.658 307.074 238.915 307.05 239.181C306.99 239.481 306.95 239.791 306.87 240.091C306.78 239.791 306.74 239.481 306.68 239.181C306.617 238.845 306.651 238.497 306.78 238.181C306.925 237.842 307.166 237.553 307.474 237.351C307.781 237.148 308.142 237.04 308.51 237.041C308.75 237.039 308.985 236.974 309.192 236.853C309.399 236.732 309.571 236.559 309.69 236.351C309.826 236.119 309.904 235.859 309.92 235.591C309.98 235.281 310.05 234.971 310.11 234.671Z" fill="white"/>
<path d="M380.05 259.351C380.14 259.651 380.18 259.951 380.24 260.251C380.296 260.516 380.293 260.79 380.23 261.053C380.168 261.317 380.048 261.563 379.878 261.775C379.709 261.986 379.495 262.157 379.251 262.276C379.008 262.395 378.741 262.458 378.47 262.461C378.228 262.456 377.989 262.513 377.776 262.627C377.562 262.741 377.381 262.907 377.25 263.111C377.103 263.335 377.017 263.593 377 263.861C376.94 264.161 376.9 264.461 376.82 264.761C376.73 264.461 376.69 264.161 376.63 263.861C376.569 263.524 376.603 263.178 376.73 262.861C376.877 262.524 377.118 262.237 377.426 262.037C377.733 261.836 378.093 261.729 378.46 261.731C378.699 261.724 378.932 261.658 379.139 261.537C379.345 261.416 379.517 261.246 379.64 261.041C379.774 260.805 379.853 260.541 379.87 260.271C379.94 259.951 379.98 259.651 380.05 259.351Z" fill="white"/>
<path d="M347.65 188.781C347.73 189.081 347.77 189.381 347.83 189.691C347.9 190.024 347.876 190.37 347.76 190.691C347.629 191.037 347.396 191.337 347.094 191.55C346.791 191.764 346.431 191.883 346.06 191.891C345.818 191.886 345.579 191.943 345.366 192.057C345.152 192.171 344.971 192.337 344.84 192.541C344.699 192.768 344.614 193.024 344.59 193.291C344.53 193.591 344.49 193.891 344.41 194.201C344.32 193.891 344.29 193.591 344.22 193.291C344.171 193.025 344.182 192.751 344.252 192.49C344.321 192.229 344.449 191.986 344.624 191.78C344.799 191.575 345.018 191.41 345.265 191.3C345.511 191.189 345.78 191.135 346.05 191.141C346.289 191.137 346.524 191.071 346.731 190.951C346.937 190.83 347.109 190.657 347.23 190.451C347.37 190.221 347.449 189.959 347.46 189.691C347.53 189.381 347.56 189.081 347.65 188.781Z" fill="white"/>
<path d="M347.65 274.281C347.73 274.581 347.77 274.881 347.83 275.181C347.886 275.445 347.883 275.72 347.82 275.983C347.758 276.247 347.638 276.493 347.468 276.705C347.299 276.916 347.085 277.087 346.841 277.206C346.598 277.324 346.331 277.388 346.06 277.391C345.818 277.386 345.579 277.443 345.366 277.557C345.152 277.671 344.971 277.837 344.84 278.041C344.698 278.267 344.612 278.524 344.59 278.791C344.53 279.091 344.49 279.391 344.41 279.691C344.32 279.391 344.29 279.091 344.22 278.791C344.164 278.454 344.198 278.109 344.32 277.791C344.468 277.455 344.71 277.169 345.017 276.968C345.324 276.768 345.683 276.661 346.05 276.661C346.289 276.654 346.522 276.587 346.729 276.467C346.935 276.346 347.107 276.176 347.23 275.971C347.371 275.738 347.451 275.473 347.46 275.201C347.53 274.911 347.56 274.611 347.65 274.281Z" fill="white"/>
<path d="M364.1 225.331C364.19 225.631 364.22 225.941 364.28 226.241C364.34 226.505 364.34 226.779 364.28 227.043C364.219 227.307 364.1 227.554 363.931 227.765C363.761 227.976 363.547 228.147 363.303 228.264C363.058 228.381 362.791 228.441 362.52 228.441C362.278 228.437 362.04 228.495 361.826 228.608C361.613 228.722 361.432 228.888 361.3 229.091C361.155 229.316 361.069 229.574 361.05 229.841C360.98 230.141 360.95 230.451 360.86 230.751C360.78 230.451 360.74 230.141 360.68 229.841C360.612 229.505 360.647 229.156 360.78 228.841C360.922 228.502 361.161 228.213 361.467 228.01C361.774 227.807 362.133 227.7 362.5 227.701C362.741 227.699 362.978 227.634 363.186 227.513C363.395 227.392 363.569 227.219 363.69 227.011C363.821 226.777 363.9 226.518 363.92 226.251C363.98 225.941 364.05 225.631 364.1 225.331Z" fill="white"/>
<path d="M280.74 236.581C280.83 236.881 280.86 237.181 280.92 237.481C280.98 237.745 280.98 238.02 280.919 238.284C280.859 238.549 280.74 238.796 280.571 239.008C280.402 239.22 280.187 239.392 279.943 239.51C279.699 239.628 279.431 239.69 279.16 239.691C278.918 239.685 278.679 239.742 278.465 239.856C278.251 239.97 278.07 240.137 277.94 240.341C277.793 240.565 277.707 240.823 277.69 241.091C277.62 241.391 277.59 241.691 277.5 241.991C277.42 241.691 277.38 241.391 277.32 241.091C277.254 240.755 277.289 240.407 277.42 240.091C277.564 239.754 277.804 239.467 278.109 239.266C278.415 239.065 278.774 238.959 279.14 238.961C279.38 238.955 279.615 238.889 279.823 238.768C280.031 238.647 280.206 238.476 280.33 238.271C280.462 238.034 280.541 237.771 280.56 237.501C280.62 237.181 280.66 236.881 280.74 236.581Z" fill="white"/>
<path d="M282.36 188.781C282.435 189.081 282.495 189.384 282.54 189.691C282.614 190.023 282.593 190.369 282.48 190.691C282.349 191.037 282.116 191.337 281.814 191.55C281.511 191.764 281.151 191.883 280.78 191.891C280.538 191.885 280.299 191.942 280.085 192.056C279.871 192.17 279.69 192.337 279.56 192.541C279.415 192.765 279.329 193.023 279.31 193.291C279.24 193.591 279.21 193.891 279.12 194.201C279.04 193.891 279 193.591 278.94 193.291C278.873 192.955 278.904 192.608 279.03 192.291C279.175 191.952 279.416 191.663 279.724 191.461C280.031 191.258 280.392 191.15 280.76 191.151C281.001 191.147 281.237 191.081 281.445 190.96C281.653 190.84 281.827 190.668 281.95 190.461C282.081 190.227 282.16 189.968 282.18 189.701C282.24 189.381 282.28 189.081 282.36 188.781Z" fill="white"/>
<path d="M299.8 157.71C299.88 158.01 299.92 158.31 299.98 158.62C300.05 158.954 300.026 159.3 299.91 159.62C299.778 159.967 299.546 160.267 299.244 160.48C298.941 160.694 298.581 160.813 298.21 160.82C297.968 160.816 297.729 160.873 297.516 160.987C297.302 161.101 297.121 161.267 296.99 161.47C296.849 161.697 296.764 161.954 296.74 162.22C296.68 162.52 296.64 162.82 296.56 163.13C296.47 162.82 296.44 162.52 296.37 162.22C296.309 161.884 296.343 161.538 296.47 161.22C296.618 160.885 296.86 160.599 297.167 160.398C297.474 160.197 297.833 160.091 298.2 160.09C298.439 160.087 298.674 160.021 298.881 159.901C299.087 159.78 299.259 159.607 299.38 159.4C299.52 159.171 299.599 158.909 299.61 158.64C299.68 158.28 299.71 158.01 299.8 157.71Z" fill="white"/>
<path d="M295.12 205.74C295.2 206.05 295.24 206.35 295.3 206.65C295.356 206.915 295.353 207.19 295.29 207.453C295.228 207.717 295.108 207.963 294.938 208.175C294.769 208.386 294.555 208.557 294.311 208.676C294.068 208.794 293.801 208.858 293.53 208.86C293.288 208.856 293.049 208.913 292.836 209.027C292.622 209.141 292.441 209.307 292.31 209.51C292.167 209.737 292.082 209.994 292.06 210.26C292 210.56 291.96 210.86 291.88 211.16C291.79 210.86 291.75 210.56 291.69 210.26C291.629 209.924 291.663 209.578 291.79 209.26C291.938 208.925 292.18 208.639 292.487 208.438C292.794 208.237 293.153 208.131 293.52 208.13C293.759 208.124 293.992 208.057 294.198 207.937C294.405 207.816 294.577 207.645 294.7 207.44C294.834 207.205 294.913 206.941 294.93 206.671C294.99 206.351 295.05 206.05 295.12 205.74Z" fill="white"/>
<path d="M337.15 212.201C337.23 212.501 337.27 212.811 337.33 213.111C337.386 213.375 337.383 213.649 337.321 213.912C337.258 214.175 337.138 214.421 336.968 214.632C336.799 214.842 336.584 215.013 336.341 215.13C336.097 215.247 335.83 215.309 335.56 215.311C335.318 215.308 335.08 215.366 334.867 215.48C334.654 215.593 334.473 215.759 334.34 215.961C334.201 216.188 334.115 216.445 334.09 216.711C334.03 217.011 333.99 217.321 333.91 217.621C333.82 217.321 333.79 217.011 333.72 216.711C333.657 216.375 333.692 216.028 333.82 215.711C333.965 215.372 334.206 215.084 334.514 214.881C334.821 214.678 335.182 214.57 335.55 214.571C335.79 214.569 336.025 214.504 336.232 214.383C336.439 214.262 336.611 214.089 336.73 213.881C336.87 213.651 336.949 213.389 336.96 213.121C337.05 212.811 337.05 212.501 337.15 212.201Z" fill="white"/>
<path d="M298.3 266.141C298.38 266.451 298.42 266.751 298.48 267.051C298.54 267.315 298.54 267.59 298.479 267.854C298.419 268.119 298.3 268.366 298.131 268.578C297.962 268.79 297.747 268.962 297.503 269.08C297.259 269.198 296.991 269.26 296.72 269.261C296.478 269.253 296.238 269.309 296.024 269.423C295.809 269.537 295.629 269.705 295.5 269.911C295.356 270.133 295.267 270.387 295.24 270.651C295.195 270.957 295.135 271.261 295.06 271.561C294.98 271.261 294.94 270.961 294.88 270.651C294.813 270.316 294.845 269.968 294.97 269.651C295.114 269.312 295.356 269.024 295.664 268.823C295.972 268.622 296.332 268.517 296.7 268.521C296.94 268.515 297.175 268.449 297.383 268.328C297.591 268.208 297.766 268.036 297.89 267.831C298.02 267.593 298.098 267.331 298.12 267.061C298.18 266.751 298.22 266.451 298.3 266.141Z" fill="white"/>
<path d="M329.94 196.951C330.1 196.681 330.29 196.441 330.46 196.181C330.644 195.892 330.908 195.662 331.22 195.521C331.551 195.376 331.917 195.332 332.273 195.395C332.628 195.457 332.958 195.622 333.22 195.871C333.39 196.045 333.6 196.174 333.833 196.246C334.065 196.317 334.312 196.329 334.55 196.281C334.807 196.22 335.047 196.1 335.25 195.931C335.51 195.751 335.75 195.571 336.03 195.411C335.87 195.691 335.68 195.931 335.51 196.191C335.317 196.475 335.046 196.697 334.73 196.831C334.392 196.961 334.023 196.991 333.668 196.916C333.313 196.842 332.987 196.666 332.73 196.411C332.557 196.246 332.346 196.128 332.115 196.066C331.884 196.005 331.642 196.003 331.41 196.061C331.152 196.135 330.913 196.265 330.71 196.441C330.46 196.611 330.22 196.801 329.94 196.951Z" fill="white"/>
<path d="M305.43 219.161C305.58 218.891 305.77 218.651 305.94 218.391C306.085 218.161 306.28 217.968 306.511 217.824C306.741 217.68 307.001 217.59 307.27 217.56C307.54 217.53 307.813 217.562 308.07 217.652C308.326 217.742 308.558 217.888 308.75 218.081C308.916 218.256 309.125 218.386 309.357 218.456C309.588 218.526 309.834 218.535 310.07 218.481C310.331 218.422 310.575 218.302 310.78 218.131C311.027 217.947 311.284 217.777 311.55 217.621C311.39 217.891 311.21 218.131 311.04 218.391C310.887 218.615 310.686 218.802 310.452 218.938C310.217 219.074 309.955 219.156 309.685 219.178C309.415 219.2 309.143 219.162 308.889 219.065C308.636 218.969 308.407 218.817 308.22 218.621C308.049 218.454 307.837 218.334 307.606 218.272C307.375 218.211 307.132 218.21 306.9 218.271C306.642 218.346 306.403 218.475 306.2 218.651C305.94 218.821 305.7 219.011 305.43 219.161Z" fill="white"/>
<path d="M288.81 251.881C288.97 251.601 289.16 251.361 289.33 251.111C289.475 250.881 289.67 250.688 289.901 250.544C290.131 250.4 290.391 250.31 290.66 250.28C290.93 250.25 291.203 250.282 291.46 250.372C291.716 250.462 291.948 250.608 292.14 250.801C292.308 250.974 292.517 251.102 292.748 251.172C292.979 251.242 293.224 251.252 293.46 251.201C293.721 251.142 293.965 251.022 294.17 250.851C294.417 250.667 294.674 250.497 294.94 250.341C294.78 250.611 294.6 250.851 294.43 251.111C294.278 251.334 294.078 251.521 293.844 251.658C293.611 251.794 293.35 251.876 293.08 251.898C292.81 251.92 292.539 251.882 292.287 251.785C292.034 251.689 291.806 251.537 291.62 251.341C291.447 251.173 291.234 251.052 291.001 250.991C290.768 250.93 290.523 250.93 290.29 250.991C290.031 251.057 289.791 251.184 289.59 251.361C289.33 251.541 289.05 251.721 288.81 251.881Z" fill="white"/>
<path d="M295.99 285.871C296.15 285.601 296.34 285.361 296.51 285.101C296.694 284.812 296.958 284.582 297.27 284.441C297.601 284.299 297.967 284.256 298.322 284.319C298.677 284.381 299.006 284.545 299.27 284.791C299.437 284.966 299.646 285.095 299.877 285.167C300.108 285.239 300.353 285.25 300.59 285.201C300.852 285.138 301.095 285.015 301.3 284.841C301.55 284.671 301.79 284.491 302.07 284.331C301.91 284.611 301.73 284.851 301.56 285.101C301.364 285.388 301.09 285.614 300.77 285.751C300.432 285.881 300.063 285.911 299.708 285.836C299.353 285.762 299.027 285.586 298.77 285.331C298.597 285.166 298.386 285.048 298.155 284.986C297.924 284.925 297.682 284.923 297.45 284.981C297.192 285.056 296.953 285.185 296.75 285.361C296.51 285.531 296.27 285.721 295.99 285.871Z" fill="white"/>
<path d="M328.14 248.511C328.29 248.241 328.48 248.001 328.65 247.741C328.837 247.454 329.1 247.226 329.41 247.081C329.748 246.928 330.123 246.88 330.488 246.942C330.854 247.005 331.192 247.175 331.46 247.431C331.627 247.606 331.836 247.735 332.067 247.807C332.298 247.879 332.543 247.89 332.78 247.841C333.04 247.778 333.282 247.658 333.49 247.491C333.74 247.321 333.98 247.131 334.26 246.971C334.1 247.251 333.92 247.491 333.75 247.751C333.556 248.038 333.281 248.261 332.96 248.391C332.622 248.523 332.253 248.555 331.897 248.48C331.542 248.405 331.216 248.228 330.96 247.971C330.785 247.806 330.572 247.688 330.34 247.627C330.107 247.565 329.863 247.563 329.63 247.621C329.372 247.696 329.133 247.825 328.93 248.001C328.65 248.171 328.41 248.361 328.14 248.511Z" fill="white"/>
<path d="M350.26 262.051C350.41 261.781 350.6 261.541 350.77 261.281C350.959 260.996 351.222 260.768 351.53 260.621C351.861 260.479 352.227 260.436 352.582 260.499C352.937 260.561 353.266 260.725 353.53 260.971C353.697 261.145 353.906 261.274 354.137 261.346C354.368 261.417 354.613 261.429 354.85 261.381C355.11 261.32 355.353 261.2 355.56 261.031C355.82 260.861 356.06 260.671 356.33 260.511C356.18 260.791 355.99 261.031 355.82 261.291C355.629 261.58 355.353 261.803 355.03 261.931C354.692 262.063 354.323 262.094 353.967 262.02C353.612 261.945 353.286 261.768 353.03 261.511C352.855 261.346 352.642 261.228 352.41 261.166C352.177 261.105 351.933 261.103 351.7 261.161C351.442 261.235 351.203 261.365 351 261.541C350.77 261.711 350.53 261.901 350.26 262.051Z" fill="white"/>
<path d="M313.05 272.331C313.2 272.061 313.39 271.821 313.56 271.561C313.744 271.272 314.008 271.042 314.32 270.901C314.658 270.748 315.033 270.7 315.398 270.762C315.764 270.825 316.102 270.995 316.37 271.251C316.537 271.426 316.746 271.555 316.977 271.627C317.208 271.699 317.453 271.71 317.69 271.661C317.952 271.598 318.195 271.475 318.4 271.301C318.65 271.131 318.89 270.951 319.17 270.791C319.01 271.071 318.83 271.311 318.66 271.561C318.467 271.851 318.192 272.077 317.87 272.211C317.532 272.344 317.163 272.375 316.807 272.3C316.452 272.225 316.126 272.048 315.87 271.791C315.695 271.626 315.482 271.508 315.249 271.447C315.017 271.385 314.773 271.383 314.54 271.441C314.282 271.516 314.043 271.645 313.84 271.821C313.56 271.991 313.32 272.181 313.05 272.331Z" fill="white"/>
<path d="M361.05 285.871C361.21 285.601 361.39 285.361 361.56 285.101C361.747 284.814 362.01 284.585 362.32 284.441C362.658 284.288 363.033 284.24 363.398 284.302C363.764 284.365 364.102 284.535 364.37 284.791C364.537 284.965 364.746 285.094 364.977 285.166C365.208 285.237 365.453 285.249 365.69 285.201C365.95 285.14 366.193 285.02 366.4 284.851C366.66 284.671 366.9 284.491 367.17 284.331C367.02 284.611 366.83 284.851 366.66 285.111C366.467 285.395 366.196 285.617 365.88 285.751C365.542 285.882 365.173 285.913 364.818 285.838C364.462 285.763 364.137 285.587 363.88 285.331C363.707 285.167 363.495 285.049 363.264 284.988C363.034 284.927 362.792 284.924 362.56 284.981C362.298 285.053 362.055 285.183 361.85 285.361C361.55 285.531 361.31 285.721 361.05 285.871Z" fill="white"/>
<path d="M366.46 249.281C366.61 249.001 366.8 248.761 366.97 248.501C367.159 248.216 367.422 247.988 367.73 247.841C368.068 247.688 368.443 247.64 368.809 247.702C369.174 247.765 369.512 247.935 369.78 248.191C369.947 248.365 370.156 248.494 370.387 248.566C370.618 248.637 370.863 248.649 371.1 248.601C371.36 248.54 371.603 248.42 371.81 248.251C372.07 248.081 372.31 247.891 372.58 247.731C372.43 248.011 372.24 248.251 372.07 248.511C371.879 248.8 371.603 249.023 371.28 249.151C370.942 249.283 370.573 249.315 370.217 249.24C369.862 249.165 369.536 248.988 369.28 248.731C369.107 248.567 368.895 248.449 368.664 248.388C368.434 248.327 368.192 248.324 367.96 248.381C367.698 248.453 367.456 248.583 367.25 248.761C366.97 248.941 366.73 249.131 366.46 249.281Z" fill="white"/>
<path d="M278.8 277.021C278.96 276.741 279.14 276.501 279.31 276.241C279.499 275.956 279.762 275.728 280.07 275.581C280.408 275.428 280.783 275.38 281.148 275.442C281.514 275.505 281.852 275.675 282.12 275.931C282.287 276.105 282.496 276.234 282.727 276.306C282.958 276.377 283.203 276.389 283.44 276.341C283.7 276.28 283.943 276.16 284.15 275.991C284.41 275.821 284.65 275.631 284.92 275.471C284.77 275.751 284.58 275.991 284.41 276.251C284.22 276.537 283.948 276.76 283.63 276.891C283.292 277.022 282.923 277.053 282.568 276.978C282.212 276.903 281.887 276.727 281.63 276.471C281.457 276.306 281.245 276.189 281.014 276.129C280.783 276.07 280.541 276.07 280.31 276.131C280.047 276.195 279.803 276.322 279.6 276.501C279.31 276.671 279.05 276.861 278.8 277.021Z" fill="white"/>
<path d="M276.05 219.93C276.2 219.66 276.39 219.42 276.56 219.16C276.749 218.873 277.011 218.642 277.32 218.49C277.659 218.339 278.035 218.293 278.4 218.357C278.765 218.421 279.103 218.593 279.37 218.85C279.537 219.025 279.746 219.154 279.977 219.224C280.209 219.294 280.454 219.303 280.69 219.25C280.953 219.199 281.198 219.078 281.4 218.9C281.66 218.73 281.9 218.54 282.17 218.39C282.014 218.656 281.844 218.913 281.66 219.16C281.468 219.448 281.197 219.673 280.88 219.81C280.542 219.942 280.173 219.972 279.818 219.898C279.462 219.823 279.137 219.647 278.88 219.39C278.708 219.224 278.497 219.105 278.266 219.044C278.034 218.982 277.792 218.981 277.56 219.04C277.298 219.113 277.055 219.243 276.85 219.42C276.57 219.59 276.33 219.78 276.05 219.93Z" fill="white"/>
<path d="M308.68 143.761C308.31 145.631 299.87 157.941 291.39 157.831C288.63 157.781 288.19 142.701 288.19 142.701L287.9 141.601L283.9 126.121L301.83 113.751L304.43 112.111C304.43 112.111 305.24 116.421 306.21 121.791C306.21 122.041 306.3 122.291 306.34 122.561C306.38 122.831 306.47 123.141 306.51 123.431C306.67 124.231 306.82 125.051 306.96 125.871C307.07 126.491 307.17 127.091 307.26 127.751C307.35 128.411 307.45 129.051 307.56 129.751C308.252 134.39 308.626 139.071 308.68 143.761Z" fill="#FFC4C0"/>
<path d="M306.21 121.791C304.778 126.223 302.398 130.291 299.236 133.712C296.074 137.132 292.206 139.824 287.9 141.601L283.9 126.121L301.83 113.751L304.43 112.111C304.43 112.111 305.24 116.421 306.21 121.791Z" fill="#263238"/>
<path d="M261.92 103.131C261.18 131.191 277.92 134.801 283.92 134.951C289.41 135.091 308.13 134.871 311.77 107.041C315.41 79.2107 302.59 70.0407 290.05 69.0407C277.51 68.0407 262.66 75.0707 261.92 103.131Z" fill="#FFC4C0"/>
<path d="M266.18 94.6406C266.84 94.5306 267.42 94.3306 268.06 94.1606C268.743 94.0772 269.382 93.7756 269.88 93.3006C270.008 93.1203 270.072 92.9028 270.063 92.6821C270.054 92.4614 269.972 92.2499 269.83 92.0806C269.497 91.7901 269.093 91.5935 268.659 91.5109C268.225 91.4283 267.776 91.4627 267.36 91.6106C266.474 91.778 265.682 92.2701 265.14 92.9906C265.026 93.1623 264.965 93.3632 264.963 93.5691C264.96 93.775 265.018 93.9772 265.127 94.1513C265.237 94.3255 265.395 94.4643 265.582 94.5511C265.768 94.6379 265.976 94.669 266.18 94.6406Z" fill="#263238"/>
<path d="M284.94 98.7406C284.295 98.6697 283.654 98.5629 283.02 98.4206C282.335 98.4019 281.675 98.1596 281.14 97.7306C280.997 97.5624 280.913 97.3515 280.902 97.1308C280.891 96.9101 280.954 96.692 281.08 96.5106C281.386 96.191 281.771 95.9586 282.196 95.8374C282.622 95.7161 283.072 95.7103 283.5 95.8206C284.398 95.9129 285.229 96.3373 285.83 97.0106C285.961 97.1704 286.043 97.3652 286.065 97.5708C286.086 97.7764 286.048 97.984 285.953 98.1678C285.859 98.3517 285.712 98.5039 285.532 98.6057C285.352 98.7075 285.146 98.7543 284.94 98.7406Z" fill="#263238"/>
<path d="M270.32 103.771C270.32 103.701 270.18 103.871 270.18 103.951C270.37 105.851 270.27 108.061 268.59 108.811C268.53 108.811 268.59 108.931 268.59 108.921C270.69 108.481 270.8 105.541 270.32 103.771Z" fill="#263238"/>
<path d="M268.48 101.891C265.4 101.891 265.57 108.031 268.43 108.061C271.29 108.091 271.05 101.921 268.48 101.891Z" fill="#263238"/>
<path d="M267.21 102.341C266.73 102.681 266.27 103.281 265.68 103.341C265.09 103.401 264.49 102.751 264.04 102.121C264.04 102.061 263.95 102.121 263.95 102.191C263.95 103.371 264.38 104.591 265.51 104.781C266.64 104.971 267.28 103.931 267.51 102.781C267.58 102.531 267.4 102.201 267.21 102.341Z" fill="#263238"/>
<path d="M282.87 120.101C282.4 120.531 281.92 121.101 281.22 121.171C280.522 121.124 279.841 120.934 279.22 120.611C279.206 120.604 279.191 120.602 279.176 120.605C279.161 120.608 279.148 120.615 279.137 120.627C279.127 120.638 279.121 120.652 279.12 120.667C279.118 120.683 279.122 120.698 279.13 120.711C279.391 121.098 279.752 121.406 280.175 121.604C280.597 121.801 281.066 121.879 281.53 121.831C281.925 121.747 282.286 121.545 282.564 121.253C282.843 120.96 283.026 120.59 283.09 120.191C283.05 120.081 282.94 120.041 282.87 120.101Z" fill="#263238"/>
<path d="M273.31 112.431C273.31 112.431 273.09 115.291 273.16 116.631C275.779 116.487 278.405 116.716 280.96 117.311C281.56 117.471 281.52 116.981 280.84 116.621C278.814 115.565 276.519 115.14 274.25 115.401C274.13 115.031 274.68 111.001 274.47 111.001C273.436 111.152 272.427 111.442 271.47 111.861C271.77 105.861 273.03 100.021 273.24 94.0707C273.243 94.0271 273.23 93.9839 273.203 93.9493C273.177 93.9146 273.139 93.8907 273.096 93.8822C273.053 93.8736 273.008 93.8809 272.971 93.9027C272.933 93.9245 272.904 93.9593 272.89 94.0007C271.13 100.071 270.63 106.931 270.16 113.091C270.1 113.851 272.79 112.691 273.31 112.431Z" fill="#263238"/>
<path d="M286.66 103.871C285.537 103.43 284.308 103.333 283.13 103.591C282.498 103.734 281.901 103.999 281.37 104.371C280.823 104.779 280.375 105.305 280.06 105.911L279.47 107.001L280.68 106.871C281.531 106.78 282.389 106.78 283.24 106.871C284.128 106.948 284.982 107.251 285.72 107.751C285.237 106.867 284.425 106.21 283.46 105.921C282.52 105.61 281.526 105.498 280.54 105.591L281.16 106.591C281.678 105.723 282.474 105.056 283.42 104.701C284.461 104.29 285.55 104.012 286.66 103.871Z" fill="#263238"/>
<path d="M283.19 108.841C282.285 108.628 281.413 108.292 280.6 107.841C280.41 107.721 279.68 107.171 279.72 107.011C279.823 106.546 279.985 106.095 280.2 105.671C279.864 106.048 279.609 106.491 279.45 106.971C279.506 107.235 279.619 107.484 279.781 107.7C279.944 107.916 280.152 108.094 280.39 108.221C281.25 108.677 282.218 108.892 283.19 108.841Z" fill="#263238"/>
<path d="M276.55 116.431C276.55 116.431 278.29 118.931 280.29 119.231C282.59 119.591 282.86 117.521 280.29 116.341C278.99 115.731 276.55 116.431 276.55 116.431Z" fill="#263238"/>
<path d="M280.28 119.28C279.408 119.1 278.607 118.673 277.97 118.05C278.45 117.34 279.55 116.55 282.02 117.88C282.38 118.72 281.74 119.46 280.28 119.28Z" fill="#FF99BA"/>
<path d="M311.6 107.711C306.98 108.291 305.44 98.6206 305.44 98.6206C305.44 98.6206 296.02 99.1006 292.25 85.7006C292.718 89.7489 294.358 93.5722 296.97 96.7006C296.97 96.7006 280.26 95.7006 272.59 82.1706C272.59 82.1706 275.73 89.1206 278.47 91.5106C278.47 91.5106 271.4 89.9106 267.73 84.4106C267.73 84.4106 265.21 92.5806 263.08 94.9106C263.08 94.9106 262.35 65.8006 289.44 67.5806C289.44 67.5806 306.36 67.8806 313.07 80.9406C319.78 94.0006 311.6 107.711 311.6 107.711Z" fill="#263238"/>
<path d="M307.28 109.07C307.28 109.07 312.87 99.9604 316.97 101.9C321.07 103.84 317.23 116.8 312.68 118.81C312.114 119.11 311.494 119.291 310.856 119.344C310.218 119.397 309.576 119.321 308.969 119.119C308.361 118.917 307.801 118.594 307.322 118.17C306.842 117.746 306.454 117.229 306.18 116.65L307.28 109.07Z" fill="#FFC4C0"/>
<path d="M315.78 105.591C315.85 105.591 315.87 105.681 315.78 105.711C312.59 107.231 311.06 110.361 310.04 113.581C310.94 112.311 312.22 111.581 313.91 112.581C314 112.631 313.91 112.771 313.83 112.761C313.246 112.611 312.629 112.647 312.067 112.864C311.504 113.08 311.023 113.467 310.69 113.971C310.13 114.809 309.667 115.708 309.31 116.651C309.17 116.951 308.64 116.831 308.73 116.491C308.724 116.464 308.724 116.437 308.73 116.411C308.45 112.281 311.33 106.281 315.78 105.591Z" fill="#263238"/>
<path d="M310.05 117.351C310.064 117.61 310.155 117.858 310.311 118.066C310.467 118.273 310.681 118.429 310.926 118.515C311.17 118.6 311.435 118.611 311.686 118.546C311.937 118.482 312.163 118.343 312.336 118.15C312.508 117.956 312.62 117.716 312.655 117.459C312.691 117.202 312.65 116.94 312.537 116.707C312.424 116.474 312.244 116.279 312.02 116.148C311.797 116.017 311.539 115.955 311.28 115.971C311.108 115.98 310.94 116.022 310.785 116.097C310.63 116.171 310.491 116.276 310.377 116.404C310.263 116.532 310.175 116.682 310.119 116.844C310.063 117.007 310.039 117.179 310.05 117.351Z" fill="white"/>
<path d="M313.19 115.18C313.198 115.347 313.256 115.507 313.355 115.64C313.454 115.774 313.591 115.875 313.748 115.931C313.905 115.986 314.075 115.994 314.236 115.953C314.397 115.912 314.543 115.824 314.654 115.7C314.765 115.576 314.837 115.422 314.861 115.257C314.884 115.093 314.858 114.925 314.786 114.775C314.714 114.625 314.598 114.5 314.455 114.415C314.312 114.331 314.146 114.291 313.98 114.301C313.87 114.306 313.762 114.332 313.663 114.38C313.563 114.427 313.474 114.493 313.401 114.575C313.327 114.657 313.271 114.753 313.235 114.857C313.198 114.961 313.183 115.071 313.19 115.18Z" fill="white"/>
<path d="M222.191 169.756L207.668 173.13L218.115 218.092L232.638 214.718L222.191 169.756Z" fill="#EBEBEB"/>
<path d="M186.79 50.4106C174.656 53.2336 163.632 59.5906 155.11 68.678C146.589 77.7654 140.953 89.1753 138.915 101.465C136.877 113.755 138.528 126.374 143.66 137.725C148.792 149.077 157.175 158.652 167.748 165.24C178.321 171.829 190.61 175.135 203.062 174.74C215.513 174.346 227.568 170.268 237.703 163.023C247.838 155.779 255.597 145.692 260 134.038C264.403 122.384 265.252 109.687 262.44 97.5506C260.571 89.4862 257.132 81.8692 252.318 75.1348C247.504 68.4005 241.41 62.6809 234.384 58.303C227.359 53.9251 219.539 50.9747 211.373 49.6205C203.206 48.2662 194.853 48.5347 186.79 50.4106ZM212.31 160.281C202.723 162.51 192.69 161.847 183.48 158.374C174.27 154.901 166.297 148.775 160.57 140.77C154.842 132.766 151.617 123.242 151.302 113.404C150.988 103.566 153.598 93.8562 158.803 85.502C164.008 77.1478 171.573 70.5248 180.542 66.4709C189.512 62.4169 199.482 61.114 209.192 62.727C218.901 64.3401 227.915 68.7965 235.091 75.5327C242.268 82.2689 247.286 90.9822 249.51 100.571C252.491 113.421 250.247 126.93 243.271 138.127C236.295 149.323 225.159 157.292 212.31 160.281Z" fill="#A6A6A6"/>
<path d="M227.147 201.994L217.407 204.258C214.034 205.041 211.935 208.411 212.719 211.784L225.177 265.406C225.961 268.779 229.33 270.878 232.703 270.094L242.444 267.831C245.817 267.047 247.916 263.677 247.132 260.305L234.674 206.683C233.89 203.31 230.52 201.211 227.147 201.994Z" fill="#263238"/>
<g opacity="0.3">
<path opacity="0.3" d="M249.51 100.55C251.733 110.135 251.064 120.163 247.588 129.368C244.111 138.572 237.984 146.539 229.98 152.261C221.976 157.983 212.456 161.204 202.622 161.515C192.788 161.827 183.082 159.216 174.732 154.012C166.382 148.808 159.763 141.244 155.711 132.279C151.659 123.313 150.357 113.347 151.968 103.641C153.58 93.9349 158.033 84.9247 164.766 77.7496C171.498 70.5745 180.206 65.5566 189.79 63.3305C196.155 61.8506 202.75 61.6395 209.197 62.7094C215.644 63.7792 221.816 66.109 227.363 69.5656C232.909 73.0221 237.719 77.5377 241.519 82.8543C245.32 88.1708 248.035 94.1841 249.51 100.55Z" fill="white"/>
<path opacity="0.3" d="M250.73 114.571C249.996 127.668 244.121 139.946 234.384 148.735C224.647 157.525 211.834 162.116 198.73 161.511L250.73 114.571Z" fill="#EBEBEB"/>
<path opacity="0.3" d="M227.84 69.8804L156.61 134.17C154.838 130.64 153.495 126.91 152.61 123.06C151.573 118.65 151.156 114.116 151.37 109.59L203.96 62.1204C212.453 62.62 220.676 65.292 227.84 69.8804Z" fill="#EBEBEB"/>
<path opacity="0.3" d="M248.14 95.7804L180.29 157.01C177.325 155.648 174.501 153.997 171.86 152.08L244.11 86.8804C245.752 89.7027 247.102 92.6847 248.14 95.7804Z" fill="#EBEBEB"/>
<path opacity="0.3" d="M233.31 73.9405L160.05 140.041C159.71 139.541 159.37 139.041 159.05 138.531L231.89 72.8005C232.39 73.1605 232.86 73.5305 233.31 73.9405Z" fill="#EBEBEB"/>
<path opacity="0.3" d="M187.37 63.9604L154.87 93.2805C155.42 91.8905 156.04 90.5304 156.72 89.2104L183.15 65.3505C184.52 64.8405 185.93 64.3704 187.37 63.9604Z" fill="#EBEBEB"/>
</g>
<path d="M165.73 120.41C165.725 120.344 165.725 120.277 165.73 120.21C165.55 119.21 165.86 121.16 165.73 120.51C165.6 119.86 165.53 118.97 165.47 118.2C165.24 115.485 165.24 112.756 165.47 110.04C165.47 109.65 165.54 109.27 165.57 108.89C165.57 108.77 165.46 109.79 165.57 108.98L165.66 108.28C165.78 107.38 165.93 106.48 166.11 105.59C166.489 103.628 167 101.694 167.64 99.8004C167.79 99.3504 167.96 98.9004 168.12 98.4504C168.33 97.8404 167.84 99.1204 168.17 98.3204L168.5 97.5304C168.93 96.5304 169.4 95.5304 169.9 94.5304C170.4 93.5304 171.05 92.4604 171.68 91.4704C171.98 91.0104 172.28 90.5604 172.59 90.1104C173.12 89.3404 172.34 90.4204 172.75 89.8804L173.34 89.1004C175.161 86.8113 177.197 84.7016 179.42 82.8004C179.42 82.8004 179.88 82.4304 179.54 82.7104C179.2 82.9904 179.72 82.5604 179.78 82.5104L180.78 81.7204C181.45 81.2204 182.13 80.7204 182.83 80.2804C184.296 79.3004 185.812 78.3959 187.37 77.5704C187.788 77.3078 188.149 76.9655 188.435 76.563C188.72 76.1606 188.923 75.7058 189.033 75.2248C189.142 74.7438 189.156 74.2459 189.073 73.7596C188.99 73.2733 188.813 72.808 188.55 72.3904C188.287 71.9728 187.945 71.611 187.543 71.3257C187.14 71.0404 186.685 70.8372 186.204 70.7276C185.723 70.6181 185.226 70.6043 184.739 70.6871C184.253 70.77 183.788 70.9478 183.37 71.2104C173.49 76.4804 165.37 84.8004 161.29 95.2904C158.528 102.345 157.35 109.92 157.84 117.48C157.94 119.16 158.154 120.83 158.48 122.48C158.765 123.432 159.415 124.233 160.288 124.707C161.161 125.181 162.187 125.29 163.14 125.01C164.078 124.702 164.862 124.046 165.333 123.178C165.803 122.31 165.924 121.295 165.67 120.34L165.73 120.41Z" fill="white"/>
<path d="M169.05 131.051C169.257 131.748 169.252 132.491 169.037 133.186C168.822 133.881 168.405 134.497 167.84 134.955C167.275 135.413 166.587 135.694 165.862 135.761C165.138 135.829 164.409 135.68 163.77 135.333C163.13 134.987 162.607 134.458 162.267 133.815C161.928 133.171 161.787 132.442 161.861 131.718C161.936 130.994 162.224 130.309 162.689 129.749C163.153 129.189 163.773 128.779 164.47 128.571C164.934 128.431 165.42 128.384 165.902 128.434C166.383 128.483 166.85 128.627 167.276 128.857C167.702 129.088 168.078 129.4 168.382 129.777C168.687 130.153 168.914 130.586 169.05 131.051Z" fill="white"/>
<path d="M328.18 162.581C337.18 195.121 341.5 227.791 336.52 244.641C333.34 255.381 325.67 262.641 320.79 265.041C309.38 270.681 271.53 262.681 246.87 257.721C240.81 256.501 255.1 207.671 261.19 210.261C270.19 214.071 297.74 219.211 298.5 219.461C300.13 220.021 303.5 184.711 305.88 164.011C309.17 135.171 322.99 143.791 328.18 162.581Z" fill="#FFC4C0"/>
<path d="M199.48 200.961C196.8 205.331 200.28 209.331 200.28 209.331C197.995 210.473 196.184 212.38 195.16 214.721C193.55 218.921 199.43 223.291 199.43 223.291C197.308 224.968 195.743 227.248 194.94 229.831C193.8 234.011 199.11 239.261 199.11 239.261C198.013 241.878 197.896 244.804 198.78 247.501C201.43 254.611 212.78 256.941 219.98 258.501C227.18 260.061 249.06 257.701 253.28 257.681L263.63 211.551C263.63 211.551 233.32 195.401 224.63 194.781C217.24 194.281 202.49 196.061 199.48 200.961Z" fill="#FFC4C0"/>
<path d="M200.76 208.661C208.76 207.351 216.62 208.451 224.57 209.101C224.607 209.101 224.643 209.115 224.669 209.142C224.695 209.168 224.71 209.204 224.71 209.241C224.71 209.278 224.695 209.313 224.669 209.34C224.643 209.366 224.607 209.381 224.57 209.381C216.66 208.641 208.71 209.471 200.8 209.051C200.754 209.046 200.711 209.026 200.678 208.993C200.646 208.961 200.625 208.918 200.621 208.872C200.616 208.826 200.627 208.78 200.653 208.741C200.678 208.703 200.716 208.674 200.76 208.661Z" fill="#263238"/>
<path d="M199.72 222.721C201.554 222.593 203.397 222.711 205.2 223.071C207.127 223.324 209.05 223.611 210.97 223.931C214.817 224.597 218.643 225.334 222.45 226.141C222.62 226.141 222.61 226.441 222.45 226.411C218.61 225.781 214.77 225.211 210.92 224.741C208.99 224.501 207.06 224.291 205.12 224.081C203.285 224.006 201.464 223.728 199.69 223.251C199.636 223.229 199.589 223.19 199.558 223.141C199.526 223.092 199.511 223.033 199.514 222.975C199.518 222.916 199.539 222.86 199.576 222.815C199.613 222.769 199.663 222.736 199.72 222.721Z" fill="#263238"/>
<path d="M199.27 239.281C200.83 239.011 202.65 239.571 204.19 239.861C205.94 240.191 207.68 240.501 209.43 240.811C212.93 241.431 216.43 242.041 219.95 242.541C220.12 242.541 220.1 242.841 219.95 242.811C216.37 242.331 212.79 241.891 209.22 241.381C207.47 241.131 205.71 240.861 203.96 240.591C202.47 240.361 200.59 240.241 199.26 239.461C199.244 239.451 199.23 239.438 199.221 239.421C199.212 239.405 199.207 239.386 199.208 239.367C199.209 239.349 199.216 239.33 199.227 239.315C199.238 239.3 199.253 239.288 199.27 239.281Z" fill="#263238"/>
<path d="M209.36 196.181C205.73 196.651 201.57 197.451 199.22 200.541C198.134 201.851 197.599 203.533 197.73 205.231C197.937 206.816 198.737 208.263 199.97 209.281C198.519 209.748 197.23 210.615 196.25 211.783C195.27 212.95 194.639 214.371 194.43 215.881C194.369 216.637 194.465 217.397 194.711 218.115C194.957 218.832 195.348 219.491 195.86 220.051C196.36 220.641 196.93 221.161 197.48 221.701C198.03 222.241 198.64 222.701 199.21 223.171C198.594 223.652 198.015 224.18 197.48 224.751C196.88 225.327 196.34 225.964 195.87 226.651C194.897 228.011 194.347 229.629 194.29 231.301C194.373 232.962 194.951 234.56 195.95 235.891C196.762 237.266 197.907 238.415 199.28 239.231C199.297 239.239 199.317 239.241 199.335 239.236C199.354 239.231 199.37 239.22 199.381 239.204C199.392 239.188 199.397 239.169 199.395 239.15C199.393 239.131 199.384 239.114 199.37 239.101C198.291 238.116 197.376 236.964 196.66 235.691C195.795 234.332 195.321 232.761 195.29 231.151C195.422 229.624 195.938 228.155 196.79 226.881C197.214 226.189 197.674 225.522 198.17 224.881C198.664 224.356 199.125 223.802 199.55 223.221C199.55 223.221 198.36 221.961 197.94 221.421C197.52 220.881 197.11 220.301 196.73 219.711C195.925 218.591 195.568 217.21 195.73 215.841C195.966 214.562 196.547 213.373 197.41 212.401C198.25 211.401 199.34 210.611 200.22 209.631C200.252 209.579 200.272 209.521 200.281 209.461C200.289 209.401 200.286 209.339 200.27 209.281C198.27 206.161 198.52 203.201 200.66 200.891C201.75 199.77 203.026 198.847 204.43 198.161C206.046 197.426 207.718 196.821 209.43 196.351C209.5 196.341 209.47 196.171 209.36 196.181Z" fill="#263238"/>
<path d="M275.66 263.371C273.53 262.711 271.28 262.371 269.1 261.891C266.92 261.411 264.72 260.961 262.52 260.521C260.32 260.081 258.03 259.641 255.79 259.221C253.55 258.801 251.46 258.331 249.28 258.071C247.175 257.867 245.054 257.914 242.96 258.211C240.847 258.451 238.727 258.621 236.6 258.721C232.315 258.927 228.022 258.834 223.75 258.441C218.917 257.992 214.13 257.139 209.44 255.891C209.34 255.891 209.31 256.011 209.44 256.041C217.572 258.755 226.097 260.107 234.67 260.041C236.79 260.041 238.92 259.911 241.03 259.701C243.138 259.401 245.262 259.221 247.39 259.161C249.64 259.309 251.875 259.644 254.07 260.161C256.28 260.571 258.48 260.991 260.69 261.381C263.19 261.821 265.69 262.271 268.2 262.661C270.71 263.051 273.2 263.611 275.66 263.791C275.84 263.751 275.85 263.421 275.66 263.371Z" fill="#263238"/>
<path d="M306.72 221.481C303.52 220.391 300.14 219.711 296.85 218.921C293.56 218.131 290.23 217.371 286.92 216.621C280.6 215.191 274.2 213.981 267.92 212.231C266.27 211.771 264.64 211.231 263.03 210.691C262.22 210.401 261.43 210.081 260.64 209.691C259.85 209.301 258.94 209.061 258.16 208.691C258.07 208.631 258 208.771 258.09 208.831C258.72 209.221 259.3 209.691 259.95 210.071C260.6 210.451 261.39 210.831 262.13 211.171C263.483 211.789 264.868 212.333 266.28 212.801C269.22 213.801 272.28 214.491 275.28 215.191C281.88 216.701 288.49 218.191 295.11 219.621C296.97 220.021 298.84 220.421 300.71 220.791C302.58 221.161 304.62 221.621 306.6 221.841C306.647 221.854 306.697 221.848 306.74 221.825C306.783 221.802 306.815 221.764 306.831 221.718C306.846 221.671 306.843 221.621 306.823 221.577C306.802 221.533 306.765 221.498 306.72 221.481Z" fill="#263238"/>
<path d="M296.31 209.381L342.05 215.601C342.05 215.601 333.69 168.051 324.8 152.301C316.03 136.761 306.35 147.03 302.66 165.83C298.52 186.67 296.31 209.381 296.31 209.381Z" fill="#37474F"/>
<path d="M338.62 208.711C337.34 208.411 336.03 208.221 334.75 207.941C333.47 207.661 332.24 207.471 330.98 207.271C328.41 206.871 325.83 206.511 323.25 206.161C318.17 205.461 313.1 204.691 308 204.161C305.1 203.841 302.21 203.411 299.31 203.161C299.289 203.161 299.268 203.169 299.253 203.184C299.238 203.199 299.23 203.219 299.23 203.241C299.23 203.262 299.238 203.282 299.253 203.297C299.268 203.312 299.289 203.321 299.31 203.321C304.36 204.501 309.51 205.381 314.63 206.211C319.75 207.041 324.79 207.821 329.89 208.381C331.32 208.531 332.75 208.721 334.19 208.791C335.63 208.861 337.14 208.991 338.61 209.021C338.651 209.022 338.691 209.007 338.721 208.979C338.751 208.951 338.769 208.912 338.77 208.871C338.771 208.83 338.756 208.79 338.728 208.76C338.7 208.73 338.661 208.712 338.62 208.711Z" fill="#263238"/>
</svg>
