<svg id="svg" class="path" title="background" version="1.1" xmlns="http://www.w3.org/2000/svg" style="background-color: rgb(235, 39, 0);"><path fill="#e52505" stroke="#e52505" d="M -198 800 L -198 0 C -60 0, -60 -149, 78 -149 C 216 -149, 216 149, 354 149 C 492 149, 492 -149, 630 -149 C 768 -149, 768 149, 906 149 C 1044 149, 1044 -149, 1182 -149 C 1320 -149, 1320 149, 1458 149 L 1564 0 L 1564 800 Z"></path><path fill="#de2309" stroke="#de2309" d="M -198 800 L -204 18 C -66 18, -66 -131, 72 -131 C 210 -131, 210 167, 348 167 C 486 167, 486 -131, 624 -131 C 762 -131, 762 167, 900 167 C 1038 167, 1038 -131, 1176 -131 C 1314 -131, 1314 167, 1452 167 L 1564 18 L 1564 800 Z"></path><path fill="#d8210d" stroke="#d8210d" d="M -198 800 L -210 36 C -72 36, -72 -113, 66 -113 C 204 -113, 204 185, 342 185 C 480 185, 480 -113, 618 -113 C 756 -113, 756 185, 894 185 C 1032 185, 1032 -113, 1170 -113 C 1308 -113, 1308 185, 1446 185 L 1564 36 L 1564 800 Z"></path><path fill="#d11f10" stroke="#d11f10" d="M -198 800 L -216 54 C -78 54, -78 -95, 60 -95 C 198 -95, 198 203, 336 203 C 474 203, 474 -95, 612 -95 C 750 -95, 750 203, 888 203 C 1026 203, 1026 -95, 1164 -95 C 1302 -95, 1302 203, 1440 203 L 1564 54 L 1564 800 Z"></path><path fill="#cb1e12" stroke="#cb1e12" d="M -198 800 L -222 72 C -84 72, -84 -77, 54 -77 C 192 -77, 192 221, 330 221 C 468 221, 468 -77, 606 -77 C 744 -77, 744 221, 882 221 C 1020 221, 1020 -77, 1158 -77 C 1296 -77, 1296 221, 1434 221 L 1564 72 L 1564 800 Z"></path><path fill="#c41c14" stroke="#c41c14" d="M -198 800 L -228 91 C -90 91, -90 -58, 48 -58 C 186 -58, 186 240, 324 240 C 462 240, 462 -58, 600 -58 C 738 -58, 738 240, 876 240 C 1014 240, 1014 -58, 1152 -58 C 1290 -58, 1290 240, 1428 240 L 1564 91 L 1564 800 Z"></path><path fill="#be1b15" stroke="#be1b15" d="M -198 800 L -234 109 C -96 109, -96 -40, 42 -40 C 180 -40, 180 258, 318 258 C 456 258, 456 -40, 594 -40 C 732 -40, 732 258, 870 258 C 1008 258, 1008 -40, 1146 -40 C 1284 -40, 1284 258, 1422 258 L 1564 109 L 1564 800 Z"></path><path fill="#b71a17" stroke="#b71a17" d="M -198 800 L -240 127 C -102 127, -102 -22, 36 -22 C 174 -22, 174 276, 312 276 C 450 276, 450 -22, 588 -22 C 726 -22, 726 276, 864 276 C 1002 276, 1002 -22, 1140 -22 C 1278 -22, 1278 276, 1416 276 L 1564 127 L 1564 800 Z"></path><path fill="#b11918" stroke="#b11918" d="M -198 800 L -246 145 C -108 145, -108 -4, 30 -4 C 168 -4, 168 294, 306 294 C 444 294, 444 -4, 582 -4 C 720 -4, 720 294, 858 294 C 996 294, 996 -4, 1134 -4 C 1272 -4, 1272 294, 1410 294 L 1564 145 L 1564 800 Z"></path><path fill="#aa1819" stroke="#aa1819" d="M -198 800 L -252 164 C -114 164, -114 15, 24 15 C 162 15, 162 313, 300 313 C 438 313, 438 15, 576 15 C 714 15, 714 313, 852 313 C 990 313, 990 15, 1128 15 C 1266 15, 1266 313, 1404 313 L 1564 164 L 1564 800 Z"></path><path fill="#a41819" stroke="#a41819" d="M -198 800 L -258 182 C -120 182, -120 33, 18 33 C 156 33, 156 331, 294 331 C 432 331, 432 33, 570 33 C 708 33, 708 331, 846 331 C 984 331, 984 33, 1122 33 C 1260 33, 1260 331, 1398 331 L 1564 182 L 1564 800 Z"></path><path fill="#9d171a" stroke="#9d171a" d="M -198 800 L -264 200 C -126 200, -126 51, 12 51 C 150 51, 150 349, 288 349 C 426 349, 426 51, 564 51 C 702 51, 702 349, 840 349 C 978 349, 978 51, 1116 51 C 1254 51, 1254 349, 1392 349 L 1564 200 L 1564 800 Z"></path><path fill="#97171a" stroke="#97171a" d="M -198 800 L -270 218 C -132 218, -132 69, 6 69 C 144 69, 144 367, 282 367 C 420 367, 420 69, 558 69 C 696 69, 696 367, 834 367 C 972 367, 972 69, 1110 69 C 1248 69, 1248 367, 1386 367 L 1564 218 L 1564 800 Z"></path><path fill="#90161a" stroke="#90161a" d="M -198 800 L -276 237 C -138 237, -138 88, 0 88 C 138 88, 138 386, 276 386 C 414 386, 414 88, 552 88 C 690 88, 690 386, 828 386 C 966 386, 966 88, 1104 88 C 1242 88, 1242 386, 1380 386 L 1564 237 L 1564 800 Z"></path><path fill="#8a161a" stroke="#8a161a" d="M -198 800 L -282 255 C -144 255, -144 106, -6 106 C 132 106, 132 404, 270 404 C 408 404, 408 106, 546 106 C 684 106, 684 404, 822 404 C 960 404, 960 106, 1098 106 C 1236 106, 1236 404, 1374 404 L 1564 255 L 1564 800 Z"></path><path fill="#83161a" stroke="#83161a" d="M -198 800 L -288 273 C -150 273, -150 124, -12 124 C 126 124, 126 422, 264 422 C 402 422, 402 124, 540 124 C 678 124, 678 422, 816 422 C 954 422, 954 124, 1092 124 C 1230 124, 1230 422, 1368 422 L 1564 273 L 1564 800 Z"></path><path fill="#7d151a" stroke="#7d151a" d="M -198 800 L -294 291 C -156 291, -156 142, -18 142 C 120 142, 120 440, 258 440 C 396 440, 396 142, 534 142 C 672 142, 672 440, 810 440 C 948 440, 948 142, 1086 142 C 1224 142, 1224 440, 1362 440 C 1500 440, 1500 142, 1638 142 L 1564 291 L 1564 800 Z"></path><path fill="#76151a" stroke="#76151a" d="M -198 800 L -300 310 C -162 310, -162 161, -24 161 C 114 161, 114 459, 252 459 C 390 459, 390 161, 528 161 C 666 161, 666 459, 804 459 C 942 459, 942 161, 1080 161 C 1218 161, 1218 459, 1356 459 C 1494 459, 1494 161, 1632 161 L 1564 310 L 1564 800 Z"></path><path fill="#70151a" stroke="#70151a" d="M -198 800 L -306 328 C -168 328, -168 179, -30 179 C 108 179, 108 477, 246 477 C 384 477, 384 179, 522 179 C 660 179, 660 477, 798 477 C 936 477, 936 179, 1074 179 C 1212 179, 1212 477, 1350 477 C 1488 477, 1488 179, 1626 179 L 1564 328 L 1564 800 Z"></path><path fill="#691519" stroke="#691519" d="M -198 800 L -312 346 C -174 346, -174 197, -36 197 C 102 197, 102 495, 240 495 C 378 495, 378 197, 516 197 C 654 197, 654 495, 792 495 C 930 495, 930 197, 1068 197 C 1206 197, 1206 495, 1344 495 C 1482 495, 1482 197, 1620 197 L 1564 346 L 1564 800 Z"></path><path fill="#631419" stroke="#631419" d="M -198 800 L -318 364 C -180 364, -180 215, -42 215 C 96 215, 96 513, 234 513 C 372 513, 372 215, 510 215 C 648 215, 648 513, 786 513 C 924 513, 924 215, 1062 215 C 1200 215, 1200 513, 1338 513 C 1476 513, 1476 215, 1614 215 L 1564 364 L 1564 800 Z"></path><path fill="#5d1418" stroke="#5d1418" d="M -198 800 L -324 383 C -186 383, -186 234, -48 234 C 90 234, 90 532, 228 532 C 366 532, 366 234, 504 234 C 642 234, 642 532, 780 532 C 918 532, 918 234, 1056 234 C 1194 234, 1194 532, 1332 532 C 1470 532, 1470 234, 1608 234 L 1564 383 L 1564 800 Z"></path><path fill="#561418" stroke="#561418" d="M -198 800 L -330 401 C -192 401, -192 252, -54 252 C 84 252, 84 550, 222 550 C 360 550, 360 252, 498 252 C 636 252, 636 550, 774 550 C 912 550, 912 252, 1050 252 C 1188 252, 1188 550, 1326 550 C 1464 550, 1464 252, 1602 252 L 1564 401 L 1564 800 Z"></path><path fill="#501317" stroke="#501317" d="M -198 800 L -336 419 C -198 419, -198 270, -60 270 C 78 270, 78 568, 216 568 C 354 568, 354 270, 492 270 C 630 270, 630 568, 768 568 C 906 568, 906 270, 1044 270 C 1182 270, 1182 568, 1320 568 C 1458 568, 1458 270, 1596 270 L 1564 419 L 1564 800 Z"></path><path fill="#4a1316" stroke="#4a1316" d="M -198 800 L -342 437 C -204 437, -204 288, -66 288 C 72 288, 72 586, 210 586 C 348 586, 348 288, 486 288 C 624 288, 624 586, 762 586 C 900 586, 900 288, 1038 288 C 1176 288, 1176 586, 1314 586 C 1452 586, 1452 288, 1590 288 L 1564 437 L 1564 800 Z"></path><path fill="#441215" stroke="#441215" d="M -198 800 L -348 456 C -210 456, -210 307, -72 307 C 66 307, 66 605, 204 605 C 342 605, 342 307, 480 307 C 618 307, 618 605, 756 605 C 894 605, 894 307, 1032 307 C 1170 307, 1170 605, 1308 605 C 1446 605, 1446 307, 1584 307 L 1564 456 L 1564 800 Z"></path><path fill="#3e1214" stroke="#3e1214" d="M -198 800 L -354 474 C -216 474, -216 325, -78 325 C 60 325, 60 623, 198 623 C 336 623, 336 325, 474 325 C 612 325, 612 623, 750 623 C 888 623, 888 325, 1026 325 C 1164 325, 1164 623, 1302 623 C 1440 623, 1440 325, 1578 325 L 1564 474 L 1564 800 Z"></path><path fill="#381113" stroke="#381113" d="M -198 800 L -360 492 C -222 492, -222 343, -84 343 C 54 343, 54 641, 192 641 C 330 641, 330 343, 468 343 C 606 343, 606 641, 744 641 C 882 641, 882 343, 1020 343 C 1158 343, 1158 641, 1296 641 C 1434 641, 1434 343, 1572 343 L 1564 492 L 1564 800 Z"></path><path fill="#321011" stroke="#321011" d="M -198 800 L -366 510 C -228 510, -228 361, -90 361 C 48 361, 48 659, 186 659 C 324 659, 324 361, 462 361 C 600 361, 600 659, 738 659 C 876 659, 876 361, 1014 361 C 1152 361, 1152 659, 1290 659 C 1428 659, 1428 361, 1566 361 L 1564 510 L 1564 800 Z"></path><path fill="#2c0f0f" stroke="#2c0f0f" d="M -198 800 L -372 529 C -234 529, -234 380, -96 380 C 42 380, 42 678, 180 678 C 318 678, 318 380, 456 380 C 594 380, 594 678, 732 678 C 870 678, 870 380, 1008 380 C 1146 380, 1146 678, 1284 678 C 1422 678, 1422 380, 1560 380 L 1564 529 L 1564 800 Z"></path><path fill="#260e0d" stroke="#260e0d" d="M -198 800 L -378 547 C -240 547, -240 398, -102 398 C 36 398, 36 696, 174 696 C 312 696, 312 398, 450 398 C 588 398, 588 696, 726 696 C 864 696, 864 398, 1002 398 C 1140 398, 1140 696, 1278 696 C 1416 696, 1416 398, 1554 398 L 1564 547 L 1564 800 Z"></path><path fill="#210b0b" stroke="#210b0b" d="M -198 800 L -384 565 C -246 565, -246 416, -108 416 C 30 416, 30 714, 168 714 C 306 714, 306 416, 444 416 C 582 416, 582 714, 720 714 C 858 714, 858 416, 996 416 C 1134 416, 1134 714, 1272 714 C 1410 714, 1410 416, 1548 416 L 1564 565 L 1564 800 Z"></path><path fill="#1c0808" stroke="#1c0808" d="M -198 800 L -390 583 C -252 583, -252 434, -114 434 C 24 434, 24 732, 162 732 C 300 732, 300 434, 438 434 C 576 434, 576 732, 714 732 C 852 732, 852 434, 990 434 C 1128 434, 1128 732, 1266 732 C 1404 732, 1404 434, 1542 434 L 1564 583 L 1564 800 Z"></path><path fill="#150505" stroke="#150505" d="M -198 800 L -396 602 C -258 602, -258 453, -120 453 C 18 453, 18 751, 156 751 C 294 751, 294 453, 432 453 C 570 453, 570 751, 708 751 C 846 751, 846 453, 984 453 C 1122 453, 1122 751, 1260 751 C 1398 751, 1398 453, 1536 453 L 1564 602 L 1564 800 Z"></path></svg>