<svg width="389" height="358" viewBox="0 0 389 358" fill="none" xmlns="http://www.w3.org/2000/svg">
<g id="Group 63">
<g id="freepik  background simple  inject 79">
<path id="ellu5mlonchh" d="M343.023 59.5504C343.023 59.5504 316.223 6.8604 262.923 1.6104C209.623 -3.6396 174.643 37.2304 136.723 59.2204C116.873 70.7304 93.3633 67.8804 71.9733 74.0604C3.57326 93.7904 -17.2567 196.61 14.5733 252.79C42.1233 301.43 87.4133 325.12 154.633 327.65C221.853 330.18 269.153 334.74 326.533 282.7C383.913 230.66 374.653 129.01 343.023 59.5504Z" fill="#FF0000"/>
<g id="eleui6qpcrv8m">
<path id="Vector" opacity="0.7" d="M343.023 59.5504C343.023 59.5504 316.223 6.8604 262.923 1.6104C209.623 -3.6396 174.643 37.2304 136.723 59.2204C116.873 70.7304 93.3633 67.8804 71.9733 74.0604C3.57326 93.7904 -17.2567 196.61 14.5733 252.79C42.1233 301.43 87.4133 325.12 154.633 327.65C221.853 330.18 269.153 334.74 326.533 282.7C383.913 230.66 374.653 129.01 343.023 59.5504Z" fill="white"/>
</g>
</g>
<g id="freepik  Gears  inject 79">
<path id="elz77oj0vg8g" d="M329.733 135.2L341.733 133.79L343.553 120.5L332.283 115.89C332.053 111.544 331.295 107.243 330.023 103.08L339.213 94.9304L333.083 83.0004L321.013 85.7904C316.463 79.9557 310.744 75.136 304.223 71.6404L305.013 59.1104L292.223 55.0104L285.543 65.7304C281.339 65.2206 277.088 65.2206 272.883 65.7304L266.293 54.8904L253.473 58.8904L254.153 71.5704C250.419 73.5377 246.931 75.9412 243.763 78.7304L232.133 73.6304L223.913 84.2304L231.703 94.1804C230.326 96.8283 229.175 99.5882 228.263 102.43C227.873 103.63 227.543 104.85 227.263 106.06L214.913 108.54L214.253 121.94L226.163 125.6C226.719 129.86 227.786 134.037 229.343 138.04L220.813 147.04L227.963 158.4L239.623 154.65C242.554 157.873 245.869 160.724 249.493 163.14L247.723 175.14L260.093 180.34L267.403 170.74C271.699 171.713 276.1 172.143 280.503 172.02L285.913 182.76L299.023 179.93L299.513 167.93C303.594 166.235 307.45 164.042 310.993 161.4L321.563 167.08L330.673 157.24L324.203 147.13C326.53 143.396 328.387 139.389 329.733 135.2V135.2ZM310.913 128.91C308.892 135.217 305.046 140.783 299.862 144.904C294.677 149.026 288.387 151.517 281.787 152.064C275.187 152.611 268.573 151.189 262.781 147.977C256.989 144.766 252.279 139.909 249.247 134.021C246.215 128.133 244.997 121.478 245.746 114.898C246.496 108.318 249.18 102.108 253.459 97.0524C257.737 91.9972 263.419 88.3242 269.785 86.4976C276.151 84.671 282.915 84.7729 289.223 86.7904C293.414 88.1306 297.299 90.2835 300.658 93.126C304.016 95.9684 306.781 99.4447 308.795 103.356C310.81 107.268 312.033 111.538 312.397 115.923C312.76 120.307 312.256 124.721 310.913 128.91V128.91Z" fill="#FF0000"/>
<path id="eljax9lzta88" d="M75.2232 136.24L79.7332 135.71L80.4132 130.71L76.1833 128.98C76.0938 127.345 75.8084 125.727 75.3332 124.16L78.7832 121.1L76.4832 116.62L71.9432 117.62C70.2287 115.43 68.0762 113.622 65.6232 112.31L65.9132 107.6L61.1232 106.06L58.6032 110.06C57.0256 109.87 55.4309 109.87 53.8532 110.06L51.3732 105.99L46.5632 107.48L46.8132 112.25C45.413 112.992 44.1041 113.895 42.9132 114.94L38.5432 113.02L35.4532 117.02L38.3832 120.76C37.863 121.755 37.4281 122.792 37.0832 123.86C36.9432 124.31 36.8232 124.77 36.7032 125.23L32.0632 126.16L31.8232 131.16L36.2232 132.6C36.4302 134.204 36.8332 135.775 37.4232 137.28L34.2232 140.66L36.9032 144.92L41.2932 143.52C42.3947 144.732 43.6407 145.803 45.0032 146.71L44.3332 151.23L48.9832 153.23L51.7232 149.62C53.3366 149.986 54.9896 150.148 56.6432 150.1L58.6432 154.1L63.5632 153.03L63.7532 148.53C65.286 147.896 66.7337 147.073 68.0632 146.08L72.0632 148.21L75.4932 144.51L73.0532 140.72C73.9564 139.321 74.6851 137.817 75.2232 136.24ZM68.1532 133.88C67.3931 136.252 65.9467 138.345 63.9971 139.894C62.0474 141.443 59.682 142.38 57.2001 142.585C54.7182 142.79 52.2313 142.254 50.0539 141.045C47.8765 139.837 46.1064 138.01 44.9676 135.795C43.8288 133.58 43.3723 131.077 43.656 128.603C43.9397 126.129 44.9508 123.795 46.5613 121.895C48.1719 119.996 50.3096 118.617 52.704 117.932C55.0985 117.248 57.6421 117.289 60.0132 118.05C63.1824 119.081 65.814 121.326 67.3321 124.293C68.8502 127.26 69.1311 130.707 68.1132 133.88H68.1532Z" fill="#FF0000"/>
<g id="elm05yin6wi7">
<path id="Vector_2" opacity="0.5" d="M329.733 135.2L341.733 133.79L343.553 120.5L332.283 115.89C332.053 111.544 331.295 107.243 330.023 103.08L339.213 94.9304L333.083 83.0004L321.013 85.7904C316.463 79.9557 310.744 75.136 304.223 71.6404L305.013 59.1104L292.223 55.0104L285.543 65.7304C281.339 65.2206 277.088 65.2206 272.883 65.7304L266.293 54.8904L253.473 58.8904L254.153 71.5704C250.419 73.5377 246.931 75.9412 243.763 78.7304L232.133 73.6304L223.913 84.2304L231.703 94.1804C230.326 96.8283 229.175 99.5882 228.263 102.43C227.873 103.63 227.543 104.85 227.263 106.06L214.913 108.54L214.253 121.94L226.163 125.6C226.719 129.86 227.786 134.037 229.343 138.04L220.813 147.04L227.963 158.4L239.623 154.65C242.554 157.873 245.869 160.724 249.493 163.14L247.723 175.14L260.093 180.34L267.403 170.74C271.699 171.713 276.1 172.143 280.503 172.02L285.913 182.76L299.023 179.93L299.513 167.93C303.594 166.235 307.45 164.042 310.993 161.4L321.563 167.08L330.673 157.24L324.203 147.13C326.53 143.396 328.387 139.389 329.733 135.2V135.2ZM310.913 128.91C308.892 135.217 305.046 140.783 299.862 144.904C294.677 149.026 288.387 151.517 281.787 152.064C275.187 152.611 268.573 151.189 262.781 147.977C256.989 144.766 252.279 139.909 249.247 134.021C246.215 128.133 244.997 121.478 245.746 114.898C246.496 108.318 249.18 102.108 253.459 97.0524C257.737 91.9972 263.419 88.3242 269.785 86.4976C276.151 84.671 282.915 84.7729 289.223 86.7904C293.414 88.1306 297.299 90.2835 300.658 93.126C304.016 95.9684 306.781 99.4447 308.795 103.356C310.81 107.268 312.033 111.538 312.397 115.923C312.76 120.307 312.256 124.721 310.913 128.91V128.91Z" fill="white"/>
</g>
<g id="elfu5wi5itr7u">
<path id="Vector_3" opacity="0.5" d="M75.2232 136.24L79.7332 135.71L80.4132 130.71L76.1833 128.98C76.0938 127.345 75.8084 125.727 75.3332 124.16L78.7832 121.1L76.4832 116.62L71.9432 117.62C70.2287 115.43 68.0762 113.622 65.6232 112.31L65.9132 107.6L61.1232 106.06L58.6032 110.06C57.0256 109.87 55.4309 109.87 53.8532 110.06L51.3732 105.99L46.5632 107.48L46.8132 112.25C45.413 112.992 44.1041 113.895 42.9132 114.94L38.5432 113.02L35.4532 117.02L38.3832 120.76C37.863 121.755 37.4281 122.792 37.0832 123.86C36.9432 124.31 36.8232 124.77 36.7032 125.23L32.0632 126.16L31.8232 131.16L36.2232 132.6C36.4302 134.204 36.8332 135.775 37.4232 137.28L34.2232 140.66L36.9032 144.92L41.2932 143.52C42.3947 144.732 43.6407 145.803 45.0032 146.71L44.3332 151.23L48.9832 153.23L51.7232 149.62C53.3366 149.986 54.9896 150.148 56.6432 150.1L58.6432 154.1L63.5632 153.03L63.7532 148.53C65.286 147.896 66.7337 147.073 68.0632 146.08L72.0632 148.21L75.4932 144.51L73.0532 140.72C73.9564 139.321 74.6851 137.817 75.2232 136.24ZM68.1532 133.88C67.3931 136.252 65.9467 138.345 63.9971 139.894C62.0474 141.443 59.682 142.38 57.2001 142.585C54.7182 142.79 52.2313 142.254 50.0539 141.045C47.8765 139.837 46.1064 138.01 44.9676 135.795C43.8288 133.58 43.3723 131.077 43.656 128.603C43.9397 126.129 44.9508 123.795 46.5613 121.895C48.1719 119.996 50.3096 118.617 52.704 117.932C55.0985 117.248 57.6421 117.289 60.0132 118.05C63.1824 119.081 65.814 121.326 67.3321 124.293C68.8502 127.26 69.1311 130.707 68.1132 133.88H68.1532Z" fill="white"/>
</g>
<path id="el7h9nkf09vh3" d="M236.313 42.3104L240.183 41.3904L240.273 36.9804L236.413 35.9004C236.187 34.4867 235.787 33.1062 235.223 31.7904L237.913 28.7904L235.463 25.1304L231.623 26.4904C229.923 24.7547 227.879 23.3925 225.623 22.4904L225.403 18.3704L221.073 17.5104L219.223 21.3004C217.83 21.2912 216.44 21.4456 215.083 21.7604L212.523 18.4804L208.523 20.2604L209.233 24.3804C208.086 25.1642 207.036 26.0806 206.103 27.1104L202.103 25.8904L199.823 29.6604L202.743 32.6604C202.394 33.5757 202.123 34.5191 201.933 35.4804C201.853 35.8904 201.793 36.3004 201.743 36.7104L197.803 37.9904L198.093 42.3904L202.093 43.1304C202.44 44.5032 202.95 45.8294 203.613 47.0804L201.163 50.3404L203.933 53.7804L207.593 52.1104C208.675 53.0511 209.867 53.857 211.143 54.5104L211.023 58.5104L215.263 59.7404L217.263 56.3204C218.704 56.4793 220.159 56.4524 221.593 56.2404L223.773 59.5504L227.943 58.1204L227.653 54.1904C228.921 53.4813 230.097 52.6181 231.153 51.6204L234.823 53.0704L237.423 49.5104L234.923 46.4504C235.555 45.1326 236.021 43.7422 236.313 42.3104V42.3104ZM229.923 40.9704C229.5 43.1022 228.455 45.061 226.92 46.5996C225.385 48.1381 223.429 49.1874 221.298 49.615C219.167 50.0426 216.957 49.8294 214.947 49.0023C212.937 48.1752 211.218 46.7712 210.005 44.9675C208.792 43.1639 208.141 41.0414 208.134 38.868C208.126 36.6946 208.763 34.5677 209.963 32.7558C211.163 30.9438 212.873 29.5279 214.877 28.6869C216.881 27.8459 219.089 27.6175 221.223 28.0304C222.646 28.3056 224 28.8592 225.208 29.6593C226.416 30.4594 227.454 31.4902 228.262 32.6926C229.07 33.895 229.633 35.2452 229.918 36.6658C230.204 38.0863 230.205 39.5492 229.923 40.9704V40.9704Z" fill="#263238"/>
</g>
<g id="freepik  Rocket  inject 79">
<path id="elaopzyxtw9pm" d="M82.9633 100.52C82.9633 100.52 73.8532 121.32 75.2232 122.58C76.5932 123.84 87.1232 144.3 88.8432 144.37C90.5632 144.44 89.9633 139.05 89.9633 139.05L100.153 129.42L82.9633 100.52Z" fill="#263238"/>
<path id="elgzcz8x4a4hf" d="M123.353 87.9204C123.353 87.9204 143.143 99.0604 142.813 100.92C142.483 102.78 146.363 125.43 145.023 126.52C143.683 127.61 140.933 122.94 140.933 122.94L127.003 121.38L123.353 87.9204Z" fill="#263238"/>
<path id="elrqsqkbe9eba" d="M334.223 240.04C323.583 209.7 290.323 255.57 273.403 266.26C256.483 276.95 259.403 219.26 232.753 238.12C206.103 256.98 204.753 309.97 179.613 308.44C168.853 307.78 162.883 273.34 155.473 252.97L119.873 109.97L100.803 118.34L147.543 259.34C149.833 271.41 163.183 303.6 162.493 310.39C161.573 319.39 139.913 318.32 118.493 311.39C82.4933 299.82 66.1133 237.76 37.4933 230.01C23.8633 226.32 16.0633 234.74 10.4933 244.63C11.7466 247.417 13.1066 250.114 14.5733 252.72C42.1233 301.36 87.4133 325.05 154.633 327.58C221.853 330.11 269.153 334.67 326.533 282.63C328.34 280.99 330.08 279.307 331.753 277.58C335.503 265.86 338.273 251.66 334.223 240.04Z" fill="#FF0000"/>
<g id="elsqyipu8ujoe">
<path id="Vector_4" opacity="0.5" d="M334.223 240.04C323.583 209.7 290.323 255.57 273.403 266.26C256.483 276.95 259.403 219.26 232.753 238.12C206.103 256.98 204.753 309.97 179.613 308.44C168.853 307.78 162.883 273.34 155.473 252.97L119.873 109.97L100.803 118.34L147.543 259.34C149.833 271.41 163.183 303.6 162.493 310.39C161.573 319.39 139.913 318.32 118.493 311.39C82.4933 299.82 66.1133 237.76 37.4933 230.01C23.8633 226.32 16.0633 234.74 10.4933 244.63C11.7466 247.417 13.1066 250.114 14.5733 252.72C42.1233 301.36 87.4133 325.05 154.633 327.58C221.853 330.11 269.153 334.67 326.533 282.63C328.34 280.99 330.08 279.307 331.753 277.58C335.503 265.86 338.273 251.66 334.223 240.04Z" fill="white"/>
</g>
<path id="elzasljmvi0ra" d="M127.993 118.86C127.993 118.86 121.993 55.8603 117.153 38.3903C112.313 20.9203 85.9933 -3.70965 76.5233 0.470345C67.0533 4.65034 63.0233 37.7904 65.3933 55.0004C67.7633 72.2104 94.4833 129.51 102.873 135C111.263 140.49 127.293 142.12 127.993 118.86Z" fill="white"/>
<path id="elbumo3e4qn2j" d="M127.993 118.86C127.993 118.86 127.993 118.45 127.883 117.68C121.573 138.4 107.593 135 98.4432 129.97C99.636 131.869 101.133 133.558 102.873 134.97C111.223 140.48 127.293 142.12 127.993 118.86Z" fill="#263238"/>
<path id="el9wdgi52pwij" d="M76.5233 0.47036C67.6833 4.38036 63.5933 33.4704 65.0033 51.3004C68.293 54.0532 72.1163 56.0959 76.2333 57.3004C92.3333 62.0004 109.423 53.0504 116.713 36.9804C110.873 19.6004 85.7433 -3.59964 76.5233 0.47036Z" fill="#263238"/>
<path id="el48ktu5tlmxd" d="M96.5233 14.9603C103.298 21.8393 109.026 29.6763 113.523 38.2203" stroke="white" stroke-linecap="round" stroke-linejoin="round"/>
<path id="elli5vkeqlyjm" d="M87.7133 6.79041C87.7133 6.79041 89.4333 8.1504 92.0733 10.6104" stroke="white" stroke-linecap="round" stroke-linejoin="round"/>
<path id="elb4pup5orvo" d="M124.823 115.27L125.213 118.22" stroke="#263238" stroke-linecap="round" stroke-linejoin="round"/>
<path id="elsibo130885e" d="M123.633 106.26L124.513 112.93" stroke="#263238" stroke-linecap="round" stroke-linejoin="round"/>
<path id="el7q2q0ejvrry" d="M116.783 54.5204L122.853 100.37" stroke="#263238" stroke-linecap="round" stroke-linejoin="round"/>
<path id="elurmavaa4ji" d="M115.473 44.6704L116.023 48.7904" stroke="#263238" stroke-linecap="round" stroke-linejoin="round"/>
<path id="elvyxqrpqqg5" d="M73.9133 73.1003L85.1933 98.5803" stroke="#263238" stroke-linecap="round" stroke-linejoin="round"/>
<path id="elr6sjx9mnp7o" d="M86.3633 101.69L88.6733 106.87" stroke="#263238" stroke-linecap="round" stroke-linejoin="round"/>
<g id="elagd40uthh8t">
<path id="Vector_5" d="M100.153 91.4804C108.443 91.4804 115.163 85.1318 115.163 77.3004C115.163 69.469 108.443 63.1204 100.153 63.1204C91.8635 63.1204 85.1433 69.469 85.1433 77.3004C85.1433 85.1318 91.8635 91.4804 100.153 91.4804Z" fill="#263238"/>
</g>
<path id="el55zhebjjo8y" d="M109.303 81.2704C108.71 82.9403 107.641 84.3999 106.228 85.469C104.815 86.538 103.119 87.1697 101.351 87.2859C99.5828 87.4021 97.8193 86.9978 96.2782 86.1229C94.7372 85.2481 93.4862 83.9409 92.6798 82.363C91.8734 80.7851 91.5468 79.0055 91.7405 77.2441C91.9342 75.4827 92.6396 73.8165 93.7696 72.4516C94.8996 71.0866 96.4047 70.0825 98.099 69.5634C99.7933 69.0442 101.603 69.0328 103.303 69.5304C105.653 70.2955 107.604 71.9606 108.728 74.161C109.853 76.3614 110.06 78.9179 109.303 81.2704V81.2704Z" fill="#FF0000"/>
<path id="elzq30f1yxu1n" d="M110.093 116.11L120.913 143.95C120.963 144.108 121.045 144.253 121.154 144.376C121.263 144.5 121.397 144.599 121.546 144.668C121.696 144.737 121.859 144.773 122.023 144.776C122.188 144.778 122.352 144.745 122.503 144.68V144.68C122.819 144.536 123.068 144.277 123.202 143.956C123.335 143.636 123.343 143.276 123.223 142.95L113.983 114.41C113.886 114.143 113.733 113.9 113.534 113.697C113.335 113.494 113.095 113.335 112.83 113.232C112.565 113.129 112.281 113.083 111.997 113.099C111.713 113.114 111.436 113.189 111.183 113.32V113.32C110.704 113.585 110.332 114.008 110.133 114.518C109.934 115.028 109.92 115.591 110.093 116.11Z" fill="#263238"/>
</g>
<g id="freepik  light bulb  inject 79">
<path id="elv7lu0h3gab" d="M285.053 43.2303L286.913 46.6903" stroke="#263238" stroke-linecap="round" stroke-linejoin="round"/>
<path id="elheyiwutx0ig" d="M291.733 43.3804L292.073 45.2904" stroke="#263238" stroke-linecap="round" stroke-linejoin="round"/>
<path id="elgb6w2xjhlk8" d="M298.343 42.0304L298.013 45.1104" stroke="#263238" stroke-linecap="round" stroke-linejoin="round"/>
<path id="elk8aoh7ocokc" d="M316.813 57.1804L313.013 58.1504" stroke="#263238" stroke-linecap="round" stroke-linejoin="round"/>
<path id="elmr0k1usalnd" d="M312.183 52.3604L310.553 53.4103" stroke="#263238" stroke-linecap="round" stroke-linejoin="round"/>
<path id="el0vczo7h6k9" d="M308.713 46.5804L306.663 48.9104" stroke="#263238" stroke-linecap="round" stroke-linejoin="round"/>
<path id="elo270u7cqquf" d="M302.293 48.5804H302.203H302.123C293.043 44.7904 283.223 48.6904 279.503 57.1804C278.384 59.7085 277.903 62.4729 278.103 65.2304C278.103 66.6304 278.023 70.0504 277.573 74.3104C277.294 77.0799 276.762 79.8181 275.983 82.4904L275.903 82.6404C275.83 82.795 275.788 82.9627 275.781 83.1336C275.773 83.3046 275.8 83.4753 275.86 83.6356C275.92 83.796 276.011 83.9427 276.128 84.0672C276.246 84.1917 276.387 84.2914 276.543 84.3604H276.623L283.623 87.4204H283.703L285.583 88.2404H285.673L292.673 91.3004H292.753C292.909 91.369 293.077 91.4055 293.248 91.4077C293.418 91.41 293.587 91.378 293.745 91.3136C293.902 91.2493 294.045 91.1538 294.165 91.033C294.285 90.9122 294.38 90.7685 294.443 90.6104C294.443 90.5504 294.493 90.5004 294.513 90.4504C295.951 88.0669 297.604 85.8208 299.453 83.7404C302.293 80.5304 304.753 78.1604 305.773 77.2104C308.037 75.407 309.803 73.0555 310.904 70.3786C312.004 67.7017 312.403 64.7882 312.063 61.914C311.722 59.0397 310.653 56.3001 308.958 53.9544C307.262 51.6088 304.996 49.735 302.373 48.5104L302.293 48.5804Z" fill="#FF0000"/>
<g id="el2jy6g9wk3pp">
<path id="Vector_6" d="M292.953 87.5604H274.633V91.8104H292.953V87.5604Z" fill="#263238"/>
</g>
<path id="elmp430ly2txl" d="M289.353 99.8004L290.923 96.2404L274.143 88.8704L272.623 92.3304L289.353 99.8004Z" fill="#263238"/>
<g id="elguy3jn287ap">
<path id="Vector_7" d="M291.893 91.5905H273.573V92.6004H291.893V91.5905Z" fill="white"/>
</g>
<path id="elkcnjzvg6c6" d="M272.623 92.3304L274.773 97.3105L284.183 101.41L289.353 99.8004L272.623 92.3304Z" fill="#263238"/>
<path id="elxwzj62xb1js" d="M295.053 84.0904C296.843 81.328 299.053 78.8616 301.603 76.7804C308.013 71.7104 312.483 66.7804 308.803 57.6604" stroke="#263238" stroke-linecap="round" stroke-linejoin="round"/>
<path id="eltz20mlx848" d="M292.063 89.5304C292.063 89.5304 292.443 88.6004 293.213 87.1704" stroke="#263238" stroke-linecap="round" stroke-linejoin="round"/>
<path id="elf376gzonxe" d="M282.223 86.2204C282.223 86.2204 284.153 73.9104 282.823 70.4804C281.493 67.0504 280.443 77.2204 285.393 75.8104C290.343 74.4004 287.783 68.3904 287.073 71.1104C286.363 73.8304 288.203 77.3704 291.163 75.6704C294.123 73.9704 294.253 71.4004 292.513 72.5304C290.773 73.6604 292.863 78.6304 295.713 77.4504C298.563 76.2704 297.943 74.6404 295.833 75.5604C293.723 76.4804 289.053 85.6204 287.653 89.0104" stroke="#263238" stroke-linecap="round" stroke-linejoin="round"/>
</g>
<g id="freepik  paint tube  inject 79">
<path id="elsxgu8em48gl" d="M356.613 168.98C355.64 171.245 354.214 173.287 352.423 174.98C349.273 178.09 347.963 185.12 356.523 188.98C365.083 192.84 361.663 207.54 351.403 205.76C341.143 203.98 335.323 187.76 325.663 191.82C316.003 195.88 318.663 210.951 311.493 207.991C304.323 205.031 301.323 197.99 295.673 200.72C290.023 203.45 287.493 216.72 308.943 224.44C330.393 232.16 325.573 200.02 332.323 201.15C339.073 202.28 339.583 212.02 350.323 214.9C361.063 217.78 371.753 202.15 370.253 193.35C368.753 184.55 356.973 184.55 355.033 180.17C353.093 175.79 359.803 170.75 359.803 170.75C359.803 170.75 359.433 167.62 356.613 168.98Z" fill="#FF0000"/>
<path id="elqkty90etr3t" d="M357.813 161.49L355.223 168.01C355 168.565 354.967 169.179 355.13 169.754C355.293 170.33 355.642 170.835 356.123 171.19C356.682 171.602 357.377 171.783 358.065 171.698C358.753 171.612 359.383 171.266 359.823 170.73L364.993 164.45L357.813 161.49Z" fill="#263238" stroke="#263238" stroke-linecap="round" stroke-linejoin="round"/>
<path id="el4cssvv9z6yp" d="M372.073 122.21L388.643 133.88C388.643 133.88 378.503 148.67 374.803 155.79C371.103 162.91 365.973 167.88 361.723 167.15C357.473 166.42 354.933 160.49 356.193 155.4C357.453 150.31 366.673 138.86 368.563 133.4C370.453 127.94 372.073 122.21 372.073 122.21Z" fill="#FF0000"/>
<path id="elcqb144a9hzn" d="M372.073 122.21C372.073 122.21 370.463 127.87 368.563 133.34C367.676 135.533 366.571 137.63 365.263 139.6C369.22 143.459 373.563 146.9 378.223 149.87C382.673 142.61 388.663 133.87 388.663 133.87L372.073 122.21Z" fill="#263238"/>
<path id="el0vumt4mziknp" d="M369.223 178.16C368.943 178.606 368.536 178.959 368.055 179.173C367.573 179.387 367.039 179.454 366.52 179.364C366.001 179.275 365.52 179.033 365.139 178.67C364.757 178.307 364.492 177.838 364.377 177.324C364.262 176.81 364.302 176.274 364.492 175.783C364.682 175.291 365.014 174.868 365.445 174.565C365.876 174.263 366.388 174.095 366.914 174.084C367.441 174.072 367.959 174.217 368.403 174.5C368.699 174.686 368.954 174.928 369.156 175.213C369.357 175.497 369.5 175.819 369.576 176.16C369.652 176.5 369.661 176.852 369.6 177.195C369.539 177.539 369.411 177.867 369.223 178.16Z" fill="#FF0000"/>
<path id="elho5bau8tq5u" d="M346.303 192.7C346.057 193.087 345.702 193.392 345.282 193.577C344.863 193.761 344.398 193.818 343.947 193.739C343.495 193.66 343.077 193.449 342.746 193.132C342.414 192.816 342.183 192.409 342.083 191.961C341.983 191.514 342.017 191.047 342.182 190.62C342.347 190.192 342.634 189.823 343.009 189.558C343.383 189.294 343.828 189.146 344.286 189.134C344.744 189.122 345.195 189.246 345.583 189.49C346.104 189.821 346.472 190.345 346.607 190.947C346.742 191.548 346.632 192.179 346.303 192.7V192.7Z" fill="#FF0000"/>
<path id="elz25109p33q" d="M344.343 230.53C344.262 230.662 344.155 230.776 344.03 230.866C343.904 230.956 343.762 231.021 343.612 231.056C343.462 231.091 343.306 231.097 343.153 231.072C343.001 231.047 342.855 230.992 342.723 230.91C342.592 230.829 342.478 230.723 342.388 230.597C342.298 230.472 342.233 230.33 342.198 230.179C342.163 230.029 342.157 229.873 342.182 229.72C342.207 229.568 342.262 229.422 342.343 229.29C342.508 229.025 342.771 228.836 343.075 228.765C343.378 228.694 343.698 228.746 343.963 228.91C344.229 229.075 344.418 229.338 344.489 229.642C344.56 229.946 344.508 230.265 344.343 230.53V230.53Z" fill="#FF0000"/>
<path id="elw63ji0iq95j" d="M303.003 216.27C305.704 217.973 308.709 219.135 311.853 219.69C320.853 221.2 321.973 216.13 323.853 208.96" stroke="#263238" stroke-linecap="round" stroke-linejoin="round"/>
<path id="elk0go8j3flz" d="M297.153 211.43C297.774 212.141 298.442 212.81 299.153 213.43" stroke="#263238" stroke-linecap="round" stroke-linejoin="round"/>
<path id="ella4e9dvxhe" d="M348.913 211.69C348.913 211.69 358.453 216.04 364.353 204.69" stroke="#263238" stroke-linecap="round" stroke-linejoin="round"/>
<path id="el0kq9q29p9oga" d="M359.563 163.93C359.12 163.665 358.737 163.311 358.436 162.892C358.135 162.472 357.923 161.995 357.813 161.49" stroke="#263238" stroke-linecap="round" stroke-linejoin="round"/>
<path id="eluyvtbhskpg" d="M374.603 151.69C374.603 151.69 368.713 163.02 364.973 164.45C364.129 164.785 363.22 164.928 362.313 164.87" stroke="#263238" stroke-linecap="round" stroke-linejoin="round"/>
</g>
<g id="freepik  Photos  inject 79">
<g id="elvl0vgqmkxg">
<path id="Vector_8" d="M172.753 63.5905H144.893V85.5005H172.753V63.5905Z" fill="#FF0000"/>
</g>
<g id="elfu25qd7gsc">
<path id="Vector_9" opacity="0.5" d="M172.753 63.5905H144.893V85.5005H172.753V63.5905Z" fill="white"/>
</g>
<g id="eltd2tm1c4gzr">
<path id="Vector_10" d="M171.423 64.4905H146.113V84.2005H171.423V64.4905Z" fill="#FF0000"/>
</g>
<path id="elnozt940a3vr" d="M171.223 69.9105C169.853 68.4505 168.703 68.1405 167.373 69.7105C165.373 72.1005 164.293 77.4405 162.873 77.2205C161.453 77.0005 161.203 74.8605 159.773 73.4905C158.343 72.1205 156.543 75.3805 153.023 79.2205C151.36 81.0394 149.31 82.4611 147.023 83.3805L147.283 85.7305L172.693 82.8705L171.223 69.9105Z" fill="#263238"/>
<path id="elr8no76mbm88" d="M154.613 69.9205C154.686 70.5555 154.57 71.1979 154.277 71.7664C153.985 72.335 153.531 72.804 152.972 73.1143C152.413 73.4245 151.775 73.5619 151.138 73.5092C150.501 73.4564 149.894 73.2159 149.394 72.8179C148.893 72.42 148.523 71.8826 148.328 71.2737C148.133 70.6649 148.124 70.012 148.3 69.3977C148.477 68.7834 148.832 68.2353 149.32 67.8228C149.808 67.4103 150.408 67.1519 151.043 67.0805C151.893 66.9848 152.746 67.2301 153.415 67.7625C154.085 68.2949 154.515 69.0709 154.613 69.9205V69.9205Z" fill="#263238"/>
<g id="el8kuqq5zcy89">
<path id="Vector_11" d="M93.1232 165.82H44.2932V204.21H93.1232V165.82Z" fill="#FF0000"/>
</g>
<g id="el3bsow72gjmh">
<path id="Vector_12" opacity="0.5" d="M93.1232 165.82H44.2932V204.21H93.1232V165.82Z" fill="white"/>
</g>
<g id="elgk46mueessd">
<path id="Vector_13" d="M90.9533 167.38H46.5933V201.921H90.9533V167.38Z" fill="#263238"/>
</g>
<path id="elizaj6029dho" d="M91.7633 186.72C90.6633 183.39 89.0533 182.05 85.7633 183.57C80.7633 185.89 75.1733 193.57 73.0733 192.21C70.9733 190.85 72.1533 187.21 70.8833 184C69.6133 180.79 64.3633 184.64 55.9433 188.16C51.9401 189.828 47.6139 190.576 43.2833 190.35L41.9833 194.27L84.5233 208.41L91.7633 186.72Z" fill="#FF0000"/>
<path id="elwm4ta3zhgo" d="M65.4033 174.57C65.0499 175.632 64.3897 176.566 63.506 177.252C62.6223 177.939 61.5549 178.348 60.4386 178.429C59.3224 178.509 58.2074 178.256 57.2346 177.703C56.2618 177.15 55.4749 176.32 54.9733 175.32C54.4717 174.32 54.2779 173.193 54.4165 172.082C54.555 170.972 55.0197 169.927 55.7517 169.081C56.4838 168.234 57.4503 167.624 58.5292 167.327C59.6082 167.029 60.751 167.058 61.8133 167.41C62.5195 167.644 63.1725 168.015 63.7352 168.502C64.2979 168.989 64.7591 169.581 65.0926 170.246C65.426 170.911 65.625 171.635 65.6784 172.377C65.7317 173.119 65.6382 173.865 65.4033 174.57V174.57Z" fill="#FF0000"/>
</g>
<g id="freepik  music icons  inject 79">
<path id="eloqj49y1udj" d="M318.463 261.23C318.557 260.943 318.582 260.638 318.537 260.34C318.492 260.041 318.377 259.757 318.202 259.511C318.026 259.265 317.796 259.064 317.529 258.923C317.262 258.782 316.965 258.706 316.663 258.7L295.433 258.22C295.018 258.22 294.613 258.349 294.274 258.589C293.936 258.829 293.68 259.168 293.543 259.56L286.413 281.79C285.847 281.318 285.195 280.958 284.493 280.73C283.384 280.366 282.193 280.333 281.066 280.636C279.938 280.939 278.924 281.564 278.146 282.434C277.369 283.305 276.862 284.383 276.688 285.538C276.514 286.692 276.681 287.872 277.168 288.933C277.655 289.994 278.44 290.89 279.428 291.511C280.417 292.132 281.565 292.451 282.732 292.43C283.899 292.408 285.034 292.047 285.999 291.39C286.964 290.733 287.716 289.808 288.163 288.73H288.243L293.683 271.79L310.873 272.18L307.723 281.98C306.719 281.186 305.488 280.734 304.209 280.69C302.93 280.645 301.67 281.011 300.614 281.733C299.558 282.456 298.76 283.497 298.337 284.705C297.915 285.913 297.89 287.225 298.265 288.448C298.641 289.672 299.398 290.743 300.426 291.505C301.454 292.268 302.699 292.681 303.979 292.686C305.259 292.691 306.506 292.286 307.54 291.531C308.573 290.776 309.338 289.711 309.723 288.49C309.723 288.49 309.723 288.43 309.723 288.4L318.463 261.23ZM312.103 268.36L294.913 267.97L296.793 262.12L313.983 262.52L312.103 268.36Z" fill="#263238"/>
<path id="eloejerjfac1n" d="M263.773 275.25C263.814 275.123 263.824 274.988 263.803 274.856C263.782 274.724 263.731 274.599 263.653 274.49C263.575 274.383 263.473 274.294 263.355 274.232C263.237 274.17 263.106 274.135 262.973 274.13L253.593 273.92C253.408 273.915 253.227 273.97 253.076 274.076C252.924 274.183 252.811 274.335 252.753 274.51L249.603 284.33C249.352 284.122 249.064 283.962 248.753 283.86C248.264 283.701 247.739 283.687 247.242 283.821C246.745 283.955 246.298 284.231 245.955 284.615C245.612 284.999 245.389 285.474 245.312 285.983C245.235 286.492 245.307 287.012 245.521 287.48C245.735 287.948 246.08 288.344 246.515 288.619C246.95 288.894 247.455 289.037 247.97 289.03C248.484 289.022 248.986 288.865 249.413 288.578C249.839 288.29 250.173 287.884 250.373 287.41V287.41L252.783 279.92L260.383 280.09L258.993 284.43C258.749 284.225 258.467 284.069 258.163 283.97C257.665 283.81 257.13 283.801 256.626 283.945C256.122 284.088 255.672 284.378 255.333 284.777C254.994 285.177 254.78 285.667 254.72 286.188C254.66 286.708 254.755 287.235 254.994 287.701C255.232 288.167 255.604 288.552 256.061 288.807C256.519 289.063 257.042 289.177 257.564 289.135C258.086 289.093 258.584 288.897 258.995 288.573C259.406 288.248 259.712 287.809 259.873 287.31C259.873 287.31 259.873 287.31 259.873 287.31L263.773 275.25ZM260.963 278.4L253.363 278.23L254.193 275.64L261.793 275.82L260.963 278.4Z" fill="#263238"/>
<path id="eldc49visrdvs" d="M79.9032 228.54C79.9425 228.418 79.9529 228.289 79.9339 228.162C79.9148 228.036 79.8667 227.915 79.7932 227.81C79.7161 227.707 79.6169 227.621 79.5027 227.561C79.3886 227.5 79.2623 227.466 79.1332 227.46L70.0232 227.25C69.8436 227.246 69.6676 227.301 69.5215 227.405C69.3755 227.51 69.2673 227.659 69.2132 227.83L66.1532 237.35C65.9092 237.152 65.6314 237 65.3332 236.9C64.8587 236.745 64.3492 236.732 63.8671 236.861C63.3849 236.991 62.951 237.258 62.6183 237.631C62.2856 238.003 62.0686 238.464 61.9937 238.958C61.9188 239.451 61.9893 239.956 62.1966 240.41C62.4039 240.864 62.739 241.248 63.161 241.515C63.5829 241.782 64.0735 241.92 64.5727 241.913C65.0719 241.905 65.5582 241.753 65.9721 241.474C66.3859 241.194 66.7095 240.8 66.9032 240.34L69.2332 233.08L76.6032 233.24L75.2532 237.45C75.0162 237.25 74.7405 237.1 74.4432 237.01C73.9592 236.855 73.4399 236.846 72.9509 236.985C72.4619 237.125 72.0253 237.406 71.6962 237.794C71.3672 238.181 71.1606 238.658 71.1025 239.163C71.0444 239.668 71.1374 240.179 71.3698 240.631C71.6022 241.084 71.9636 241.457 72.4082 241.704C72.8527 241.95 73.3605 242.06 73.8672 242.018C74.374 241.976 74.8569 241.785 75.255 241.468C75.653 241.152 75.9482 240.725 76.1032 240.24L79.9032 228.54ZM77.2232 231.6L69.8532 231.44L70.6532 228.93L78.0332 229.1L77.2232 231.6Z" fill="#263238"/>
</g>
<g id="freepik  paper plane  inject 79">
<path id="elinf0itzt2xs" d="M143.293 112.39C190.713 122.83 282.883 150.81 306.413 152.39C363.943 156.39 367.413 55.1504 292.223 32.5204C233.623 14.8804 175.103 60.0004 128.163 77.0404" stroke="#263238" stroke-width="0.5" stroke-linecap="round" stroke-linejoin="round" stroke-dasharray="3 3"/>
<path id="eldidehmsf9t6" d="M8.22327 228.84C30.1033 212.32 80.0133 186.07 174.593 188.41C280.003 191.01 318.433 207.61 365.143 208.25" stroke="#263238" stroke-width="0.5" stroke-linecap="round" stroke-linejoin="round" stroke-dasharray="5 3"/>
<path id="elhqyii693n5" d="M228.973 324.59C228.973 324.59 201.553 331.47 127.853 308.92C95.0333 298.87 61.2833 281.43 43.1633 251.06C14.6733 203.31 28.7433 138.06 76.0533 114.42" stroke="#263238" stroke-width="0.5" stroke-linecap="round" stroke-linejoin="round" stroke-dasharray="5 3"/>
<path id="elj67g7nkwuos" d="M212.713 314.52L205.563 346.23L290.383 329.76L212.713 314.52Z" fill="#263238" stroke="#FF0000" stroke-linecap="round" stroke-linejoin="round"/>
<path id="elccdpafxiq17" d="M212.813 323.66L205.563 346.23L236.203 339.67L212.813 323.66Z" fill="#263238" stroke="#FF0000" stroke-linecap="round" stroke-linejoin="round"/>
<path id="el3e2je18fnoi" d="M211.153 289.13L212.713 314.52L290.383 329.76L211.153 289.13Z" fill="#263238" stroke="#FF0000" stroke-linecap="round" stroke-linejoin="round"/>
<path id="eljx2qq0fisis" d="M290.383 329.76L212.263 357.48L212.813 323.66L290.383 329.76Z" fill="#263238" stroke="#FF0000" stroke-linecap="round" stroke-linejoin="round"/>
</g>
<g id="freepik  Character  inject 79">
<path id="elov6t5htv1if" d="M235.873 130.59C235.873 130.59 231.493 121.84 233.533 116.88C235.573 111.92 243.453 104.04 247.533 107.25C251.613 110.46 250.153 117.75 253.653 119.8C257.153 121.85 268.533 127.09 269.413 137.01C270.293 146.93 262.703 154.51 264.743 158.01C266.783 161.51 281.953 160.64 288.083 170.56C294.213 180.48 292.163 194.48 287.793 200.03C283.423 205.58 256.863 214.03 256.863 220.45C256.863 226.87 265.033 233.87 252.783 240.28C240.533 246.69 222.153 243.49 220.403 228.28C218.653 213.07 237.023 198.82 235.863 188.61C234.703 178.4 224.193 170.81 221.273 161.18C218.353 151.55 234.113 148.64 236.443 145.18C238.773 141.72 235.873 130.59 235.873 130.59Z" fill="#263238" stroke="#263238" stroke-linecap="round" stroke-linejoin="round"/>
<path id="eltty8lusdjbj" d="M285.523 188.56C284.793 190.84 283.763 192.23 283.353 192.37" stroke="white" stroke-linecap="round" stroke-linejoin="round"/>
<path id="el21cmpa4wt79" d="M250.163 139.89C250.163 139.89 251.423 146.53 256.483 149.37C261.543 152.21 252.693 158.86 258.063 165.81C263.433 172.76 280.513 165.81 284.623 175.29C285.67 177.664 286.25 180.217 286.333 182.81" stroke="white" stroke-linecap="round" stroke-linejoin="round"/>
<path id="el91dd4hpgtzs" d="M263.323 147.04C264.259 147.629 265.268 148.093 266.323 148.42" stroke="white" stroke-linecap="round" stroke-linejoin="round"/>
<path id="elwllaekbbmub" d="M251.743 119.65C251.743 119.65 252.063 135.15 256.803 141.15C257.769 142.384 258.839 143.532 260.003 144.58" stroke="white" stroke-linecap="round" stroke-linejoin="round"/>
<path id="elcri3v6xxt" d="M167.483 123.19C167.483 123.19 169.123 116.52 169.123 114.58C169.123 112.64 168.633 112.15 168.123 113.24C167.643 114.549 167.239 115.885 166.913 117.24L167.483 123.19Z" fill="white" stroke="#263238" stroke-linecap="round" stroke-linejoin="round"/>
<path id="elatagmji2k7h" d="M108.993 300.27C108.993 300.27 103.503 309.33 98.8433 314.27C94.1833 319.21 92.8433 324.42 97.7433 325.79C102.643 327.16 110.093 325.24 113.933 321.4C117.773 317.56 121.073 311.8 124.933 309.6C128.793 307.4 131.243 307.13 131.243 301.1C131.243 295.07 128.503 293.69 128.503 293.69C128.503 293.69 117.503 300 108.993 300.27Z" fill="#263238" stroke="#263238" stroke-linecap="round" stroke-linejoin="round"/>
<path id="elol4757evb4" d="M122.443 309.33C117.233 313.72 112.833 321.95 104.333 323.05C99.3332 323.69 96.3332 322.45 94.7032 321.31C94.3732 323.43 95.2532 325.1 97.7032 325.79C102.643 327.17 110.053 325.24 113.893 321.4C117.733 317.56 121.033 311.8 124.893 309.6C128.253 307.68 130.563 307.23 131.093 303.1C128.072 304.979 125.182 307.06 122.443 309.33V309.33Z" fill="white" stroke="#263238" stroke-linecap="round" stroke-linejoin="round"/>
<path id="el7ld7cu4x0nm" d="M192.423 214.65C192.423 214.65 163.883 206.97 150.423 204.5C136.963 202.03 124.353 200.38 119.963 205.6C115.573 210.82 116.673 251.42 114.753 261.6C112.833 271.78 110.633 291.24 110.083 294.25C109.533 297.26 107.083 300.02 108.713 301.12C110.343 302.22 120.233 303.04 123.803 301.12C127.373 299.2 130.113 298.12 130.113 294.8C130.113 291.48 130.663 262.15 133.113 253.09C135.563 244.03 137.503 228.67 137.503 228.67C137.503 228.67 155.343 232.78 163.573 235.25C171.803 237.72 183.573 246.5 194.863 246.78C206.153 247.06 204.743 230.04 202.543 225.1C200.343 220.16 196.533 215.48 192.423 214.65Z" fill="#FF0000"/>
<g id="elo2rv0x9wfxr">
<g id="elgb53fd34o2d">
<path id="Vector_14" opacity="0.39" d="M203.503 228.21C202.186 225.656 200.615 223.24 198.813 221C196.733 218.91 193.753 216.12 192.093 214.56L188.453 213.56L177.153 214.5C177.153 214.5 132.323 203.86 131.153 208.8C129.983 213.74 132.673 219.06 132.673 219.06C132.673 219.06 123.173 209.18 124.313 212.98C125.453 216.78 132.673 225.14 132.673 225.14C132.673 225.14 125.073 216.4 125.073 221.72C125.073 227.04 127.353 252.49 123.173 272.63C120.423 285.85 115.063 295.8 113.173 302.04C116.793 302.38 121.513 302.26 123.753 301.04C127.323 299.11 130.063 298.04 130.063 294.72C130.063 291.4 130.613 262.07 133.063 253.01C135.513 243.95 137.453 228.59 137.453 228.59C137.453 228.59 155.293 232.7 163.523 235.17C171.753 237.64 183.523 246.42 194.813 246.7C204.363 246.99 204.883 234.97 203.503 228.21Z" fill="black"/>
</g>
<path id="el6hc8o7oqn5" d="M137.533 228.65C137.533 228.65 138.743 216.38 131.183 208.84" stroke="#263238" stroke-linecap="round" stroke-linejoin="round"/>
<path id="elw8rn9s62a4l" d="M136.593 210.07C136.593 210.07 139.473 212.87 138.503 220.76" stroke="#263238" stroke-linecap="round" stroke-linejoin="round"/>
</g>
<path id="el919b5cmciyw" d="M192.423 214.65C192.423 214.65 163.883 206.97 150.423 204.5C136.963 202.03 124.353 200.38 119.963 205.6C115.573 210.82 116.673 251.42 114.753 261.6C112.833 271.78 110.633 291.24 110.083 294.25C109.533 297.26 107.083 300.02 108.713 301.12C110.343 302.22 120.233 303.04 123.803 301.12C127.373 299.2 130.113 298.12 130.113 294.8C130.113 291.48 130.663 262.15 133.113 253.09C135.563 244.03 137.503 228.67 137.503 228.67C137.503 228.67 155.343 232.78 163.573 235.25C171.803 237.72 183.573 246.5 194.863 246.78C206.153 247.06 204.743 230.04 202.543 225.1C200.343 220.16 196.533 215.48 192.423 214.65Z" stroke="#263238" stroke-linecap="round" stroke-linejoin="round"/>
<path id="elucy2vpdc29q" d="M233.533 160.93C233.533 160.93 230.913 161.52 223.323 160.06C215.733 158.6 216.033 161.81 206.113 157.72C196.193 153.63 174.023 137.01 170.523 134.38L167.023 131.79C167.023 131.79 167.483 126.26 167.483 123.22C167.483 120.18 167.313 117.3 167.313 117.3C167.313 117.3 168.163 110.38 167.483 109.19C166.803 108 165.623 109.53 165.623 110.88C165.266 113.364 164.642 115.801 163.763 118.15C163.763 118.15 162.583 111.05 162.243 109.7C161.903 108.35 161.063 107.84 160.243 108.18C159.423 108.52 160.413 112.24 160.413 113.76C160.413 115.28 160.243 119.67 160.243 119.67C160.243 119.67 157.243 112.24 156.353 110.72C155.463 109.2 154.493 110.38 154.663 111.72C154.833 113.06 157.363 120.5 157.363 120.5C157.363 120.5 155.843 128.44 155.843 128.95C155.843 129.46 152.633 128.44 151.113 127.09C149.593 125.74 149.113 127.09 150.113 128.78C151.113 130.47 153.833 132.16 156.873 133.51C159.913 134.86 163.293 136.21 163.293 136.21C163.293 136.21 180.863 155.13 187.293 161.05C193.723 166.97 200.813 170.67 204.533 172.7C208.253 174.73 216.353 178.95 216.353 178.95C216.353 178.95 212.303 181.95 212.303 186.89C212.303 191.83 213.303 196.18 210.943 199.39C208.583 202.6 200.643 209.02 200.643 209.02C200.643 209.02 189.833 198.02 183.073 194.02C176.313 190.02 169.223 188.44 163.983 196.38C158.743 204.32 158.413 238.44 157.903 249.59C157.393 260.74 155.203 268.01 154.023 269.19C152.939 270.222 152.234 271.589 152.023 273.07C152.023 274.07 151.853 276.45 151.853 276.45C151.853 276.45 153.373 285.07 157.933 288.45C162.493 291.83 165.033 296.22 166.553 293.35C168.073 290.48 171.953 285.58 172.293 281.35C172.498 277.476 172.922 273.617 173.563 269.79C174.073 267.79 173.903 252.05 176.773 244.11C179.643 236.17 181.163 231.44 181.163 231.44C181.163 231.44 183.873 247.15 195.523 250.36C207.173 253.57 217.993 247.36 224.243 238.03C230.493 228.7 238.603 211.34 244.003 204.41C249.403 197.48 257.693 186 257.693 186L269.693 202.05C268.759 204.091 267.687 206.066 266.483 207.96C264.483 211.17 257.703 217.42 257.703 217.42C257.703 217.42 260.703 219.78 263.103 220.12C265.503 220.46 276.793 215.05 282.363 210.32C287.933 205.59 288.953 203.57 286.753 200.32C284.553 197.07 275.753 185.45 270.543 178.02C265.333 170.59 264.963 164.67 259.723 162.81C254.483 160.95 248.073 162.48 246.043 162.48C243.999 162.346 241.967 162.062 239.963 161.63L233.533 160.93Z" fill="#FF0000"/>
<g id="elo6gwfqabeo">
<g id="elpqmtn92klgm">
<path id="Vector_15" opacity="0.39" d="M213.223 233.92C213.223 233.92 204.483 214.92 189.663 204.28C174.843 193.64 174.843 196.28 175.603 198.58C176.363 200.88 177.123 203.9 177.123 203.9C177.123 203.9 171.423 197.82 171.423 202C171.423 206.18 176.743 218.72 172.943 234.3C169.143 249.88 164.943 264.69 166.103 271.53C167.263 278.37 168.763 284.07 164.583 279.53C160.403 274.99 158.123 279.53 158.503 281.43C158.663 282.2 162.503 286.71 167.243 291.94C169.023 289.03 171.893 284.94 172.183 281.32C172.425 277.454 172.886 273.605 173.563 269.79C174.073 267.79 173.903 252.05 176.773 244.11C179.643 236.17 181.163 231.44 181.163 231.44C181.163 231.44 183.873 247.15 195.523 250.36C207.173 253.57 217.993 247.36 224.243 238.03C226.933 234.03 229.963 228.53 232.973 223.03L218.973 229.34L213.223 233.92Z" fill="black"/>
</g>
<path id="elfvixi015x7" d="M181.323 202.47C181.323 202.47 187.183 212.47 181.903 229.15" stroke="#263238" stroke-linecap="round" stroke-linejoin="round"/>
<path id="elx8h55nzn42a" d="M184.673 201.3C184.673 201.3 186.583 208.16 184.673 213.51" stroke="#263238" stroke-linecap="round" stroke-linejoin="round"/>
</g>
<path id="el79e90yd3d8g" d="M233.533 160.93C233.533 160.93 230.913 161.52 223.323 160.06C215.733 158.6 216.033 161.81 206.113 157.72C196.193 153.63 174.023 137.01 170.523 134.38L167.023 131.79C167.023 131.79 167.483 126.26 167.483 123.22C167.483 120.18 167.313 117.3 167.313 117.3C167.313 117.3 168.163 110.38 167.483 109.19C166.803 108 165.623 109.53 165.623 110.88C165.266 113.364 164.642 115.801 163.763 118.15C163.763 118.15 162.583 111.05 162.243 109.7C161.903 108.35 161.063 107.84 160.243 108.18C159.423 108.52 160.413 112.24 160.413 113.76C160.413 115.28 160.243 119.67 160.243 119.67C160.243 119.67 157.243 112.24 156.353 110.72C155.463 109.2 154.493 110.38 154.663 111.72C154.833 113.06 157.363 120.5 157.363 120.5C157.363 120.5 155.843 128.44 155.843 128.95C155.843 129.46 152.633 128.44 151.113 127.09C149.593 125.74 149.113 127.09 150.113 128.78C151.113 130.47 153.833 132.16 156.873 133.51C159.913 134.86 163.293 136.21 163.293 136.21C163.293 136.21 180.863 155.13 187.293 161.05C193.723 166.97 200.813 170.67 204.533 172.7C208.253 174.73 216.353 178.95 216.353 178.95C216.353 178.95 212.303 181.95 212.303 186.89C212.303 191.83 213.303 196.18 210.943 199.39C208.583 202.6 200.643 209.02 200.643 209.02C200.643 209.02 189.833 198.02 183.073 194.02C176.313 190.02 169.223 188.44 163.983 196.38C158.743 204.32 158.413 238.44 157.903 249.59C157.393 260.74 155.203 268.01 154.023 269.19C152.939 270.222 152.234 271.589 152.023 273.07C152.023 274.07 151.853 276.45 151.853 276.45C151.853 276.45 153.373 285.07 157.933 288.45C162.493 291.83 165.033 296.22 166.553 293.35C168.073 290.48 171.953 285.58 172.293 281.35C172.498 277.476 172.922 273.617 173.563 269.79C174.073 267.79 173.903 252.05 176.773 244.11C179.643 236.17 181.163 231.44 181.163 231.44C181.163 231.44 183.873 247.15 195.523 250.36C207.173 253.57 217.993 247.36 224.243 238.03C230.493 228.7 238.603 211.34 244.003 204.41C249.403 197.48 257.693 186 257.693 186L269.693 202.05C268.759 204.091 267.687 206.066 266.483 207.96C264.483 211.17 257.703 217.42 257.703 217.42C257.703 217.42 260.703 219.78 263.103 220.12C265.503 220.46 276.793 215.05 282.363 210.32C287.933 205.59 288.953 203.57 286.753 200.32C284.553 197.07 275.753 185.45 270.543 178.02C265.333 170.59 264.963 164.67 259.723 162.81C254.483 160.95 248.073 162.48 246.043 162.48C243.999 162.346 241.967 162.062 239.963 161.63L233.533 160.93Z" stroke="#263238" stroke-linecap="round" stroke-linejoin="round"/>
<path id="el7afpzuf8u6" d="M270.533 178.09C265.293 170.65 264.953 164.74 259.713 162.88C254.473 161.02 248.063 162.55 246.033 162.55C243.989 162.416 241.957 162.132 239.953 161.7L233.533 160.93C233.533 160.93 230.913 161.52 223.323 160.06C215.733 158.6 216.033 161.81 206.113 157.72C196.193 153.63 174.023 137.01 170.523 134.38L167.023 131.79C167.023 131.79 167.483 126.26 167.483 123.22C167.483 120.18 167.313 117.3 167.313 117.3C167.313 117.3 168.163 110.38 167.483 109.19C166.803 108 165.623 109.53 165.623 110.88C165.266 113.364 164.642 115.801 163.763 118.15C163.763 118.15 162.583 111.05 162.243 109.7C161.903 108.35 161.063 107.84 160.243 108.18C159.423 108.52 160.413 112.24 160.413 113.76C160.413 115.28 160.243 119.67 160.243 119.67C160.243 119.67 157.243 112.24 156.353 110.72C155.463 109.2 154.493 110.38 154.663 111.72C154.833 113.06 157.363 120.5 157.363 120.5C157.363 120.5 155.843 128.44 155.843 128.95C155.843 129.46 152.633 128.44 151.113 127.09C149.593 125.74 149.113 127.09 150.113 128.78C151.113 130.47 153.833 132.16 156.873 133.51C159.913 134.86 163.293 136.21 163.293 136.21C163.293 136.21 180.863 155.13 187.293 161.05C193.723 166.97 200.813 170.67 204.533 172.7C208.253 174.73 216.353 178.95 216.353 178.95C216.353 178.95 212.303 181.95 212.303 186.89V187.53L248.153 199.09C252.863 192.81 257.743 186.09 257.743 186.09L269.743 202.14C268.809 204.181 267.737 206.156 266.533 208.05C264.533 211.26 257.753 217.51 257.753 217.51C257.753 217.51 260.753 219.87 263.153 220.21C265.553 220.55 276.843 215.14 282.413 210.41C287.983 205.68 289.003 203.66 286.803 200.41C284.603 197.16 275.763 185.52 270.533 178.09Z" fill="white"/>
<g id="elyap7zjfvku">
<path id="elt9dryzpkbb" d="M270.533 178.09C265.293 170.65 264.953 164.74 259.713 162.88C254.473 161.02 248.063 162.55 246.033 162.55C244.437 162.473 242.85 162.276 241.283 161.96C241.283 161.96 241.283 162.04 241.283 162.09C241.283 162.14 244.613 164.58 252.653 167.36C260.693 170.14 271.783 190.1 275.943 194.53C280.103 198.96 281.493 201.47 280.383 202.85C279.273 204.23 277.053 205.63 272.893 210.06C270.173 212.97 266.633 216.35 265.123 219.81C271.338 217.617 277.151 214.422 282.333 210.35C287.913 205.62 288.923 203.6 286.723 200.35C284.523 197.1 275.763 185.52 270.533 178.09Z" fill="#FF0000"/>
<path id="el5napdhqekz" d="M202.753 157.93C198.334 156.56 194.2 154.398 190.553 151.55C183.903 146.55 174.193 139.62 176.413 144.62C178.633 149.62 193.883 162.09 199.983 165.14C206.083 168.19 209.983 166.52 217.733 165.97C225.483 165.42 223.833 161.53 218.843 161.53C213.853 161.53 206.643 159.59 202.753 157.93Z" fill="#FF0000"/>
<g id="elelu3n2jsta">
<path id="Vector_16" opacity="0.5" d="M202.753 157.93C198.334 156.56 194.2 154.398 190.553 151.55C183.903 146.55 174.193 139.62 176.413 144.62C178.633 149.62 193.883 162.09 199.983 165.14C206.083 168.19 209.983 166.52 217.733 165.97C225.483 165.42 223.833 161.53 218.843 161.53C213.853 161.53 206.643 159.59 202.753 157.93Z" fill="white"/>
</g>
<g id="elqkn4iqqmu0p">
<path id="Vector_17" opacity="0.5" d="M270.533 178.09C265.293 170.65 264.953 164.74 259.713 162.88C254.473 161.02 248.063 162.55 246.033 162.55C244.437 162.473 242.85 162.276 241.283 161.96C241.283 161.96 241.283 162.04 241.283 162.09C241.283 162.14 244.613 164.58 252.653 167.36C260.693 170.14 271.783 190.1 275.943 194.53C280.103 198.96 281.493 201.47 280.383 202.85C279.273 204.23 277.053 205.63 272.893 210.06C270.173 212.97 266.633 216.35 265.123 219.81C271.338 217.617 277.151 214.422 282.333 210.35C287.913 205.62 288.923 203.6 286.723 200.35C284.523 197.1 275.763 185.52 270.533 178.09Z" fill="white"/>
</g>
</g>
<path id="elbwme1h4eba" d="M270.533 178.09C265.293 170.65 264.953 164.74 259.713 162.88C254.473 161.02 248.063 162.55 246.033 162.55C243.989 162.416 241.957 162.132 239.953 161.7L233.533 160.93C233.533 160.93 230.913 161.52 223.323 160.06C215.733 158.6 216.033 161.81 206.113 157.72C196.193 153.63 174.023 137.01 170.523 134.38L167.023 131.79C167.023 131.79 167.483 126.26 167.483 123.22C167.483 120.18 167.313 117.3 167.313 117.3C167.313 117.3 168.163 110.38 167.483 109.19C166.803 108 165.623 109.53 165.623 110.88C165.266 113.364 164.642 115.801 163.763 118.15C163.763 118.15 162.583 111.05 162.243 109.7C161.903 108.35 161.063 107.84 160.243 108.18C159.423 108.52 160.413 112.24 160.413 113.76C160.413 115.28 160.243 119.67 160.243 119.67C160.243 119.67 157.243 112.24 156.353 110.72C155.463 109.2 154.493 110.38 154.663 111.72C154.833 113.06 157.363 120.5 157.363 120.5C157.363 120.5 155.843 128.44 155.843 128.95C155.843 129.46 152.633 128.44 151.113 127.09C149.593 125.74 149.113 127.09 150.113 128.78C151.113 130.47 153.833 132.16 156.873 133.51C159.913 134.86 163.293 136.21 163.293 136.21C163.293 136.21 180.863 155.13 187.293 161.05C193.723 166.97 200.813 170.67 204.533 172.7C208.253 174.73 216.353 178.95 216.353 178.95C216.353 178.95 212.303 181.95 212.303 186.89V187.53L248.153 199.09C252.863 192.81 257.743 186.09 257.743 186.09L269.743 202.14C268.809 204.181 267.737 206.156 266.533 208.05C264.533 211.26 257.753 217.51 257.753 217.51C257.753 217.51 260.753 219.87 263.153 220.21C265.553 220.55 276.843 215.14 282.413 210.41C287.983 205.68 289.003 203.66 286.803 200.41C284.603 197.16 275.763 185.52 270.533 178.09Z" stroke="#263238" stroke-linecap="round" stroke-linejoin="round"/>
<path id="elzsd6uxbgese" d="M270.533 178.09C265.293 170.65 264.953 164.74 259.713 162.88C254.473 161.02 248.063 162.55 246.033 162.55C243.989 162.416 241.956 162.132 239.953 161.7L233.533 160.93C233.533 160.93 230.913 161.52 223.323 160.06C215.733 158.6 216.033 161.81 206.113 157.72C205.513 157.47 204.863 157.18 204.173 156.84C201.493 158.84 198.563 162.36 196.873 168.31C199.873 170.23 202.623 171.67 204.483 172.68C208.193 174.68 216.303 178.93 216.303 178.93C216.303 178.93 212.253 181.93 212.253 186.87C212.253 191.81 213.253 196.16 210.893 199.37C209.083 201.83 204.013 206.17 201.733 208.06C205.733 211.75 217.733 223.73 222.733 240.06C223.243 239.41 223.733 238.74 224.203 238.06C230.453 228.77 238.563 211.37 243.963 204.44C249.363 197.51 257.653 186.03 257.653 186.03L262.113 192.03C265.283 188.26 269.303 184.84 274.233 183.34C272.933 181.46 271.643 179.67 270.533 178.09Z" fill="white" stroke="#263238" stroke-linecap="round" stroke-linejoin="round"/>
<g id="eleypmlmy2dyk">
<path id="Vector_18" opacity="0.14" d="M246.833 188C246.101 188.484 245.397 189.008 244.723 189.57C243.04 191.084 241.057 192.228 238.904 192.929C236.751 193.63 234.476 193.873 232.223 193.64C220.443 192.88 214.363 183.76 213.983 186.8C213.603 189.84 213.983 198.2 220.823 200.86C227.663 203.52 236.403 200.1 233.743 203.14C231.083 206.18 218.233 213.14 221.273 217.32C224.313 221.5 232.503 220.43 242.643 202.44C244.133 199.8 251.283 192.58 251.333 189.21C251.413 185.68 248.863 186.68 246.833 188Z" fill="black"/>
</g>
<g id="el60kapfpd0yo">
<path id="Vector_19" opacity="0.14" d="M245.033 165.99C246.673 166.74 248.743 167.59 251.283 168.47C255.353 169.87 260.183 175.65 264.513 181.61C265.911 180.577 267.42 179.705 269.013 179.01C263.903 171.66 263.523 165.84 258.333 164.01C254.383 162.61 249.763 163.13 246.863 163.47L245.033 165.99Z" fill="black"/>
</g>
<path id="elfw8gagnro5n" d="M271.383 179.29C268.892 179.953 266.559 181.111 264.525 182.695C262.49 184.279 260.796 186.257 259.543 188.51L262.153 192C265.323 188.23 269.343 184.81 274.273 183.31L271.383 179.29Z" fill="#263238" stroke="#263238" stroke-linecap="round" stroke-linejoin="round"/>
<path id="elvik9rpp7v2" d="M239.953 161.7L233.533 160.93C231.898 161.133 230.242 161.11 228.613 160.86C227.743 164.66 226.273 171.11 225.503 174.97C224.363 180.69 230.503 179.16 236.573 174.97C240.493 172.27 243.793 166.57 245.943 162.54C243.929 162.401 241.928 162.12 239.953 161.7V161.7Z" fill="#263238" stroke="#263238" stroke-linecap="round" stroke-linejoin="round"/>
<path id="elnp6ikargpbi" d="M199.823 170.09C201.123 166.9 203.723 161.83 208.143 158.51C207.513 158.28 206.843 158.02 206.143 157.72C205.443 157.42 204.893 157.18 204.203 156.84C201.523 158.84 198.593 162.36 196.903 168.31C197.903 168.96 198.893 169.55 199.823 170.09Z" fill="#263238" stroke="#263238" stroke-linecap="round" stroke-linejoin="round"/>
<path id="ell02fje3ct5" d="M244.913 124.46C244.913 124.46 237.623 126.51 235.583 128.26C233.543 130.01 230.583 135.55 227.123 136.13C223.663 136.71 223.613 138.76 223.613 140.22C223.591 141.037 223.795 141.843 224.203 142.55C224.203 142.55 223.913 149.26 223.913 152.76C223.913 156.26 224.783 157.14 226.533 157.14H230.623C230.623 157.14 229.743 169.39 228.873 172.31C228.003 175.23 233.243 172.02 234.703 170.56L242.873 162.39C242.873 162.39 241.123 153.93 243.743 148.1C246.363 142.27 241.743 140.22 241.123 133.8C240.889 132.049 241.115 130.266 241.78 128.628C242.444 126.99 243.524 125.554 244.913 124.46V124.46Z" fill="white"/>
<g id="eljp89n1gxdpe">
<path id="el2ckt1cyu8fw" d="M242.873 162.39C242.873 162.39 241.123 153.93 243.743 148.1C246.363 142.27 241.743 140.22 241.123 133.8C241.104 133.431 241.104 133.06 241.123 132.69C239.396 134.969 238.484 137.762 238.533 140.62C238.913 145.96 237.383 152.07 233.953 153.62C231.503 154.7 226.163 155.4 224.523 156.13C224.734 156.478 225.04 156.757 225.406 156.934C225.771 157.112 226.18 157.18 226.583 157.13H230.673C230.673 157.13 230.553 158.78 230.353 161.02C232.793 163.1 235.493 165.62 237.633 167.67L242.873 162.39Z" fill="#FF0000"/>
<g id="elqwsx5lhfb08">
<path id="Vector_20" opacity="0.5" d="M242.873 162.39C242.873 162.39 241.123 153.93 243.743 148.1C246.363 142.27 241.743 140.22 241.123 133.8C241.104 133.431 241.104 133.06 241.123 132.69C239.396 134.969 238.484 137.762 238.533 140.62C238.913 145.96 237.383 152.07 233.953 153.62C231.503 154.7 226.163 155.4 224.523 156.13C224.734 156.478 225.04 156.757 225.406 156.934C225.771 157.112 226.18 157.18 226.583 157.13H230.673C230.673 157.13 230.553 158.78 230.353 161.02C232.793 163.1 235.493 165.62 237.633 167.67L242.873 162.39Z" fill="white"/>
</g>
</g>
<path id="elk3zh3g34n3a" d="M244.913 124.46C244.913 124.46 237.623 126.51 235.583 128.26C233.543 130.01 230.583 135.55 227.123 136.13C223.663 136.71 223.613 138.76 223.613 140.22C223.591 141.037 223.795 141.843 224.203 142.55C224.203 142.55 223.913 149.26 223.913 152.76C223.913 156.26 224.783 157.14 226.533 157.14H230.623C230.623 157.14 229.743 169.39 228.873 172.31C228.003 175.23 233.243 172.02 234.703 170.56L242.873 162.39C242.873 162.39 241.123 153.93 243.743 148.1C246.363 142.27 241.743 140.22 241.123 133.8C240.889 132.049 241.115 130.266 241.78 128.628C242.444 126.99 243.524 125.554 244.913 124.46V124.46Z" stroke="#263238" stroke-linecap="round" stroke-linejoin="round"/>
<path id="elugl4aklpoq" d="M234.273 136.57C233.663 137.57 232.823 138.13 232.393 137.86C231.963 137.59 232.093 136.58 232.693 135.6C233.293 134.62 234.143 134.04 234.583 134.31C235.023 134.58 234.873 135.59 234.273 136.57Z" fill="#263238"/>
<path id="el4ehgbgyedfm" d="M234.643 131.91C234.643 131.91 238.353 130.29 237.643 134.91" stroke="#263238" stroke-linecap="round" stroke-linejoin="round"/>
<path id="el716s31oco8j" d="M231.163 144.01C227.693 145.17 226.303 144.01 226.303 144.01" stroke="#263238" stroke-linecap="round" stroke-linejoin="round"/>
<path id="el56gjk6o2lgq" d="M227.563 144.42V147.32C227.563 147.32 229.013 148.65 230.463 144.18C229.525 144.466 228.536 144.548 227.563 144.42Z" stroke="#263238" stroke-linecap="round" stroke-linejoin="round"/>
<g id="elp6eongoihij">
<path d="M242.583 145.47C242.583 145.47 251.043 143.14 249.873 146.93C248.703 150.72 241.703 153.35 240.873 150.43" fill="white"/>
<path d="M242.583 145.47C242.583 145.47 251.043 143.14 249.873 146.93C248.703 150.72 241.703 153.35 240.873 150.43" stroke="#263238" stroke-linecap="round" stroke-linejoin="round"/>
</g>
<path id="elykii0n7in1" d="M200.593 209C200.593 209 212.983 224.46 214.453 237.65" stroke="#263238" stroke-linecap="round" stroke-linejoin="round"/>
<path id="el25lrhsiolfn" d="M216.303 178.93C216.303 178.93 218.843 174.03 218.843 170.51" stroke="#263238" stroke-linecap="round" stroke-linejoin="round"/>
<path id="el6qypwxljujx" d="M257.693 186.03L251.393 178.43" stroke="#263238" stroke-linecap="round" stroke-linejoin="round"/>
<path id="el7lcert1zavt" d="M269.683 202.08C270.979 201.073 272.486 200.37 274.09 200.024C275.695 199.678 277.357 199.697 278.953 200.08" stroke="#263238" stroke-linecap="round" stroke-linejoin="round"/>
<path id="eliz2lzlvkoni" d="M260.473 211.53C259.233 209.315 257.758 207.239 256.073 205.34C253.953 203.22 248.253 203.55 247.603 205.02C246.953 206.49 250.863 206.16 253.303 208.6C255.743 211.04 255.423 213.16 255.423 213.16C253.243 214.001 250.903 214.342 248.573 214.16C245.483 213.67 241.403 212.86 241.083 214C240.763 215.14 241.893 216.44 244.503 217.09C247.113 217.74 250.203 217.58 251.183 217.74C252.163 217.9 254.603 220.51 256.563 220.51C258.523 220.51 260.963 220.03 261.613 220.51C262.263 220.99 264.053 223.28 266.013 223.28C267.973 223.28 269.763 221.28 269.923 219.05C270.083 216.82 268.783 214.65 266.013 213.51C263.243 212.37 260.473 211.53 260.473 211.53Z" fill="white" stroke="#263238" stroke-linecap="round" stroke-linejoin="round"/>
<g id="el9apa15hmh6o">
<path d="M265.123 211.7C265.123 211.7 258.623 206.14 257.033 205.98C255.443 205.82 250.743 208.77 251.823 209.98C252.903 211.19 254.553 209.41 256.003 209.62C257.453 209.83 261.313 213.17 262.003 213.28" fill="white"/>
<path d="M265.123 211.7C265.123 211.7 258.623 206.14 257.033 205.98C255.443 205.82 250.743 208.77 251.823 209.98C252.903 211.19 254.553 209.41 256.003 209.62C257.453 209.83 261.313 213.17 262.003 213.28" stroke="#263238" stroke-linecap="round" stroke-linejoin="round"/>
</g>
<g id="elg0zw5k2swrb">
<path d="M265.363 214.3L263.363 211.04C263.363 211.04 261.243 214.63 258.803 214.14C256.363 213.65 261.573 208.27 262.713 207.95C263.853 207.63 265.323 206.95 266.623 209.41C267.557 211.392 268.268 213.472 268.743 215.61" fill="white"/>
<path d="M265.363 214.3L263.363 211.04C263.363 211.04 261.243 214.63 258.803 214.14C256.363 213.65 261.573 208.27 262.713 207.95C263.853 207.63 265.323 206.95 266.623 209.41C267.557 211.392 268.268 213.472 268.743 215.61" stroke="#263238" stroke-linecap="round" stroke-linejoin="round"/>
</g>
<g id="elg84lhiffuo4">
<path d="M269.763 217.24C269.763 217.24 268.943 212.02 267.963 211.37C266.983 210.72 263.893 211.86 262.593 213.37C261.293 214.88 262.103 215.16 263.733 215.16C264.621 215.203 265.492 214.91 266.173 214.34L267.313 216.79" fill="white"/>
<path d="M269.763 217.24C269.763 217.24 268.943 212.02 267.963 211.37C266.983 210.72 263.893 211.86 262.593 213.37C261.293 214.88 262.103 215.16 263.733 215.16C264.621 215.203 265.492 214.91 266.173 214.34L267.313 216.79" stroke="#263238" stroke-linecap="round" stroke-linejoin="round"/>
</g>
<path id="elsdfv0zsw2h" d="M167.223 292.52C165.288 287.934 162.77 283.615 159.733 279.67C155.063 273.79 147.223 271.5 142.223 268.29C137.223 265.08 129.973 260.71 126.763 264.5C123.553 268.29 126.473 273.5 131.763 279.38C137.053 285.26 146.343 289.88 147.223 291.05C148.103 292.22 156.383 301.97 159.593 302.26C162.803 302.55 166.053 298.35 167.223 292.52Z" fill="#263238" stroke="#263238" stroke-linecap="round" stroke-linejoin="round"/>
<path id="eli3rqcu5e79i" d="M164.803 298.79C163.133 292.86 157.063 287.84 152.903 284.67C147.903 280.9 144.673 275.61 135.613 268.75C131.673 265.75 128.923 264.6 127.083 264.24C126.969 264.333 126.862 264.433 126.763 264.54C123.553 268.33 126.473 273.54 131.763 279.42C137.053 285.3 146.343 289.92 147.223 291.09C148.103 292.26 156.383 302.01 159.593 302.3C161.423 302.43 163.313 301.06 164.803 298.79Z" fill="white" stroke="#263238" stroke-linecap="round" stroke-linejoin="round"/>
<path id="el3w0ax327ug9" d="M150.443 286.61C144.693 281.82 131.923 267.44 129.043 266.17C126.643 265.1 125.693 267.7 125.443 268.59C125.683 271.74 128.163 275.42 131.723 279.38C136.973 285.21 146.303 289.88 147.183 291.05C148.063 292.22 156.343 301.97 159.553 302.26C159.939 302.362 160.349 302.315 160.702 302.13C161.055 301.945 161.327 301.635 161.463 301.26C163.063 298.9 156.223 291.4 150.443 286.61Z" fill="white" stroke="#263238" stroke-linecap="round" stroke-linejoin="round"/>
</g>
</g>
</svg>
