<svg width="120" height="98" viewBox="0 0 120 98" fill="none" xmlns="http://www.w3.org/2000/svg">
<g filter="url(#filter0_d)">
<rect x="20" y="20" width="80" height="57.1429" rx="10" fill="#F94144" fill-opacity="0.7"/>
<path d="M75.9104 39.832C75.9068 36.6158 73.3002 34.0092 70.084 34.0056H67.8664C67.4895 29.8805 64.0305 26.7227 59.888 26.7227C55.7454 26.7227 52.2864 29.8805 51.9095 34.0056H49.6919C46.4739 34.0056 43.8655 36.614 43.8655 39.832C43.8655 43.0499 46.4739 45.6583 49.6919 45.6583H57.7031V44.2017H49.6919C47.2787 44.2017 45.3221 42.2451 45.3221 39.832C45.3221 37.4188 47.2787 35.4622 49.6919 35.4622H53.3333V34.7339C53.3333 31.1138 56.2678 28.1793 59.888 28.1793C63.5081 28.1793 66.4426 31.1138 66.4426 34.7339V35.4622H70.084C72.4972 35.4622 74.4538 37.4188 74.4538 39.832C74.4538 42.2451 72.4972 44.2017 70.084 44.2017H62.0728V45.6583H70.084C73.3002 45.6547 75.9068 43.0481 75.9104 39.832Z" fill="white"/>
<path d="M72.9972 68.2353V55.8543C72.9958 54.6481 72.0186 53.6708 70.8123 53.6694H69.3557V52.0788C70.3141 51.7417 70.9126 50.7872 70.7985 49.7776C70.6843 48.768 69.8874 47.9711 68.8778 47.857C67.8682 47.7428 66.9138 48.3413 66.5766 49.2997H60.6162V40.1334L62.2862 41.8034L63.316 40.7735L59.888 37.3455L56.4599 40.7735L57.4897 41.8034L59.1597 40.1334V49.2997H53.1993C52.8621 48.3413 51.9077 47.7425 50.8981 47.857C49.8885 47.9711 49.0916 48.7677 48.9775 49.7773C48.8633 50.7868 49.4618 51.7417 50.4202 52.0784V54.3977H46.0504C44.8442 54.3991 43.867 55.3764 43.8655 56.5826V65.3221C43.867 66.5283 44.8442 67.5055 46.0504 67.507H50.4202V68.9635H48.2353V70.4201H54.0616V68.9635H51.8768V67.507H56.2465C57.4527 67.5055 58.4299 66.5283 58.4314 65.3221V56.5826C58.4299 55.3764 57.4527 54.3991 56.2465 54.3977H51.8768V52.0788C52.4937 51.8587 52.9791 51.3732 53.1993 50.7563H66.5766C66.7968 51.3732 67.2822 51.8587 67.8992 52.0784V53.6694H63.5294C62.3232 53.6708 61.346 54.6481 61.3445 55.8543V68.2353C61.346 69.4415 62.3232 70.4187 63.5294 70.4201H70.8123C72.0186 70.4187 72.9958 69.4415 72.9972 68.2353ZM56.9748 65.3221C56.9744 65.7243 56.6487 66.05 56.2465 66.0504H46.0504C45.6482 66.05 45.3225 65.7243 45.3221 65.3221V63.8655H56.9748V65.3221ZM56.2465 55.8543C56.6487 55.8547 56.9744 56.1804 56.9748 56.5826V62.4089H45.3221V56.5826C45.3225 56.1804 45.6482 55.8547 46.0504 55.8543H56.2465ZM51.1485 50.7563C50.7463 50.7563 50.4202 50.4302 50.4202 50.028C50.4202 49.6258 50.7463 49.2997 51.1485 49.2997C51.5507 49.2997 51.8768 49.6258 51.8768 50.028C51.8764 50.4302 51.5507 50.7559 51.1485 50.7563ZM68.6274 49.2997C69.0296 49.2997 69.3557 49.6258 69.3557 50.028C69.3557 50.4302 69.0296 50.7563 68.6274 50.7563C68.2253 50.7563 67.8992 50.4302 67.8992 50.028C67.8995 49.6258 68.2253 49.3 68.6274 49.2997ZM62.8011 55.8543C62.8015 55.4521 63.1272 55.1264 63.5294 55.126H70.8123C71.2145 55.1264 71.5403 55.4521 71.5406 55.8543V65.3221H62.8011V55.8543ZM62.8011 68.2353V66.7787H71.5406V68.2353C71.5403 68.6374 71.2145 68.9632 70.8123 68.9635H63.5294C63.1272 68.9632 62.8015 68.6374 62.8011 68.2353Z" fill="white"/>
</g>
<defs>
<filter id="filter0_d" x="0" y="0" width="120" height="97.1429" filterUnits="userSpaceOnUse" color-interpolation-filters="sRGB">
<feFlood flood-opacity="0" result="BackgroundImageFix"/>
<feColorMatrix in="SourceAlpha" type="matrix" values="0 0 0 0 0 0 0 0 0 0 0 0 0 0 0 0 0 0 127 0"/>
<feOffset/>
<feGaussianBlur stdDeviation="10"/>
<feColorMatrix type="matrix" values="0 0 0 0 0.976471 0 0 0 0 0.254902 0 0 0 0 0.266667 0 0 0 0.5 0"/>
<feBlend mode="normal" in2="BackgroundImageFix" result="effect1_dropShadow"/>
<feBlend mode="normal" in="SourceGraphic" in2="effect1_dropShadow" result="shape"/>
</filter>
</defs>
</svg>
